<svg width="24" height="25" viewBox="0 0 24 25" fill="none" xmlns="http://www.w3.org/2000/svg">
<path d="M13.7309 21.752H10.2691C6.87042 21.752 5.17108 21.752 4.06784 20.8534C3.71367 20.5649 3.41152 20.2179 3.17451 19.8274C2.43624 18.611 2.67002 16.9278 3.13757 13.5615L3.63757 9.96146C4.0012 7.3433 4.18302 6.03421 4.95232 5.14122C5.20212 4.85125 5.49225 4.59863 5.81383 4.39109C6.80417 3.75195 8.12582 3.75195 10.7691 3.75195H13.2309C15.8742 3.75195 17.1958 3.75195 18.1862 4.39109C18.5077 4.59863 18.7979 4.85125 19.0477 5.14122C19.817 6.03421 19.9988 7.34329 20.3624 9.96146L20.8624 13.5615C21.33 16.9278 21.5638 18.611 20.8255 19.8274C20.5885 20.2179 20.2863 20.5649 19.9322 20.8534C18.8289 21.752 17.1296 21.752 13.7309 21.752Z" fill="#F2F2F2" fill-opacity="0.18"/>
<path d="M8 7.75195V8.75195C8 10.9611 9.79086 12.752 12 12.752C14.2091 12.752 16 10.9611 16 8.75195V7.75195M10.7691 3.75195H13.2309C15.8742 3.75195 17.1958 3.75195 18.1862 4.39109C18.5077 4.59863 18.7979 4.85125 19.0477 5.14122C19.817 6.03421 19.9988 7.34329 20.3624 9.96146L20.8624 13.5615C21.33 16.9278 21.5638 18.611 20.8255 19.8274C20.5885 20.2179 20.2863 20.5649 19.9322 20.8534C18.8289 21.752 17.1296 21.752 13.7309 21.752H10.2691C6.87042 21.752 5.17108 21.752 4.06784 20.8534C3.71367 20.5649 3.41152 20.2179 3.17451 19.8274C2.43624 18.611 2.67002 16.9278 3.13757 13.5615L3.63757 9.96146C4.0012 7.3433 4.18302 6.03421 4.95232 5.14122C5.20212 4.85125 5.49225 4.59863 5.81383 4.39109C6.80417 3.75195 8.12582 3.75195 10.7691 3.75195Z" stroke="#8F7D6A" stroke-width="1.5" stroke-linecap="round" stroke-linejoin="round"/>
</svg>
