<svg width="24" height="24" viewBox="0 0 24 24" fill="none" xmlns="http://www.w3.org/2000/svg">
<path d="M12 5C15.2414 5 18.0852 7.35234 19.9031 9.32973C20.7101 10.2075 21.1136 10.6464 21.2498 11.5556C21.2831 11.7782 21.2831 12.2218 21.2498 12.4444C21.1136 13.3536 20.7101 13.7925 19.9031 14.6703C18.0852 16.6477 15.2414 19 12 19C8.75865 19 5.91481 16.6477 4.09687 14.6703C3.28988 13.7925 2.88639 13.3536 2.7502 12.4444C2.71686 12.2218 2.71686 11.7782 2.7502 11.5556C2.88639 10.6464 3.28988 10.2075 4.09687 9.32973C5.91482 7.35234 8.75865 5 12 5Z" stroke="#8F7D6A" stroke-width="1.5" stroke-linejoin="round"/>
<path d="M15 12C15 13.6569 13.6569 15 12 15C10.3431 15 9 13.6569 9 12C9 10.3431 10.3431 9 12 9C13.6569 9 15 10.3431 15 12Z" stroke="#8F7D6A" stroke-width="1.5" stroke-linejoin="round"/>
</svg>
