<svg width="140" height="145" viewBox="0 0 140 145" fill="none" xmlns="http://www.w3.org/2000/svg">
<path opacity="0.2" d="M38.5606 134.839C45.5882 141.001 53.6209 145.087 62.9095 144.984C81.1423 144.755 97.3983 131.813 110.543 119.007C118.878 110.866 128.065 103.105 134.233 92.8458C142.067 79.8211 141.155 69.1929 134.974 56.2523C128.745 43.2195 121.171 31.0105 112.388 19.8433C105.442 11.026 95.4261 0.216458 83.4855 0.635197C80.4102 0.740784 77.3986 1.75723 74.47 2.879C50.7907 11.9995 28.0094 28.5373 10.1315 47.6253C-4.95336 63.7344 0.31021 79.8712 10.4377 96.3522C17.7809 108.296 26.755 124.491 38.5606 134.839Z" fill="#E2DFCF"/>
</svg>
