<svg width="109" height="109" viewBox="0 0 109 109" fill="none" xmlns="http://www.w3.org/2000/svg">
<g opacity="0.3">
<path fill-rule="evenodd" clip-rule="evenodd" d="M74.7298 44.0139C77.4905 40.1462 82.7087 35.9825 89.8128 32.5162C91.6589 31.6154 90.8261 28.8235 88.7881 29.0813C73.8619 30.9693 64.1873 37.5064 58.9043 47.2279C56.9393 50.8436 55.7048 54.6921 55.0474 58.6208C54.6139 61.2111 54.4994 63.155 54.4994 65.4002C54.4994 75.4334 62.6329 83.5669 72.6661 83.5669C82.6993 83.5669 90.8327 75.4334 90.8327 65.4002C90.8327 55.3671 82.5695 47.2279 73.0737 47.2279C73.5746 45.8524 73.695 45.4637 74.7298 44.0139ZM34.7631 44.0139C37.5238 40.1462 42.7421 35.9825 49.8461 32.5162C51.6922 31.6154 50.8594 28.8235 48.8214 29.0813C33.8952 30.9693 24.2207 37.5064 18.9376 47.2279C16.9727 50.8436 15.7382 54.6921 15.0807 58.6208C14.6472 61.2111 14.5327 63.155 14.5327 65.4002C14.5327 75.4334 22.6662 83.5669 32.6994 83.5669C42.7326 83.5669 50.8661 75.4334 50.8661 65.4002C50.8661 55.3671 42.6028 47.2279 33.107 47.2279C33.608 45.8524 33.7283 45.4637 34.7631 44.0139Z" fill="#8F7D6A"/>
</g>
</svg>
