<svg width="41" height="40" viewBox="0 0 41 40" fill="none" xmlns="http://www.w3.org/2000/svg">
<path d="M35.3234 15.7414C33.579 25.7921 20.4916 34.1663 20.4916 34.1663C20.4916 34.1663 7.30771 25.7918 5.65971 15.7419C4.0117 5.69209 15.5476 2.34173 20.4916 10.1322C25.4356 2.34159 37.0678 5.69073 35.3234 15.7414Z" fill="#E2DFCF" fill-opacity="0.18"/>
<path d="M5.50075 24.1685H8.7411C9.14386 24.1685 9.34523 24.1685 9.52392 24.0971C9.58281 24.0735 9.63933 24.0445 9.69271 24.0102C9.85468 23.9063 9.97173 23.7425 10.2058 23.4147L12.4983 20.2052C13.0411 19.4454 13.3125 19.0654 13.6822 18.9806C13.8003 18.9536 13.9223 18.9482 14.0424 18.9647C14.4181 19.0165 14.722 19.371 15.3297 20.08L17.2877 22.3644C17.9137 23.0947 18.2267 23.4598 18.6104 23.5077C18.7328 23.523 18.857 23.5155 18.9766 23.4856C19.3518 23.3919 19.6186 22.9918 20.1521 22.1915L23.9012 16.5678C24.5337 15.619 24.85 15.1446 25.2724 15.071C25.4059 15.0477 25.5427 15.0518 25.6746 15.083C26.0919 15.1819 26.3792 15.6743 26.9537 16.6593L30.8131 23.2755C31.0386 23.6619 31.1513 23.8552 31.3228 23.9791C31.3792 24.0198 31.4397 24.0546 31.5034 24.0828C31.6968 24.1685 31.9205 24.1685 32.368 24.1685H35.5008M35.3234 15.7414C33.579 25.7921 20.4916 34.1663 20.4916 34.1663C20.4916 34.1663 7.30771 25.7918 5.65971 15.7419C4.0117 5.69209 15.5476 2.34173 20.4916 10.1322C25.4356 2.34159 37.0678 5.69073 35.3234 15.7414Z" stroke="#503217" stroke-width="2.5" stroke-linecap="round" stroke-linejoin="round"/>
</svg>
