<svg width="41" height="40" viewBox="0 0 41 40" fill="none" xmlns="http://www.w3.org/2000/svg">
<path d="M5.5 20C5.5 14.4772 9.97715 10 15.5 10H20.5H25.5C31.0228 10 35.5 14.4772 35.5 20C35.5 25.5228 31.0228 30 25.5 30H20.5H15.5C9.97715 30 5.5 25.5228 5.5 20Z" fill="#E2DFCF" fill-opacity="0.18"/>
<path d="M20.5 10H15.5C9.97715 10 5.5 14.4772 5.5 20C5.5 25.5228 9.97715 30 15.5 30H20.5M20.5 10H25.5C31.0228 10 35.5 14.4772 35.5 20C35.5 25.5228 31.0228 30 25.5 30H20.5M20.5 10V30" stroke="#503217" stroke-width="2.5" stroke-linejoin="round"/>
</svg>
