<svg width="157" height="161" viewBox="0 0 157 161" fill="none" xmlns="http://www.w3.org/2000/svg">
<g opacity="0.15">
<path d="M128.099 57.5002C128.116 60.247 128.948 62.9268 130.489 65.2005C132.031 67.4742 134.212 69.2394 136.757 70.2728C139.302 71.3061 142.096 71.5611 144.786 71.0054C147.476 70.4497 149.941 69.1083 151.868 67.1511C153.795 65.1939 155.098 62.7088 155.612 60.0106C156.126 57.3123 155.828 54.5222 154.756 51.9935C153.683 49.4647 151.885 47.3111 149.587 45.8052C147.29 44.2994 144.598 43.509 141.851 43.5342C138.185 43.5938 134.69 45.0911 132.117 47.7034C129.545 50.3157 128.102 53.834 128.099 57.5002ZM149.846 57.3322C149.862 58.8932 149.415 60.4237 148.56 61.7302C147.706 63.0367 146.483 64.0604 145.047 64.6716C143.611 65.2828 142.025 65.4541 140.491 65.1639C138.958 64.8736 137.545 64.1348 136.431 63.0409C135.317 61.9471 134.553 60.5475 134.235 59.0191C133.917 57.4908 134.06 55.9026 134.645 54.4555C135.231 53.0083 136.232 51.7674 137.523 50.8897C138.814 50.0121 140.336 49.5371 141.897 49.5251C143.978 49.5348 145.973 50.356 147.458 51.8141C148.942 53.2722 149.799 55.252 149.846 57.3322Z" fill="#8F7D6A"/>
<path d="M129.994 23.4948C130.006 25.5772 130.636 27.6091 131.803 29.3335C132.97 31.0579 134.623 32.3972 136.552 33.1819C138.481 33.9667 140.599 34.1616 142.639 33.742C144.678 33.3224 146.548 32.3072 148.01 30.8248C149.473 29.3424 150.463 27.4594 150.854 25.4143C151.246 23.3691 151.023 21.2536 150.212 19.3356C149.401 17.4176 148.04 15.7832 146.3 14.6393C144.559 13.4954 142.519 12.8933 140.437 12.9094C137.649 12.931 134.984 14.0577 133.026 16.0422C131.068 18.0268 129.978 20.7071 129.994 23.4948ZM145.031 23.3787C145.042 24.2769 144.786 25.1581 144.295 25.9105C143.804 26.6628 143.101 27.2524 142.275 27.6044C141.448 27.9564 140.536 28.0549 139.653 27.8874C138.771 27.7199 137.958 27.294 137.318 26.6638C136.678 26.0335 136.239 25.2273 136.058 24.3474C135.877 23.4676 135.961 22.5538 136.301 21.722C136.64 20.8902 137.218 20.1779 137.963 19.6755C138.708 19.1731 139.585 18.9034 140.483 18.9004C141.08 18.8905 141.673 18.9986 142.228 19.2185C142.783 19.4385 143.289 19.7659 143.717 20.1819C144.146 20.598 144.487 21.0945 144.723 21.643C144.959 22.1916 145.084 22.7812 145.091 23.3782L145.031 23.3787Z" fill="#8F7D6A"/>
<path d="M115.967 25.2008C114.163 25.2226 112.407 25.7782 110.919 26.7973C109.432 27.8164 108.279 29.2535 107.607 30.927C106.936 32.6006 106.775 34.4356 107.145 36.2006C107.515 37.9655 108.4 39.5811 109.688 40.8436C110.976 42.106 112.609 42.9587 114.381 43.2939C116.152 43.6292 117.984 43.432 119.644 42.7272C121.304 42.0224 122.718 40.8417 123.707 39.3341C124.697 37.8264 125.217 36.0594 125.203 34.2562C125.194 33.0543 124.947 31.8661 124.478 30.7599C124.008 29.6536 123.324 28.651 122.466 27.8096C121.608 26.9682 120.592 26.3046 119.477 25.8569C118.361 25.4092 117.168 25.1862 115.967 25.2008ZM119.212 34.3024C119.213 34.9177 119.032 35.5195 118.691 36.0319C118.35 36.5442 117.865 36.9441 117.298 37.1813C116.73 37.4184 116.105 37.4821 115.501 37.3643C114.897 37.2465 114.341 36.9525 113.904 36.5194C113.467 36.0863 113.168 35.5334 113.045 34.9306C112.922 34.3278 112.98 33.7019 113.212 33.132C113.443 32.5621 113.839 32.0737 114.348 31.7283C114.857 31.3829 115.458 31.196 116.073 31.1913C116.484 31.1881 116.891 31.2662 117.272 31.421C117.652 31.5759 117.998 31.8045 118.29 32.0937C118.582 32.3828 118.813 32.7269 118.972 33.1059C119.13 33.485 119.212 33.8916 119.212 34.3024Z" fill="#8F7D6A"/>
<path d="M74.7239 123.138L74.723 123.018C108.447 129.847 141.06 122.226 143.173 121.71C143.804 121.554 144.367 121.197 144.777 120.693C145.187 120.188 145.422 119.564 145.446 118.915C145.471 118.265 145.283 117.626 144.912 117.092C144.541 116.558 144.006 116.16 143.388 115.957C141.646 115.371 100.356 101.032 101.584 48.0793C102.07 25.6282 91.6245 10.0717 71.2806 3.15912C65.5763 1.20172 59.5322 0.430358 53.5191 0.892349C47.506 1.35434 41.6506 3.03995 36.3123 5.84577C30.6927 8.77614 25.7207 12.808 21.6926 17.701C17.6646 22.594 14.663 28.2479 12.8667 34.3257C10.4951 42.0625 9.27862 50.1069 9.25666 58.1989C9.17239 70.0924 12.9558 81.6912 20.0367 91.2475C14.3574 94.4046 9.61518 99.009 6.29195 104.593C2.96871 110.176 1.18296 116.54 1.11613 123.038C1.04932 129.535 2.70384 135.935 5.91153 141.586C9.11922 147.236 13.7658 151.937 19.3789 155.211C24.9921 158.484 31.3717 160.213 37.8695 160.222C44.3674 160.231 50.7517 158.519 56.3737 155.261C61.9957 152.003 66.655 147.315 69.8781 141.673C73.1011 136.03 74.773 129.636 74.7239 123.138ZM18.6115 36.0188C20.3764 30.0944 23.4538 24.6439 27.615 20.0724C38.5018 25.6579 47.8667 33.8074 54.9024 43.8183C61.9381 53.8292 66.4335 65.4011 68.0008 77.5363L73.9856 76.6912C68.2533 37.8321 41.839 20.6814 32.214 15.6432C34.3368 13.9287 36.6268 12.4324 39.0495 11.1768C43.6711 8.73663 48.743 7.2675 53.9533 6.85976C59.1636 6.45202 64.4022 7.1143 69.3471 8.80587C87.1883 14.899 96.0575 28.0912 95.6114 47.9058C94.6574 89.8522 119.276 109.773 132.856 117.516C120.588 119.389 97.3388 121.565 74.0736 116.513C72.4531 108.05 67.9182 100.424 61.2573 94.9583C54.5965 89.4931 46.231 86.5349 37.6152 86.5982C33.5375 86.6197 29.4924 87.326 25.6487 88.6878C14.719 75.0322 12.3453 57.3163 18.6115 36.0188ZM7.06633 123.661C7.01921 117.562 8.78151 111.587 12.1303 106.49C15.4792 101.394 20.2641 97.4046 25.8802 95.0274C31.4962 92.6501 37.691 91.9916 43.6813 93.1351C49.6716 94.2786 55.1882 97.1728 59.5336 101.452C63.8791 105.73 66.8581 111.202 68.094 117.174C69.33 123.145 68.7672 129.35 66.4771 135.002C64.1869 140.654 60.2721 145.5 55.2278 148.927C50.1835 152.354 44.2361 154.209 38.1379 154.256C29.9635 154.308 22.102 151.117 16.2772 145.382C10.4525 139.646 7.14005 131.835 7.06633 123.661Z" fill="#8F7D6A"/>
<path d="M47.7852 141.32L47.7216 133.093L55.9292 133.029C56.7236 133.023 57.4831 132.702 58.0405 132.135C58.5979 131.569 58.9076 130.805 58.9015 130.011L58.7973 116.531C58.7912 115.737 58.4697 114.977 57.9036 114.42C57.3375 113.862 56.5732 113.553 55.7787 113.559L47.5712 113.622L47.5076 105.395C47.5015 104.6 47.18 103.841 46.6139 103.283C46.0478 102.726 45.2834 102.416 44.489 102.422L30.9894 102.526C30.195 102.533 29.4355 102.854 28.8781 103.42C28.3207 103.986 28.011 104.751 28.0171 105.545L28.0807 113.773L19.8531 113.836C19.0587 113.842 18.2992 114.164 17.7418 114.73C17.1844 115.296 16.8747 116.06 16.8808 116.855L16.985 130.334C16.9911 131.129 17.3126 131.888 17.8787 132.446C18.4448 133.003 19.2091 133.313 20.0036 133.307L28.2311 133.243L28.2947 141.471C28.3008 142.265 28.6223 143.025 29.1884 143.582C29.7545 144.139 30.5188 144.449 31.3133 144.443L44.8128 144.339C45.6073 144.333 46.3668 144.011 46.9242 143.445C47.4816 142.879 47.7913 142.115 47.7852 141.32ZM34.2625 138.429L34.1989 130.201C34.1928 129.407 33.8713 128.647 33.3052 128.09C32.7391 127.533 31.9747 127.223 31.1803 127.229L22.9528 127.293L22.8949 119.804L31.1224 119.74C31.9169 119.734 32.6763 119.413 33.2338 118.847C33.7912 118.281 34.1009 117.516 34.0947 116.722L34.0312 108.494L41.5398 108.436L41.6034 116.664C41.6095 117.458 41.931 118.218 42.4971 118.775C43.0632 119.333 43.8275 119.642 44.622 119.636L52.8296 119.573L52.8874 127.061L44.6798 127.125C43.8854 127.131 43.1259 127.452 42.5685 128.019C42.0111 128.585 41.7014 129.349 41.7075 130.143L41.7711 138.371L34.2625 138.429Z" fill="#8F7D6A"/>
</g>
</svg>
