<svg width="117" height="117" viewBox="0 0 117 117" fill="none" xmlns="http://www.w3.org/2000/svg">
<rect x="0.5" y="0.5" width="116" height="116" rx="58" stroke="#503217" stroke-dasharray="2 2"/>
<rect x="7.5" y="7.5" width="102" height="102" rx="51" fill="#E2DFCF"/>
<path d="M77.0292 53.1775C74.8487 65.7408 58.4894 76.2087 58.4894 76.2087C58.4894 76.2087 42.0096 65.7405 39.9496 53.1782C37.8896 40.6158 52.3095 36.4279 58.4894 46.1659C64.6695 36.4277 79.2097 40.6141 77.0292 53.1775Z" fill="#E2DFCF" fill-opacity="0.18"/>
<path d="M77.0292 53.1775C74.8487 65.7408 58.4894 76.2087 58.4894 76.2087C58.4894 76.2087 42.0096 65.7405 39.9496 53.1782C37.8896 40.6158 52.3095 36.4279 58.4894 46.1659C64.6695 36.4277 79.2097 40.6141 77.0292 53.1775Z" stroke="#503217" stroke-width="2.5" stroke-linecap="round" stroke-linejoin="round"/>
</svg>
