<svg width="117" height="117" viewBox="0 0 117 117" fill="none" xmlns="http://www.w3.org/2000/svg">
<rect x="0.5" y="0.5" width="116" height="116" rx="58" stroke="#503217" stroke-dasharray="2 2"/>
<rect x="7.5" y="7.5" width="102" height="102" rx="51" fill="#E2DFCF"/>
<path d="M72.75 50.167H44.25C42.3751 50.167 41.4377 50.167 40.7805 50.6444C40.5683 50.7986 40.3817 50.9853 40.2275 51.1975C39.75 51.8547 39.75 52.7921 39.75 54.667V72.7503C39.75 74.6252 39.75 75.5626 40.2275 76.2198C40.3817 76.432 40.5683 76.6187 40.7805 76.7729C41.4377 77.2503 42.3751 77.2503 44.25 77.2503H72.75C74.6249 77.2503 75.5623 77.2503 76.2195 76.7729C76.4317 76.6187 76.6183 76.432 76.7725 76.2198C77.25 75.5626 77.25 74.6252 77.25 72.7503V54.667C77.25 52.7921 77.25 51.8547 76.7725 51.1975C76.6183 50.9853 76.4317 50.7986 76.2195 50.6444C75.5623 50.167 74.6249 50.167 72.75 50.167Z" fill="#E2DFCF" fill-opacity="0.18"/>
<path d="M66.8333 50.1667V46.95C66.8333 43.9502 66.8333 42.4503 66.0694 41.3989C65.8227 41.0593 65.5241 40.7607 65.1845 40.5139C64.133 39.75 62.6331 39.75 59.6333 39.75H57.3667C54.3669 39.75 52.867 39.75 51.8155 40.5139C51.4759 40.7607 51.1773 41.0593 50.9306 41.3989C50.1667 42.4503 50.1667 43.9502 50.1667 46.95V50.1667M64.75 63.7083H58.4993M58.4993 63.7083H52.25M58.4993 63.7083L58.5 69.9583M58.4993 63.7083L58.5 57.4583M44.25 77.25H72.75C74.6249 77.25 75.5623 77.25 76.2195 76.7725C76.4317 76.6183 76.6183 76.4317 76.7725 76.2195C77.25 75.5623 77.25 74.6249 77.25 72.75V54.6667C77.25 52.7918 77.25 51.8544 76.7725 51.1972C76.6183 50.985 76.4317 50.7983 76.2195 50.6441C75.5623 50.1667 74.6249 50.1667 72.75 50.1667H44.25C42.3751 50.1667 41.4377 50.1667 40.7805 50.6441C40.5683 50.7983 40.3817 50.985 40.2275 51.1972C39.75 51.8544 39.75 52.7918 39.75 54.6667V72.75C39.75 74.6249 39.75 75.5623 40.2275 76.2195C40.3817 76.4317 40.5683 76.6183 40.7805 76.7725C41.4377 77.25 42.3751 77.25 44.25 77.25Z" stroke="#503217" stroke-width="2.5" stroke-linecap="round" stroke-linejoin="round"/>
</svg>
