<svg width="117" height="117" viewBox="0 0 117 117" fill="none" xmlns="http://www.w3.org/2000/svg">
<rect x="0.5" y="0.5" width="116" height="116" rx="58" stroke="#503217" stroke-dasharray="2 2"/>
<rect x="7.5" y="7.5" width="102" height="102" rx="51" fill="#E2DFCF"/>
<path d="M53.291 58.5H58.4993H63.7077V72.0417C63.7077 74.9181 61.3758 77.25 58.4993 77.25C55.6229 77.25 53.291 74.9181 53.291 72.0417V58.5Z" fill="#E2DFCF" fill-opacity="0.18"/>
<path d="M53.2923 58.5H63.709M53.2923 58.5V72.0417C53.2923 74.9181 55.6242 77.25 58.5007 77.25C61.3771 77.25 63.709 74.9181 63.709 72.0417V58.5M53.2923 58.5V46.0208M63.709 58.5V46.0208M54.334 46H62.6673C64.3932 46 65.7923 44.6009 65.7923 42.875C65.7923 41.1491 64.3932 39.75 62.6673 39.75H54.334C52.6081 39.75 51.209 41.1491 51.209 42.875C51.209 44.6009 52.6081 46 54.334 46Z" stroke="#503217" stroke-width="2.5" stroke-linejoin="round"/>
</svg>
