<svg width="117" height="117" viewBox="0 0 117 117" fill="none" xmlns="http://www.w3.org/2000/svg">
<rect x="0.5" y="0.5" width="116" height="116" rx="58" stroke="#503217" stroke-dasharray="2 2"/>
<rect x="7.5" y="7.5" width="102" height="102" rx="51" fill="#E2DFCF"/>
<path d="M39.75 58.5C39.75 51.5964 45.3464 46 52.25 46H58.5H64.75C71.6536 46 77.25 51.5964 77.25 58.5C77.25 65.4036 71.6536 71 64.75 71H58.5H52.25C45.3464 71 39.75 65.4036 39.75 58.5Z" fill="#E2DFCF" fill-opacity="0.18"/>
<path d="M58.5 46H52.25C45.3464 46 39.75 51.5964 39.75 58.5C39.75 65.4036 45.3464 71 52.25 71H58.5M58.5 46H64.75C71.6536 46 77.25 51.5964 77.25 58.5C77.25 65.4036 71.6536 71 64.75 71H58.5M58.5 46V71" stroke="#503217" stroke-width="2.5" stroke-linejoin="round"/>
</svg>
