<svg width="117" height="117" viewBox="0 0 117 117" fill="none" xmlns="http://www.w3.org/2000/svg">
<rect x="0.5" y="0.5" width="116" height="116" rx="58" stroke="#503217" stroke-dasharray="2 2"/>
<rect x="7.5" y="7.5" width="102" height="102" rx="51" fill="#E2DFCF"/>
<path d="M77.0292 53.1775C74.8487 65.7408 58.4894 76.2087 58.4894 76.2087C58.4894 76.2087 42.0096 65.7405 39.9496 53.1782C37.8896 40.6158 52.3095 36.4279 58.4894 46.1659C64.6695 36.4277 79.2097 40.6141 77.0292 53.1775Z" fill="#E2DFCF" fill-opacity="0.18"/>
<path d="M39.7509 63.7114H44.033C44.4357 63.7114 44.6371 63.7114 44.8158 63.6399C44.8747 63.6164 44.9312 63.5873 44.9846 63.5531C45.1465 63.4492 45.2636 63.2853 45.4977 62.9576L48.8318 58.2898C49.3746 57.5299 49.646 57.15 50.0157 57.0652C50.1338 57.0381 50.2559 57.0327 50.3759 57.0492C50.7516 57.1011 51.0555 57.4556 51.6632 58.1646L54.8713 61.9073C55.4972 62.6376 55.8102 63.0027 56.1939 63.0506C56.3163 63.0659 56.4405 63.0584 56.5602 63.0285C56.9353 62.9348 57.2021 62.5346 57.7356 61.7343L63.1514 53.6106C63.7839 52.6619 64.1002 52.1875 64.5226 52.1139C64.6561 52.0906 64.7929 52.0947 64.9248 52.1259C65.3421 52.2247 65.6293 52.7172 66.2039 53.7021L71.5217 62.8183C71.7471 63.2048 71.8598 63.398 72.0314 63.5219C72.0878 63.5627 72.1483 63.5974 72.2119 63.6256C72.4054 63.7114 72.6291 63.7114 73.0765 63.7114H77.2509M77.0292 53.1775C74.8487 65.7408 58.4894 76.2087 58.4894 76.2087C58.4894 76.2087 42.0096 65.7405 39.9496 53.1782C37.8896 40.6158 52.3095 36.4279 58.4894 46.1659C64.6695 36.4277 79.2097 40.6141 77.0292 53.1775Z" stroke="#503217" stroke-width="2.5" stroke-linecap="round" stroke-linejoin="round"/>
</svg>
