<svg width="179" height="161" viewBox="0 0 179 161" fill="none" xmlns="http://www.w3.org/2000/svg">
<g opacity="0.1" clip-path="url(#clip0_986_927)">
<path d="M17.6001 61.6045C17.2214 62.8044 17.0122 64.0451 17.0677 65.3015C17.1929 68.2466 18.7726 70.9978 20.9111 73.033C26.6264 78.4751 34.6788 79.5193 42.2216 79.5374C52.2544 79.5619 61.7755 77.9171 71.4379 75.455C74.8774 74.5783 78.3351 73.7563 81.7418 72.7623C92.1846 69.711 102.356 64.7585 112.541 60.9056C116.26 59.4984 120.06 58.0596 123.115 55.5184C127.054 52.2413 129.987 44.89 128.042 39.8447C126.119 34.859 120.228 31.9669 115.428 30.5153C113.122 29.8175 110.736 29.421 108.347 29.1146C84.6471 26.085 60.4595 32.0292 38.9575 42.3915C31.1934 46.1331 23.3476 50.7947 19.0875 58.2779C18.4884 59.3315 17.9653 60.4492 17.6001 61.6045ZM74.8599 70.6601C73.1265 71.1398 71.6621 71.6508 70.1561 71.9418C66.1269 72.7192 62.0841 73.4422 58.0355 74.1141C52.1041 75.0977 46.1425 75.6379 40.1279 74.9804C36.9379 74.6318 33.7446 74.3016 30.5627 73.8772C29.8341 73.7803 29.024 73.4831 28.4724 73.0177C26.8654 71.6602 25.2786 70.2548 23.8568 68.7102C22.2265 66.9394 21.0481 63.715 22.9775 60.7147C23.7568 59.504 24.5831 58.3208 25.3035 57.0747C26.2059 55.5125 27.2854 54.0889 28.774 53.0903C31.0706 51.5494 33.3339 49.871 35.8324 48.7393C41.6934 46.0865 47.6753 43.6978 53.6311 41.2555C57.0177 39.8678 60.4137 38.4886 63.8721 37.2987C65.5015 36.7385 67.1637 35.9486 69.1486 36.2599C69.3261 36.7837 69.605 37.2833 69.6512 37.802C69.8613 40.1208 70.0372 42.4433 70.1677 44.7681C70.3548 48.0816 70.1885 51.4352 71.4663 54.6117C71.6679 55.1138 71.6861 55.6968 71.7537 56.2459C72.2263 60.1047 72.8873 63.9255 74.0796 67.6399C74.3493 68.4767 74.5235 69.3446 74.8599 70.6601ZM74.5075 35.2648C75.6062 34.1355 76.932 34.0152 78.2634 33.8943C80.5832 33.6844 82.9312 33.6249 85.215 33.2142C89.9734 32.3604 94.7387 33.0682 99.4969 32.9497C101.598 32.8972 103.705 33.1016 105.807 33.0742C107.594 33.052 109.36 33.0518 111.085 33.5914C114.708 34.7254 118.166 36.1065 121.111 38.6626C123.705 40.9155 124.648 43.0101 123.647 46.2346C121.978 51.6231 118.584 55.2256 112.819 56.29C111.521 56.5285 110.232 56.949 109.017 57.4691C104.226 59.5211 99.4114 61.5294 94.7118 63.7749C89.9822 66.0337 84.9379 67.4034 80.0857 69.3015C79.8045 69.4113 79.4397 69.3109 79.1278 69.3089C75.6347 58.274 74.6717 46.9429 74.5075 35.2648Z" fill="#8F7D6A"/>
<path d="M145.394 136.514C149.73 125.561 153.709 114.472 157.883 103.459C160.227 97.2736 162.63 91.1103 165.193 85.0128C167.535 79.4414 171.603 73.7436 170.765 67.5846C169.946 61.5601 167.481 56.7809 162.158 53.5152C160.288 52.3681 158.326 51.5532 155.896 51.7808C150.766 52.2604 146.872 53.0915 142.996 56.806C139.402 60.2497 137.028 64.8364 135.083 69.3566C131.229 78.314 128.357 87.667 124.532 96.6364C121.337 104.127 117.483 111.329 114.455 118.89C110.219 129.459 105.482 142.833 116.146 151.479C122.034 156.253 131.373 156.469 137.059 151.474C140.444 148.5 142.3 144.197 143.99 140.02C144.463 138.854 144.93 137.684 145.394 136.514ZM150.922 108.72C151.221 110.604 150.414 112.102 149.826 113.612C147.652 119.193 145.504 124.785 143.202 130.314C141.413 134.611 139.294 138.77 137.54 143.079C136.375 145.94 134.102 147.643 131.836 149.415C131.329 149.812 130.677 150.074 130.05 150.259C127.384 151.049 124.786 150.819 122.261 149.637C120.322 148.729 118.702 147.383 117.179 145.926C114.386 143.252 114.457 143.219 113.569 139.448C113.274 138.194 113.398 137.047 113.679 135.847C113.905 134.88 114.113 133.897 114.19 132.91C114.384 130.449 114.979 128.095 115.92 125.826C118.215 120.293 120.475 114.744 122.85 109.246C123.86 106.907 125.087 104.66 126.28 102.404C126.775 101.47 127.666 101.299 128.531 101.83C135.877 106.345 142.37 108.504 150.922 108.72ZM152.943 103.155C150.536 103.44 148.006 104.305 145.593 104.243C143.49 104.19 141.5 103.33 139.573 102.486C136.849 101.292 134.091 100.077 131.769 98.2202C131.022 97.6223 130.307 96.9356 129.934 96.0557C129.093 94.0615 131.142 91.5987 131.658 89.7172C133.253 83.9089 135.855 78.4913 137.993 72.8954C139.393 69.2334 141.311 65.8601 143.49 62.6526C146.501 58.2175 150.614 55.7429 156.212 56.3207C158.155 56.5217 160.017 57.0732 161.401 58.3811C165.06 61.8348 167.168 66.0099 166.251 71.1917C165.569 75.0421 164.211 78.7121 162.299 82.105C159.123 87.7432 156.972 93.8104 154.556 99.7707C154.061 100.989 153.774 102.308 152.943 103.155Z" fill="#8F7D6A"/>
</g>
<defs>
<clipPath id="clip0_986_927">
<rect width="147" height="112" fill="white" transform="matrix(-0.92153 -0.388307 -0.388307 0.92153 178.955 57.0811)"/>
</clipPath>
</defs>
</svg>
