<svg width="15" height="15" viewBox="0 0 15 15" fill="none" xmlns="http://www.w3.org/2000/svg">
<path fill-rule="evenodd" clip-rule="evenodd" d="M13.5603 9.89585C13.5603 11.1625 12.5299 12.1913 11.2649 12.1913H3.73391C2.46884 12.1913 1.43844 11.1625 1.43844 9.89585V5.10399C1.43844 4.68124 1.55419 4.28418 1.75511 3.9434L5.42976 7.61805C5.97951 8.16941 6.71571 8.47322 7.50017 8.47322C8.28301 8.47322 9.01921 8.16941 9.56896 7.61805L13.2436 3.9434C13.4446 4.28418 13.5603 4.68121 13.5603 5.10399V9.89585H13.5603ZM11.2648 2.80855H3.73391C3.21148 2.80855 2.72923 2.98536 2.34345 3.27953L6.05507 6.99276C6.43927 7.37532 6.95202 7.58752 7.50017 7.58752C8.0467 7.58752 8.55948 7.37532 8.94365 6.99276L12.6553 3.27953C12.2695 2.98536 11.7873 2.80855 11.2648 2.80855ZM11.2648 1.92285H3.73391C1.98017 1.92285 0.552734 3.35028 0.552734 5.10402V9.89588C0.552734 11.6512 1.98017 13.0771 3.73391 13.0771H11.2648C13.0186 13.0771 14.446 11.6512 14.446 9.89588V5.10399C14.446 3.35025 13.0186 1.92285 11.2648 1.92285Z" fill="#503217"/>
</svg>
