<svg width="31" height="31" viewBox="0 0 31 31" fill="none" xmlns="http://www.w3.org/2000/svg">
<rect width="30.3529" height="30.3529" rx="6" fill="#503217"/>
<path d="M13.4461 16.5891C13.4004 16.5891 12.3934 16.5891 11.9356 16.5891C11.6915 16.5891 11.6152 16.4976 11.6152 16.2687C11.6152 15.6584 11.6152 15.0328 11.6152 14.4225C11.6152 14.1784 11.7068 14.1021 11.9356 14.1021L13.4461 14.1021C13.4461 14.0564 13.4461 13.1714 13.4461 12.7595C13.4461 12.1492 13.5529 11.5694 13.8581 11.0354C14.1785 10.4861 14.6362 10.12 15.216 9.90635C15.5974 9.76904 15.9789 9.70801 16.3908 9.70801L17.886 9.70801C18.0996 9.70801 18.1912 9.79955 18.1912 10.0132L18.1912 11.7525C18.1912 11.9661 18.0996 12.0576 17.886 12.0576C17.4741 12.0576 17.0621 12.0576 16.6502 12.0729C16.2382 12.0729 16.0246 12.2713 16.0246 12.6985C16.0094 13.1562 16.0246 13.5986 16.0246 14.0716L17.7945 14.0716C18.0386 14.0716 18.1301 14.1632 18.1301 14.4073L18.1301 16.2534C18.1301 16.4976 18.0539 16.5738 17.7945 16.5738C17.2452 16.5738 16.0704 16.5738 16.0246 16.5738L16.0246 21.5478C16.0246 21.8071 15.9483 21.8987 15.6737 21.8987C15.0329 21.8987 14.4073 21.8987 13.7665 21.8987C13.5377 21.8987 13.4461 21.8071 13.4461 21.5783C13.4461 19.9762 13.4461 16.6349 13.4461 16.5891Z" fill="#F2F2F2"/>
</svg>
