<svg width="31" height="31" viewBox="0 0 31 31" fill="none" xmlns="http://www.w3.org/2000/svg">
<rect x="0.353516" width="30.3529" height="30.3529" rx="6" fill="#503217"/>
<g clip-path="url(#clip0_1678_86)">
<path d="M22.2623 12.1595C22.2299 11.4248 22.1111 10.9197 21.9409 10.4821C21.7653 10.0175 21.4952 9.60153 21.1413 9.25576C20.7955 8.9046 20.3768 8.63174 19.9176 8.4589C19.4774 8.2887 18.975 8.16989 18.2402 8.1375C17.5001 8.10236 17.2651 8.09424 15.3877 8.09424C13.5104 8.09424 13.2754 8.10236 12.538 8.13476C11.8033 8.16715 11.2982 8.28607 10.8606 8.45616C10.3959 8.63174 9.97995 8.90186 9.63417 9.25576C9.28302 9.60153 9.01026 10.0202 8.83732 10.4794C8.66712 10.9197 8.54831 11.4221 8.51592 12.1568C8.48078 12.897 8.47266 13.132 8.47266 15.0093C8.47266 16.8867 8.48078 17.1216 8.51317 17.8591C8.54557 18.5938 8.66448 19.0989 8.83468 19.5366C9.01026 20.0012 9.28302 20.4171 9.63417 20.7629C9.97995 21.114 10.3986 21.3869 10.8578 21.5597C11.2982 21.7299 11.8005 21.8487 12.5353 21.8811C13.2727 21.9136 13.5078 21.9217 15.3851 21.9217C17.2624 21.9217 17.4974 21.9136 18.2349 21.8811C18.9696 21.8487 19.4747 21.7299 19.9122 21.5597C20.8415 21.2005 21.5762 20.4657 21.9355 19.5366C22.1056 19.0963 22.2245 18.5938 22.2569 17.8591C22.2893 17.1216 22.2974 16.8867 22.2974 15.0093C22.2974 13.132 22.2947 12.897 22.2623 12.1595ZM21.0171 17.8051C20.9873 18.4804 20.8739 18.845 20.7794 19.0881C20.547 19.6905 20.0689 20.1686 19.4666 20.401C19.2234 20.4955 18.8561 20.6089 18.1835 20.6386C17.4542 20.6711 17.2354 20.6791 15.3905 20.6791C13.5455 20.6791 13.3241 20.6711 12.5974 20.6386C11.9221 20.6089 11.5574 20.4955 11.3143 20.401C11.0145 20.2902 10.7417 20.1146 10.5202 19.885C10.2906 19.6608 10.115 19.3906 10.0042 19.0909C9.90968 18.8478 9.79625 18.4804 9.7666 17.8078C9.7341 17.0785 9.72608 16.8596 9.72608 15.0147C9.72608 13.1698 9.7341 12.9483 9.7666 12.2217C9.79625 11.5464 9.90967 11.1817 10.0042 10.9386C10.115 10.6387 10.2906 10.366 10.5229 10.1444C10.747 9.91481 11.0172 9.73923 11.317 9.62854C11.5602 9.534 11.9276 9.42057 12.6001 9.39082C13.3294 9.35842 13.5483 9.3503 15.3931 9.3503C17.2408 9.3503 17.4595 9.35842 18.1862 9.39082C18.8615 9.42057 19.2262 9.534 19.4693 9.62854C19.7691 9.73923 20.0419 9.91481 20.2634 10.1444C20.493 10.3686 20.6686 10.6387 20.7794 10.9386C20.8739 11.1817 20.9873 11.549 21.0171 12.2217C21.0495 12.951 21.0576 13.1698 21.0576 15.0147C21.0576 16.8596 21.0495 17.0757 21.0171 17.8051Z" fill="#F2F2F2"/>
<path d="M15.3861 11.457C13.4251 11.457 11.834 13.048 11.834 15.0091C11.834 16.9702 13.4251 18.5612 15.3861 18.5612C17.3472 18.5612 18.9381 16.9702 18.9381 15.0091C18.9381 13.048 17.3472 11.457 15.3861 11.457ZM15.3861 17.3133C14.1139 17.3133 13.0819 16.2814 13.0819 15.0091C13.0819 13.7368 14.1139 12.705 15.3861 12.705C16.6584 12.705 17.6902 13.7368 17.6902 15.0091C17.6902 16.2814 16.6584 17.3133 15.3861 17.3133Z" fill="#F2F2F2"/>
<path d="M19.7856 11.6891C19.7856 12.147 19.4142 12.5184 18.9562 12.5184C18.4983 12.5184 18.127 12.147 18.127 11.6891C18.127 11.2311 18.4983 10.8599 18.9562 10.8599C19.4142 10.8599 19.7856 11.2311 19.7856 11.6891Z" fill="#F2F2F2"/>
</g>
<defs>
<clipPath id="clip0_1678_86">
<rect width="13.8275" height="13.8275" fill="white" transform="translate(8.44727 8.09424)"/>
</clipPath>
</defs>
</svg>
