<svg width="15" height="15" viewBox="0 0 15 15" fill="none" xmlns="http://www.w3.org/2000/svg">
<path d="M14.2612 10.8072C14.2214 10.6571 14.1506 10.5169 14.0533 10.3958C13.956 10.2747 13.8344 10.1753 13.6963 10.1041L10.7971 8.60177C10.5632 8.47774 10.2924 8.44193 10.0343 8.50087C9.77616 8.55982 9.5478 8.70959 9.39087 8.92287L8.92212 9.56505C8.89804 9.59842 8.86259 9.62184 8.82245 9.63091C8.78231 9.63997 8.74024 9.63406 8.70415 9.61427C8.0148 9.222 7.38369 8.73525 6.82915 8.16818C6.2621 7.61362 5.77536 6.98251 5.38306 6.29318C5.36328 6.25709 5.35736 6.21502 5.36642 6.17488C5.37549 6.13474 5.39891 6.09929 5.43228 6.07521L6.07212 5.60646C6.2854 5.44954 6.43517 5.22118 6.49412 4.96303C6.55306 4.70489 6.51725 4.43415 6.39322 4.20021L4.90025 1.30334C4.82855 1.16507 4.72852 1.04347 4.60668 0.946445C4.48484 0.849423 4.34393 0.779164 4.19312 0.740246C4.04231 0.701327 3.88499 0.694623 3.73142 0.72057C3.57785 0.746517 3.43146 0.804533 3.30181 0.890837L1.48072 2.10959C1.22501 2.27985 1.01853 2.51432 0.881961 2.78951C0.745396 3.06469 0.683541 3.37094 0.702594 3.67756C0.726696 4.19597 0.796498 4.71125 0.911188 5.2174C1.40572 7.12521 2.59869 9.08693 4.25572 10.7463C5.91275 12.4057 7.87681 13.594 9.78462 14.0838C10.2908 14.1985 10.8061 14.2683 11.3245 14.2924H11.4417C11.7277 14.2918 12.0092 14.2212 12.2617 14.0868C12.5141 13.9524 12.7299 13.7582 12.8901 13.5213L14.1042 11.7002C14.1918 11.5708 14.2511 11.4244 14.2781 11.2705C14.3052 11.1166 14.2994 10.9587 14.2612 10.8072ZM13.3237 11.1776L12.1167 13.001C12.0365 13.1193 11.9269 13.2146 11.7987 13.2774C11.6704 13.3403 11.528 13.3687 11.3854 13.3596C10.9256 13.3383 10.4685 13.278 10.019 13.1791C8.27056 12.7244 6.46119 11.6252 4.92134 10.0783C3.3815 8.53146 2.27759 6.72912 1.82291 4.98068C1.72323 4.53124 1.66207 4.07411 1.64009 3.61427C1.63073 3.47201 1.65893 3.32978 1.72187 3.20184C1.7848 3.07391 1.88027 2.96477 1.99869 2.88537L3.81978 1.67131C3.8475 1.65274 3.88017 1.64295 3.91353 1.64318H3.95806C3.98114 1.6492 4.00268 1.66004 4.02126 1.67498C4.03985 1.68993 4.05505 1.70865 4.06587 1.7299L5.56587 4.62912C5.58452 4.66507 5.5898 4.70647 5.58079 4.74595C5.57178 4.78543 5.54905 4.82044 5.51666 4.84474L4.87681 5.31349C4.65984 5.47491 4.50951 5.71022 4.45424 5.97494C4.39896 6.23966 4.44257 6.51545 4.57681 6.75021C5.01061 7.50848 5.54691 8.20331 6.17056 8.81505C6.78226 9.43874 7.4771 9.97505 8.2354 10.4088C8.47016 10.543 8.74596 10.5867 9.01068 10.5314C9.2754 10.4761 9.5107 10.3258 9.67212 10.1088L10.1409 9.46661C10.1652 9.43422 10.2002 9.41149 10.2397 9.40248C10.2791 9.39347 10.3205 9.39875 10.3565 9.4174L13.2557 10.9174C13.2769 10.9285 13.2956 10.9439 13.3105 10.9627C13.3253 10.9815 13.3361 11.0032 13.3421 11.0264C13.348 11.0496 13.3491 11.0738 13.3451 11.0974C13.3411 11.121 13.3322 11.1435 13.319 11.1635L13.3237 11.1776Z" fill="#503217"/>
</svg>
