<svg width="201" height="217" viewBox="0 0 201 217" fill="none" xmlns="http://www.w3.org/2000/svg">
<g opacity="0.2" clip-path="url(#clip0_1143_203)">
<path d="M79.0039 124.624C79.348 123.34 79.3035 121.983 78.8763 120.724C78.449 119.465 77.6581 118.361 76.6035 117.552C75.5489 116.743 74.2781 116.265 72.9517 116.178C71.6253 116.091 70.3029 116.399 69.1517 117.064C68.0005 117.728 67.0723 118.719 66.4844 119.912C65.8965 121.104 65.6753 122.444 65.8488 123.761C66.0223 125.079 66.5827 126.316 67.4591 127.315C68.3356 128.315 69.4887 129.032 70.7726 129.376C72.4943 129.835 74.3278 129.593 75.871 128.702C77.4141 127.811 78.5408 126.344 79.0039 124.624ZM71.8431 125.381C71.3493 125.249 70.9057 124.973 70.5687 124.589C70.2316 124.204 70.016 123.728 69.9493 123.222C69.8826 122.715 69.9676 122.199 70.1938 121.741C70.4199 121.282 70.7769 120.901 71.2196 120.646C71.6624 120.39 72.171 120.271 72.6812 120.305C73.1913 120.338 73.6801 120.522 74.0857 120.833C74.4913 121.145 74.7955 121.569 74.9599 122.053C75.1242 122.537 75.1413 123.059 75.009 123.553C74.8309 124.215 74.3975 124.779 73.804 125.122C73.2105 125.464 72.5053 125.558 71.8431 125.381Z" fill="#8F7D6A"/>
<path d="M83.587 152.792C85.1673 153.215 86.8376 153.16 88.3868 152.635C89.936 152.109 91.2945 151.135 92.2904 149.837C93.2863 148.539 93.875 146.975 93.982 145.343C94.089 143.71 93.7095 142.083 92.8915 140.666C92.0735 139.249 90.8538 138.107 89.3865 137.383C87.9192 136.659 86.2703 136.387 84.6483 136.601C83.0262 136.814 81.504 137.504 80.274 138.583C79.044 139.661 78.1614 141.081 77.738 142.661C77.1729 144.78 77.4713 147.036 78.5678 148.936C79.6643 150.835 81.4694 152.222 83.587 152.792ZM86.7984 140.807C87.5885 141.018 88.2981 141.46 88.8375 142.075C89.3768 142.69 89.7217 143.451 89.8285 144.262C89.9352 145.073 89.7991 145.897 89.4373 146.631C89.0755 147.365 88.5043 147.975 87.7959 148.384C87.0875 148.793 86.2737 148.982 85.4574 148.929C84.6412 148.875 83.8591 148.581 83.2102 148.083C82.5612 147.585 82.0745 146.906 81.8115 146.131C81.5486 145.357 81.5213 144.521 81.733 143.731C82.0179 142.672 82.7113 141.77 83.6609 141.222C84.6106 140.673 85.7389 140.524 86.7984 140.807Z" fill="#8F7D6A"/>
<path d="M52.896 160.803C52.5872 161.955 52.6271 163.173 53.0105 164.303C53.394 165.432 54.1038 166.423 55.0502 167.149C55.9966 167.875 57.1371 168.305 58.3275 168.383C59.5178 168.461 60.7046 168.184 61.7377 167.588C62.7708 166.991 63.6038 166.102 64.1315 165.032C64.6591 163.962 64.8576 162.76 64.7019 161.577C64.5462 160.394 64.0432 159.284 63.2567 158.387C62.4701 157.49 61.4353 156.847 60.283 156.538C58.7379 156.126 57.0925 156.344 55.7077 157.143C54.3229 157.943 53.3117 159.259 52.896 160.803ZM60.553 162.855C60.4559 163.217 60.2537 163.542 59.9718 163.789C59.6899 164.037 59.3411 164.195 58.9694 164.244C58.5977 164.292 58.2198 164.23 57.8835 164.064C57.5473 163.898 57.2678 163.637 57.0803 163.312C56.8928 162.987 56.8059 162.614 56.8304 162.24C56.8549 161.866 56.9898 161.508 57.2181 161.21C57.4463 160.913 57.7576 160.69 58.1126 160.569C58.4677 160.449 58.8504 160.436 59.2126 160.533C59.6979 160.664 60.1116 160.981 60.3629 161.417C60.6142 161.852 60.6825 162.369 60.553 162.855Z" fill="#8F7D6A"/>
<path d="M85.9208 188.028C87.4352 188.434 89.036 188.382 90.5206 187.878C92.0052 187.374 93.3071 186.441 94.2615 185.197C95.216 183.953 95.7801 182.454 95.8827 180.89C95.9852 179.325 95.6215 177.766 94.8376 176.408C94.0537 175.05 92.8848 173.955 91.4786 173.262C90.0725 172.568 88.4922 172.307 86.9378 172.512C85.3834 172.717 83.9246 173.378 82.7458 174.411C81.567 175.445 80.7213 176.805 80.3155 178.32C79.7738 180.35 80.0598 182.513 81.1106 184.333C82.1615 186.153 83.8914 187.482 85.9208 188.028ZM88.9538 176.709C89.678 176.903 90.3285 177.308 90.8229 177.872C91.3173 178.435 91.6335 179.133 91.7313 179.876C91.8292 180.62 91.7044 181.376 91.3728 182.048C91.0411 182.721 90.5175 183.28 89.8681 183.655C89.2188 184.03 88.4728 184.203 87.7246 184.154C86.9763 184.105 86.2594 183.836 85.6646 183.379C85.0697 182.923 84.6235 182.3 84.3825 181.59C84.1415 180.88 84.1164 180.114 84.3105 179.39C84.5717 178.419 85.2073 177.592 86.0778 177.089C86.9482 176.587 87.9826 176.45 88.9538 176.709Z" fill="#8F7D6A"/>
<path d="M110.925 165.29C111.322 163.809 111.271 162.243 110.778 160.791C110.285 159.338 109.372 158.065 108.155 157.131C106.939 156.197 105.472 155.645 103.942 155.545C102.411 155.445 100.886 155.801 99.5572 156.567C98.229 157.334 97.1579 158.478 96.4796 159.853C95.8012 161.229 95.546 162.775 95.7462 164.296C95.9464 165.816 96.593 167.243 97.6043 168.396C98.6155 169.55 99.9461 170.377 101.428 170.774C103.414 171.304 105.53 171.024 107.31 169.996C109.091 168.968 110.391 167.276 110.925 165.29ZM99.9391 162.347C100.124 161.655 100.51 161.034 101.049 160.562C101.587 160.091 102.253 159.789 102.962 159.695C103.672 159.602 104.393 159.721 105.035 160.038C105.677 160.354 106.211 160.854 106.569 161.474C106.927 162.094 107.093 162.806 107.046 163.52C106.999 164.234 106.741 164.919 106.306 165.486C105.87 166.054 105.276 166.48 104.598 166.71C103.92 166.94 103.189 166.964 102.498 166.779C101.572 166.53 100.782 165.923 100.302 165.092C99.8223 164.261 99.6918 163.274 99.9391 162.347Z" fill="#8F7D6A"/>
<path d="M91.5383 122.452C92.8222 122.796 94.1794 122.752 95.4381 122.324C96.6968 121.897 97.8005 121.106 98.6097 120.052C99.4189 118.997 99.8972 117.726 99.9842 116.4C100.071 115.073 99.7628 113.751 99.0981 112.6C98.4335 111.449 97.4425 110.52 96.2503 109.933C95.0581 109.345 93.7184 109.123 92.4005 109.297C91.0826 109.47 89.8458 110.031 88.8464 110.907C87.847 111.784 87.1299 112.937 86.7859 114.221C86.3268 115.942 86.5692 117.776 87.4602 119.319C88.3511 120.862 89.8177 121.989 91.5383 122.452ZM93.9468 113.463C94.4406 113.596 94.8841 113.872 95.2212 114.256C95.5583 114.64 95.7738 115.116 95.8406 115.623C95.9073 116.13 95.8222 116.645 95.5961 117.104C95.37 117.562 95.013 117.943 94.5702 118.199C94.1274 118.455 93.6188 118.573 93.1087 118.54C92.5985 118.506 92.1097 118.322 91.7041 118.011C91.2985 117.7 90.9943 117.275 90.83 116.791C90.6656 116.307 90.6486 115.785 90.7809 115.291C90.959 114.629 91.3923 114.065 91.9858 113.723C92.5794 113.38 93.2846 113.287 93.9468 113.463Z" fill="#8F7D6A"/>
<path d="M107.383 100.804C100.796 104.558 109.163 123.322 115.143 133.817C119.251 141.027 123.826 147.426 128.022 151.837C131.165 155.139 133.822 157.076 136.052 157.673C136.635 157.857 137.25 157.92 137.858 157.859C138.466 157.799 139.055 157.615 139.591 157.321L178.601 135.089C186.053 130.796 191.502 123.727 193.755 115.427C196.008 107.127 194.882 98.273 190.624 90.8011C186.366 83.3292 179.321 77.848 171.032 75.5566C162.743 73.2651 153.884 74.35 146.392 78.5739L107.382 100.806L107.383 100.804ZM148.441 82.1654C151.681 80.3052 155.256 79.1027 158.961 78.6269C162.666 78.1511 166.429 78.4113 170.034 79.3926C173.638 80.3739 177.014 82.057 179.967 84.3454C182.92 86.6338 185.392 89.4825 187.242 92.7282C189.091 95.9739 190.282 99.5528 190.746 103.26C191.21 106.967 190.937 110.729 189.945 114.33C188.952 117.931 187.258 121.301 184.96 124.247C182.662 127.192 179.805 129.655 176.553 131.494L141.992 151.191C141.833 148.946 141.423 146.725 140.768 144.572C139.113 138.713 135.938 131.516 131.83 124.306C127.721 117.097 123.147 110.697 118.95 106.287C117.431 104.626 115.729 103.142 113.878 101.862L148.441 82.1654ZM109.435 104.404C109.952 104.319 112.209 105.082 116.412 109.624C120.26 113.783 124.46 119.725 128.239 126.355C132.017 132.986 134.989 139.628 136.606 145.059C138.37 150.991 137.877 153.321 137.541 153.722C137.023 153.805 134.767 153.042 130.565 148.501C126.716 144.342 122.516 138.4 118.738 131.77C114.959 125.14 111.988 118.497 110.371 113.067C108.603 107.137 109.097 104.807 109.435 104.404Z" fill="#8F7D6A"/>
<path d="M64.7794 97.3235C65.3939 98.402 66.4096 99.0805 67.7269 99.4335C74.4547 101.236 89.0153 94.5663 97.7918 89.5647C105.001 85.4562 111.401 80.8822 115.812 76.6851C121.08 71.6719 122.874 67.8879 121.295 65.1166L106.803 39.686C106.531 39.2094 98.7326 25.0787 98.2037 24.9338C97.6747 24.7889 104.458 38.6416 103.982 38.9132C103.505 39.1848 103.156 39.6345 103.011 40.1635C102.866 40.6925 102.938 41.2574 103.209 41.7339L115.169 62.7181C107.731 63.0044 95.8551 68.5603 88.2828 72.8758C81.0736 76.9846 74.6738 81.5584 70.263 85.7552C68.6026 87.2748 67.1183 88.9763 65.8381 90.8277L46.1414 56.2661C42.5065 49.8879 41.4841 42.3494 43.2888 35.2334C45.0934 28.1174 49.5849 21.9773 55.8202 18.1022C62.0554 14.2272 69.5495 12.9185 76.729 14.4511C83.9086 15.9836 90.2152 20.2381 94.3248 26.3214C94.8006 27.7697 96.1538 30.4978 96.6871 30.5936C103.672 45.0132 104.572 41.0064 105.02 40.7018C105.468 40.3971 101.908 31.5288 98.0439 25.5299C104.887 39.7458 98.0457 24.4467 97.7505 23.9923C93.0384 17.0274 85.812 12.1583 77.5874 10.4064C69.3628 8.65455 60.7793 10.1562 53.638 14.5962C46.4966 19.0362 41.3524 26.0695 39.2846 34.2204C37.2169 42.3713 38.3864 51.0063 42.5477 58.3136L64.7794 97.3235ZM73.5992 88.2961C77.7582 84.4479 83.7 80.2475 90.3301 76.4691C96.9603 72.6907 103.603 69.7192 109.033 68.1022C114.964 66.3371 117.294 66.8297 117.696 67.1664C117.781 67.6839 117.018 69.9407 112.476 74.1431C108.317 77.9913 102.375 82.1914 95.7449 85.9701C89.1147 89.7488 82.4743 92.7198 77.0421 94.3368C71.11 96.1014 68.7801 95.6081 68.3786 95.2728C68.2943 94.7553 69.057 92.4987 73.5992 88.2961Z" fill="#8F7D6A"/>
</g>
<defs>
<clipPath id="clip0_1143_203">
<rect width="176.465" height="176.465" fill="white" transform="translate(45.6719) rotate(15)"/>
</clipPath>
</defs>
</svg>
