<svg width="120" height="182" viewBox="0 0 120 182" fill="none" xmlns="http://www.w3.org/2000/svg">
<path opacity="0.2" d="M93.3268 34.546H87.5924V40.9991C87.5924 46.1608 83.8612 50.3634 79.271 50.3634C74.6809 50.3634 70.9497 46.1646 70.9497 40.9991V34.546H65.2153C60.6285 34.546 56.8939 30.3472 56.8939 25.1817C56.8939 20.0162 60.6251 15.8174 65.2153 15.8174H70.9497V9.36432C70.9497 4.20261 74.6809 0 79.271 0C83.8612 0 87.5924 4.19884 87.5924 9.36432V15.8174H93.3268C97.9136 15.8174 101.648 20.0162 101.648 25.1817C101.648 30.3472 97.917 34.546 93.3268 34.546ZM93.3268 20.3485H85.5792C84.4685 20.3485 83.5659 19.3328 83.5659 18.0829V9.36432C83.5659 6.69851 81.6399 4.53112 79.271 4.53112C76.9021 4.53112 74.9761 6.69851 74.9761 9.36432V18.0829C74.9761 19.3328 74.0735 20.3485 72.9629 20.3485H65.2153C62.8464 20.3485 60.9204 22.5159 60.9204 25.1817C60.9204 27.8475 62.8464 30.0149 65.2153 30.0149H72.9629C74.0735 30.0149 74.9761 31.0306 74.9761 32.2805V40.9991C74.9761 43.6649 76.9021 45.8323 79.271 45.8323C81.6399 45.8323 83.5659 43.6649 83.5659 40.9991V32.2805C83.5659 31.0306 84.4685 30.0149 85.5792 30.0149H93.3268C95.6957 30.0149 97.6217 27.8475 97.6217 25.1817C97.6217 22.5159 95.6957 20.3485 93.3268 20.3485ZM47.8545 62.2274C44.8414 62.4653 41.5464 62.6541 38.1608 62.6541C27.9537 62.6541 16.995 60.9587 10.9251 53.9203C2.27151 43.8839 -0.929527 34.7839 0.228081 23.4939C0.342163 22.3649 1.18436 21.5077 2.19434 21.4888C3.45261 21.4662 4.73438 21.4246 6.09331 21.3793C16.2534 21.0471 27.7691 20.677 36.2918 27.2849C45.5527 34.4629 51.0623 46.8933 50.3241 58.6402C52.1796 60.5546 53.854 62.5634 55.3471 64.7837C60.2762 72.1052 63.0209 81.3147 64.3563 95.2102C65.8629 92.9635 67.695 90.7621 69.7686 88.7533C69.8558 88.6665 69.9498 88.5872 70.037 88.5003C69.3122 76.844 74.7815 64.5194 83.9686 57.398C92.4309 50.8392 103.859 51.2092 113.942 51.5377C115.288 51.583 116.563 51.6208 117.808 51.6472C118.818 51.6661 119.657 52.5232 119.774 53.6522C120.922 64.8592 117.747 73.895 109.154 83.8559C103.128 90.8452 92.2531 92.5292 82.1198 92.5292C78.7543 92.5292 75.4761 92.3442 72.4797 92.1026C72.4495 92.129 72.4193 92.1592 72.3925 92.1856C68.7351 95.7312 65.8495 100.028 64.6248 103.732V133.136C65.8965 131.478 67.3158 129.937 68.8693 128.51C68.5908 121.917 71.708 115.022 76.8753 111.016C81.7339 107.252 88.4011 107.467 93.7563 107.641C94.4743 107.663 95.1722 107.686 95.8534 107.701C96.8634 107.72 97.7022 108.577 97.8196 109.706C98.4706 116.068 96.6084 121.4 91.7799 127C88.2736 131.066 82.0829 132.037 76.3619 132.037C74.7111 132.037 73.1072 131.954 71.6107 131.844C68.7418 134.438 66.3964 137.482 64.6281 140.903V161.935C67.752 162.048 70.8893 163.309 74.1608 165.714C82.1433 164.997 87.4582 169.63 89.5486 179.157C89.6962 179.833 89.562 180.546 89.1795 181.098C88.797 181.645 88.2132 181.966 87.5958 181.966L39.8586 182C39.2882 182 38.7413 181.728 38.3588 181.249C37.9762 180.769 37.7951 180.131 37.8554 179.489C38.238 175.524 39.5768 172.5 41.8316 170.495C44.2173 168.373 47.519 167.512 51.6562 167.935C54.7297 165.084 57.6825 163.256 60.605 162.433V114.15C58.9139 111.416 57.1993 109.479 55.3907 108.248C53.3574 108.407 51.1462 108.524 48.8813 108.524C41.6236 108.524 33.8021 107.304 29.42 102.222C23.2394 95.0553 20.9577 88.5381 21.7865 80.4349C21.9006 79.3059 22.7428 78.4488 23.7527 78.4299C24.6318 78.4148 25.5378 78.3846 26.4672 78.3544C33.6511 78.1203 41.7913 77.856 47.9015 82.5948C54.4411 87.6621 58.3737 96.3996 57.9777 104.726C58.8803 105.394 59.7561 106.191 60.6084 107.119V98.5519C59.0917 79.3361 55.3303 70.036 47.8545 62.2274ZM34.0102 31.0155C26.5679 25.2497 15.7535 25.6008 6.21075 25.9105C5.48263 25.9331 4.77464 25.9558 4.08007 25.9784C3.63716 34.8972 6.61675 42.4188 13.8174 50.7674C19.9007 57.8209 32.6445 58.5345 43.3113 57.9946C39.9022 55.1022 35.9127 52.2023 31.252 48.819C28.5946 46.8858 25.8465 44.8921 22.8367 42.6303C21.9106 41.9355 21.6623 40.5271 22.2797 39.4887C22.8971 38.4466 24.1487 38.1671 25.0714 38.8619C28.0543 41.1048 30.7923 43.091 33.4364 45.0129C38.3957 48.6152 42.6503 51.7114 46.3077 54.8719C45.7675 45.8134 41.0867 36.5019 34.0102 31.0155ZM106.272 80.6992C113.409 72.4224 116.365 64.9687 115.932 56.1292C115.248 56.1104 114.55 56.0877 113.835 56.0651C104.369 55.7554 93.6388 55.408 86.2603 61.1286C79.1939 66.6037 74.5366 75.9265 74.0501 84.9585C77.3753 82.2134 80.932 79.6684 84.4115 77.1839C87.8172 74.7559 91.0317 72.4602 93.7865 70.1493C94.6756 69.4017 95.9373 69.6056 96.605 70.6062C97.2694 71.6068 97.0882 73.0266 96.199 73.778C93.3234 76.1983 90.0418 78.5356 86.569 81.0126C83.4653 83.2253 80.2944 85.4871 77.3216 87.8773C87.8374 88.3908 100.296 87.6281 106.272 80.6992ZM93.924 112.187C93.8301 112.183 93.7395 112.179 93.6455 112.179C88.6259 112.017 82.9385 111.832 79.1637 114.758C76.0197 117.194 73.8118 121.106 73.1206 125.108L83.1801 117.299C84.0961 116.589 85.3477 116.846 85.9818 117.877C86.616 118.908 86.3845 120.316 85.4685 121.03L77.1035 127.525C81.3615 127.453 86.4147 126.732 88.8943 123.858C92.3739 119.814 93.9106 116.314 93.924 112.187ZM45.6131 86.3254C40.5834 82.4286 33.1445 82.6703 26.578 82.8817C26.2693 82.8931 25.9606 82.9006 25.6552 82.9119C25.5076 88.7042 27.5141 93.511 32.3056 99.0654C36.0536 103.411 44.0461 104.095 49.9617 103.993L38.0266 94.4248C37.1206 93.6998 36.9092 92.2838 37.5535 91.2643C38.1977 90.2448 39.456 90.0069 40.3619 90.7319L53.8607 101.554C53.26 95.735 50.1731 89.8597 45.6131 86.3254ZM52.042 172.538C48.5994 172.05 46.0023 172.56 44.3246 174.048C43.4153 174.856 42.7476 176 42.3215 177.465L84.8712 177.439C82.9452 171.797 79.469 169.581 73.8722 170.302C73.3857 170.366 72.9025 170.227 72.4999 169.917C65.8059 164.725 60.5077 165.31 53.6124 172.005C53.1762 172.424 52.6091 172.617 52.042 172.538Z" fill="#8F7D6A"/>
</svg>
