<svg width="32" height="31" viewBox="0 0 32 31" fill="none" xmlns="http://www.w3.org/2000/svg">
<rect x="0.705078" width="30.3529" height="30.3529" rx="6" fill="#503217"/>
<path d="M22.1539 10.8669C21.6631 11.0795 21.1561 11.2268 20.6163 11.2922C21.1724 10.965 21.5977 10.4416 21.794 9.8037C21.2706 10.1145 20.6981 10.3271 20.0929 10.458C19.6022 9.93456 18.8988 9.60742 18.1301 9.60742C16.6416 9.60742 15.4475 10.8178 15.4475 12.2899C15.4475 12.5026 15.4639 12.6989 15.513 12.8952C13.2884 12.797 11.3256 11.7175 10.0007 10.0981C9.052 11.7992 10.1152 13.2059 10.8185 13.6803C10.3933 13.6803 9.96799 13.5494 9.60814 13.3531C9.60814 14.678 10.5405 15.774 11.7509 16.0193C11.4892 16.1011 10.9003 16.1502 10.5405 16.0684C10.884 17.1316 11.8817 17.9167 13.0431 17.9331C12.1271 18.6528 10.7858 19.2253 9.06836 19.0453C10.2624 19.8141 11.6691 20.2557 13.1903 20.2557C18.1301 20.2557 20.8126 16.1665 20.8126 12.6334C20.8126 12.5189 20.8126 12.4044 20.7962 12.2899C21.3524 11.881 21.8104 11.4067 22.1539 10.8669Z" fill="#F2F2F2"/>
</svg>
