<svg width="118" height="116" viewBox="0 0 118 116" fill="none" xmlns="http://www.w3.org/2000/svg">
<path d="M52.0972 103.362C57.4773 107.929 63.7204 109.723 71.3963 104.341C81.2956 97.334 89.7182 88.4461 96.1833 78.1846C100.465 71.4376 104.552 64.2613 106.586 56.4736C108.805 47.9593 107.21 41.7378 99.7833 36.406C87.0535 27.2586 67.3443 26.3517 52.1889 26.578C41.952 26.7298 28.4242 29.129 24.0519 39.8215C21.9439 44.9672 23.0662 50.8374 24.6181 56.1702C29.4569 72.9357 38.5355 91.8545 52.0972 103.362Z" fill="#EBE9E0"/>
<path d="M19.4379 36.2831C21.7297 31.0746 26.2249 27.9383 31.2938 26.1017C36.5171 24.2092 42.4491 23.6556 47.5084 23.6414C54.9372 23.6198 63.5297 23.8864 71.856 25.3009C80.1745 26.7142 88.301 29.2852 94.7511 33.9223L95.4443 34.4353C98.8299 37.0156 101.006 39.8436 102.083 43.0802C103.228 46.5231 103.086 50.3037 102.023 54.5331L102.023 54.5345C100.084 62.2308 96.0976 69.259 91.9795 75.772L91.9808 75.7718C85.7066 85.7697 77.4801 94.396 67.7714 101.158L67.7675 101.16C63.8858 103.837 60.2536 104.761 56.8409 104.353C53.4516 103.948 50.4135 102.245 47.6705 99.9256C34.4899 88.7811 25.4686 70.905 20.4144 54.8755L19.9373 53.3294C18.3559 48.1295 17.0805 42.1147 19.2232 36.7941L19.4379 36.2831Z" stroke="#EBE9E0" stroke-width="2"/>
<path d="M58.8333 61.8337L60.6672 64.2788C60.9389 64.641 61.0747 64.8222 61.2563 64.8619C61.3144 64.8747 61.3743 64.8769 61.4331 64.8686C61.6171 64.8426 61.7663 64.6722 62.0645 64.3314L67.1667 58.5003M63 76.8337C71.2068 76.8337 76.0739 66.9628 77.6012 57.3208C77.8111 55.9955 77.9161 55.3328 77.6843 54.6379C77.6134 54.4253 77.4972 54.1796 77.3779 53.9899C76.9879 53.3698 76.3527 52.9973 75.0822 52.2522L65.7316 46.7689C64.5507 46.0763 63.9602 45.7301 63.3176 45.6616C63.1065 45.6392 62.8935 45.6392 62.6824 45.6616C62.0398 45.7301 61.4493 46.0763 60.2684 46.7689L50.9178 52.2522C49.6473 52.9973 49.0121 53.3698 48.6221 53.9899C48.5028 54.1796 48.3866 54.4253 48.3157 54.6379C48.0839 55.3328 48.1889 55.9955 48.3988 57.3208C49.9261 66.9628 54.7932 76.8337 63 76.8337Z" stroke="#503217" stroke-width="2.5" stroke-linecap="round" stroke-linejoin="round"/>
</svg>
