<svg width="118" height="116" viewBox="0 0 118 116" fill="none" xmlns="http://www.w3.org/2000/svg">
<path d="M51.9819 102.822C57.3621 107.388 63.6051 109.183 71.2811 103.801C81.1804 96.794 89.603 87.906 96.0681 77.6445C100.35 70.8975 104.437 63.7212 106.47 55.9335C108.69 47.4193 107.095 41.1977 99.6681 35.8659C86.9383 26.7186 67.2291 25.8117 52.0737 26.038C41.8367 26.1897 28.309 28.589 23.9367 39.2814C21.8286 44.4271 22.9509 50.2974 24.5029 55.6302C29.3417 72.3956 38.4202 91.3145 51.9819 102.822Z" fill="#EBE9E0"/>
<path d="M19.4379 36.2831C21.7297 31.0746 26.2249 27.9383 31.2938 26.1017C36.5171 24.2092 42.4491 23.6556 47.5084 23.6414C54.9372 23.6198 63.5297 23.8864 71.856 25.3009C80.1745 26.7142 88.301 29.2852 94.7511 33.9223L95.4443 34.4353C98.8299 37.0156 101.006 39.8436 102.083 43.0802C103.228 46.5231 103.086 50.3037 102.023 54.5331L102.023 54.5345C100.084 62.2308 96.0976 69.259 91.9795 75.772L91.9808 75.7718C85.7066 85.7697 77.4801 94.396 67.7714 101.158L67.7675 101.16C63.8858 103.837 60.2536 104.761 56.8409 104.353C53.4516 103.948 50.4135 102.245 47.6705 99.9256C34.4899 88.7811 25.4686 70.905 20.4144 54.8755L19.9373 53.3294C18.3559 48.1295 17.0805 42.1147 19.2232 36.7941L19.4379 36.2831Z" stroke="#EBE9E0" stroke-width="2"/>
<path d="M73.3327 51.333H46.666M46.666 51.333L51.666 46.333M46.666 51.333L51.666 56.333M46.666 64.6663H73.3327M73.3327 64.6663L68.3327 59.6663M73.3327 64.6663L68.3327 69.6663" stroke="#503217" stroke-width="2.5" stroke-linecap="round" stroke-linejoin="round"/>
</svg>
