<svg width="118" height="116" viewBox="0 0 118 116" fill="none" xmlns="http://www.w3.org/2000/svg">
<path d="M51.9819 102.822C57.3621 107.388 63.6051 109.183 71.2811 103.801C81.1804 96.794 89.603 87.906 96.0681 77.6445C100.35 70.8975 104.437 63.7212 106.47 55.9335C108.69 47.4193 107.095 41.1977 99.6681 35.8659C86.9383 26.7186 67.2291 25.8117 52.0737 26.038C41.8367 26.1897 28.309 28.589 23.9367 39.2814C21.8286 44.4271 22.9509 50.2974 24.5029 55.6302C29.3417 72.3956 38.4202 91.3145 51.9819 102.822Z" fill="#EBE9E0"/>
<path d="M19.4379 36.2831C21.7297 31.0746 26.2249 27.9383 31.2938 26.1017C36.5171 24.2092 42.4491 23.6556 47.5084 23.6414C54.9372 23.6198 63.5297 23.8864 71.856 25.3009C80.1745 26.7142 88.301 29.2852 94.7511 33.9223L95.4443 34.4353C98.8299 37.0156 101.006 39.8436 102.083 43.0802C103.228 46.5231 103.086 50.3037 102.023 54.5331L102.023 54.5345C100.084 62.2308 96.0976 69.259 91.9795 75.772L91.9808 75.7718C85.7066 85.7697 77.4801 94.396 67.7714 101.158L67.7675 101.16C63.8858 103.837 60.2536 104.761 56.8409 104.353C53.4516 103.948 50.4135 102.245 47.6705 99.9256C34.4899 88.7811 25.4686 70.905 20.4144 54.8755L19.9373 53.3294C18.3559 48.1295 17.0805 42.1147 19.2232 36.7941L19.4379 36.2831Z" stroke="#EBE9E0" stroke-width="2"/>
<path d="M72.25 60C72.25 60.6904 71.6904 61.25 71 61.25C70.3096 61.25 69.75 60.6904 69.75 60C69.75 59.3096 70.3096 58.75 71 58.75C71.6904 58.75 72.25 59.3096 72.25 60Z" fill="#503217"/>
<path d="M46.0333 55.0003H75.9667M63.5 60.0003H66.8333M53.2 73.3337H68.8C71.7998 73.3337 73.2997 73.3337 74.3511 72.5697C74.6907 72.323 74.9893 72.0244 75.2361 71.6848C76 70.6333 76 69.1334 76 66.1337V53.867C76 50.8672 76 49.3673 75.2361 48.3159C74.9893 47.9763 74.6907 47.6776 74.3511 47.4309C73.2997 46.667 71.7998 46.667 68.8 46.667H53.2C50.2002 46.667 48.7003 46.667 47.6489 47.4309C47.3093 47.6776 47.0107 47.9763 46.7639 48.3159C46 49.3673 46 50.8672 46 53.867V66.1337C46 69.1334 46 70.6333 46.7639 71.6848C47.0107 72.0244 47.3093 72.323 47.6489 72.5697C48.7003 73.3337 50.2002 73.3337 53.2 73.3337Z" stroke="#503217" stroke-width="2.5" stroke-linecap="round" stroke-linejoin="round"/>
</svg>
