<svg width="60" height="60" viewBox="0 0 60 60" fill="none" xmlns="http://www.w3.org/2000/svg">
<path d="M10.0628 10.179L9.1791 9.29495L10.0628 10.179ZM22.4372 10.179L23.3209 9.29495L22.4372 10.179ZM22.4372 22.5485L21.5535 21.6645L22.4372 22.5485ZM37.4632 37.5687L36.5795 36.6846L37.4632 37.5687ZM49.8376 49.9382L48.9539 49.0542L49.8376 49.9382ZM18.9016 41.1028L18.0179 41.9869L18.9016 41.1028ZM7.54633 17.2654L8.79631 17.2583C8.79608 17.2179 8.79389 17.1775 8.78974 17.1372L7.54633 17.2654ZM42.7484 52.4537L42.8765 51.2103C42.8363 51.2062 42.7959 51.204 42.7555 51.2038L42.7484 52.4537ZM17.639 25.0001L17.4417 23.7658C17.0418 23.8297 16.6977 24.0834 16.5183 24.4464C16.3389 24.8094 16.3465 25.2369 16.5387 25.5933L17.639 25.0001ZM35.0107 42.365L34.4178 43.4655C34.7742 43.6575 35.2016 43.665 35.5645 43.4856C35.9274 43.3063 36.181 42.9622 36.245 42.5625L35.0107 42.365ZM10.9465 11.0631C13.8755 8.13523 18.6245 8.13523 21.5535 11.0631L23.3209 9.29495C19.4157 5.39127 13.0843 5.39127 9.1791 9.29495L10.9465 11.0631ZM21.5535 11.0631C24.4822 13.9906 24.4822 18.7369 21.5535 21.6645L23.3209 23.4326C27.2264 19.5286 27.2264 13.1989 23.3209 9.29495L21.5535 11.0631ZM38.3469 38.4527C41.2759 35.5249 46.0249 35.5249 48.9539 38.4527L50.7213 36.6846C46.8161 32.781 40.4847 32.781 36.5795 36.6846L38.3469 38.4527ZM48.9539 38.4527C51.8826 41.3803 51.8826 46.1266 48.9539 49.0542L50.7213 50.8223C54.6268 46.9183 54.6268 40.5886 50.7213 36.6846L48.9539 38.4527ZM19.7854 40.2188C12.6326 33.0688 8.83703 24.4328 8.79631 17.2583L6.29635 17.2725C6.34162 25.2492 10.5123 34.4842 18.0179 41.9869L19.7854 40.2188ZM8.78974 17.1372C8.56607 14.9671 9.28559 12.7233 10.9465 11.0631L9.1791 9.29495C6.96351 11.5097 6.00537 14.5067 6.30292 17.3935L8.78974 17.1372ZM48.9539 49.0542C47.2929 50.7145 45.048 51.434 42.8765 51.2103L42.6204 53.6972C45.5079 53.9945 48.5057 53.037 50.7213 50.8223L48.9539 49.0542ZM42.7555 51.2038C35.5777 51.1631 26.9381 47.3688 19.7854 40.2188L18.0179 41.9869C25.5236 49.4896 34.762 53.6585 42.7413 53.7037L42.7555 51.2038ZM21.5535 21.6645C20.3918 22.8257 18.9471 23.5251 17.4417 23.7658L17.8363 26.2344C19.8442 25.9135 21.7744 24.9785 23.3209 23.4326L21.5535 21.6645ZM25.9725 34.034C22.961 31.0237 20.5367 27.7405 18.7392 24.4069L16.5387 25.5933C18.455 29.1474 21.027 32.6253 24.2051 35.8021L25.9725 34.034ZM36.245 42.5625C36.4857 41.058 37.1852 39.614 38.3469 38.4527L36.5795 36.6846C35.033 38.2305 34.0975 40.1602 33.7764 42.1676L36.245 42.5625ZM35.6036 41.2646C32.2685 39.4678 28.9841 37.0444 25.9725 34.034L24.2051 35.8021C27.3832 38.979 30.8624 41.55 34.4178 43.4655L35.6036 41.2646Z" fill="#503217"/>
</svg>
