<svg width="24" height="24" viewBox="0 0 24 24" fill="none" xmlns="http://www.w3.org/2000/svg">
<path opacity="0.5" d="M4.02513 4.0716L3.4949 3.54117H3.4949L4.02513 4.0716ZM8.97487 4.0716L9.5051 3.54117L8.97487 4.0716ZM8.97487 9.01942L8.44465 8.48898L8.97487 9.01942ZM14.9853 15.0275L14.4551 14.497L14.9853 15.0275ZM19.935 19.9753L19.4048 19.4449L19.935 19.9753ZM7.56066 16.4411L7.03043 16.9716L7.56066 16.4411ZM3.01853 6.90616L3.76852 6.9019C3.76838 6.87764 3.76707 6.8534 3.76458 6.82926L3.01853 6.90616ZM17.0994 20.9815L17.1762 20.2354C17.1521 20.233 17.1279 20.2316 17.1036 20.2315L17.0994 20.9815ZM7.05559 10L6.9372 9.25944C6.69728 9.29779 6.49081 9.44999 6.38319 9.66782C6.27556 9.88565 6.28013 10.1421 6.39544 10.356L7.05559 10ZM14.0043 16.946L13.6486 17.6063C13.8624 17.7215 14.1188 17.726 14.3366 17.6184C14.5543 17.5108 14.7065 17.3043 14.7449 17.0645L14.0043 16.946ZM4.55535 4.60203C5.62932 3.52849 7.37068 3.52849 8.44465 4.60203L9.5051 3.54117C7.8454 1.88211 5.1546 1.88211 3.4949 3.54117L4.55535 4.60203ZM8.44465 4.60203C9.51845 5.67542 9.51845 7.4156 8.44465 8.48898L9.5051 9.54985C11.165 7.89063 11.165 5.20039 9.5051 3.54117L8.44465 4.60203ZM15.5155 15.5579C16.5895 14.4844 18.3308 14.4844 19.4048 15.5579L20.4653 14.497C18.8055 12.838 16.1148 12.838 14.4551 14.497L15.5155 15.5579ZM19.4048 15.5579C20.4786 16.6313 20.4786 18.3715 19.4048 19.4449L20.4653 20.5057C22.1251 18.8465 22.1251 16.1563 20.4653 14.497L19.4048 15.5579ZM8.09089 15.9107C5.26504 13.086 3.78435 9.69148 3.76852 6.9019L2.26854 6.91041C2.28711 10.1813 3.99291 13.9352 7.03043 16.9716L8.09089 15.9107ZM3.76458 6.82926C3.6825 6.03286 3.94644 5.21071 4.55535 4.60203L3.4949 3.54117C2.5532 4.4825 2.14608 5.75662 2.27248 6.98305L3.76458 6.82926ZM19.4048 19.4449C18.7959 20.0536 17.9732 20.3175 17.1762 20.2354L17.0225 21.7275C18.2491 21.8539 19.5236 21.447 20.4653 20.5057L19.4048 19.4449ZM17.1036 20.2315C14.3127 20.2157 10.9167 18.7354 8.09089 15.9107L7.03043 16.9716C10.068 20.0079 13.8232 21.7129 17.0951 21.7315L17.1036 20.2315ZM8.44465 8.48898C8.01844 8.91502 7.48913 9.17121 6.9372 9.25944L7.17398 10.7406C8.02737 10.6042 8.84804 10.2067 9.5051 9.54985L8.44465 8.48898ZM10.5658 13.4368C9.37781 12.2493 8.42284 10.9555 7.71575 9.6441L6.39544 10.356C7.17383 11.7997 8.21742 13.2103 9.50531 14.4977L10.5658 13.4368ZM14.7449 17.0645C14.8331 16.513 15.0893 15.9839 15.5155 15.5579L14.4551 14.497C13.798 15.1539 13.4002 15.9743 13.2637 16.8275L14.7449 17.0645ZM14.36 16.2857C13.048 15.5789 11.7537 14.6243 10.5658 13.4368L9.50531 14.4977C10.7932 15.785 12.2044 16.8282 13.6486 17.6063L14.36 16.2857Z" fill="#503217"/>
</svg>
