<svg width="24" height="24" viewBox="0 0 24 24" fill="none" xmlns="http://www.w3.org/2000/svg">
<path opacity="0.5" d="M12 3H10.2C7.20021 3 5.70032 3 4.64886 3.76393C4.30928 4.01065 4.01065 4.30928 3.76393 4.64886C3 5.70032 3 7.20021 3 10.2V13.8C3 16.7998 3 18.2997 3.76393 19.3511C4.01065 19.6907 4.30928 19.9893 4.64886 20.2361C5.70032 21 7.20021 21 10.2 21H13.8C16.7998 21 18.2997 21 19.3511 20.2361C19.6907 19.9893 19.9893 19.6907 20.2361 19.3511C21 18.2997 21 16.7998 21 13.8V12M19.0916 7.53978L13.8255 12.8057C13.2703 13.3608 12.9928 13.6384 12.6706 13.855C12.5635 13.927 12.453 13.9937 12.3395 14.055C11.9979 14.2395 11.6231 14.3561 10.8734 14.5893L8.75 15.25L9.41027 13.1269C9.64349 12.377 9.76011 12.002 9.9446 11.6603C10.0059 11.5467 10.0727 11.4362 10.1447 11.3291C10.3614 11.0068 10.639 10.7291 11.1944 10.1738L16.46 4.90833M19.0916 7.53978L16.46 4.90833M19.0916 7.53978L20.4342 6.19722C21.1609 5.47055 21.1609 4.29235 20.4342 3.56568C19.7075 2.83904 18.5294 2.83904 17.8027 3.56568L16.46 4.90833" stroke="#503217" stroke-width="1.5" stroke-linecap="round" stroke-linejoin="round"/>
</svg>
