<svg width="24" height="24" viewBox="0 0 24 24" fill="none" xmlns="http://www.w3.org/2000/svg">
<path opacity="0.5" d="M3 12C3 9.67029 3 8.50544 3.3806 7.58658C3.88807 6.36144 4.86144 5.38807 6.08658 4.8806C7.00544 4.5 8.17029 4.5 10.5 4.5H13.5C15.8297 4.5 16.9946 4.5 17.9134 4.8806C19.1386 5.38807 20.1119 6.36144 20.6194 7.58658C21 8.50544 21 9.67029 21 12C21 14.3297 21 15.4946 20.6194 16.4134C20.1119 17.6386 19.1386 18.6119 17.9134 19.1194C16.9946 19.5 15.8297 19.5 13.5 19.5H10.5C8.17029 19.5 7.00544 19.5 6.08658 19.1194C4.86144 18.6119 3.88807 17.6386 3.3806 16.4134C3 15.4946 3 14.3297 3 12Z" stroke="#503217" stroke-width="1.5" stroke-linejoin="round"/>
<path opacity="0.5" d="M3 8L6.47486 10.7025C8.82448 12.5299 9.99929 13.4436 11.3413 13.6221C11.7788 13.6802 12.222 13.6802 12.6595 13.622C14.0015 13.4436 15.1762 12.5298 17.5258 10.7023L21 8" stroke="#503217" stroke-width="1.5" stroke-linejoin="round"/>
</svg>
