<svg width="24" height="24" viewBox="0 0 24 24" fill="none" xmlns="http://www.w3.org/2000/svg">
<path opacity="0.5" d="M12 21C16.9706 21 21 16.9706 21 12C21 7.02944 16.9706 3 12 3C7.02944 3 3 7.02944 3 12C3 16.9706 7.02944 21 12 21Z" stroke="#503217" stroke-width="1.5" stroke-linecap="round" stroke-linejoin="round"/>
<g opacity="0.5">
<path fill-rule="evenodd" clip-rule="evenodd" d="M13.3266 11.2993L16.5 11.2993C16.9142 11.2993 17.25 11.6351 17.25 12.0493C17.25 12.4635 16.9142 12.7993 16.5 12.7993L13.2695 12.7993C13.0039 13.2203 12.5346 13.5 12 13.5C11.1716 13.5 10.5 12.8284 10.5 12C10.5 11.4448 10.8016 10.96 11.25 10.7007L11.25 6.54931C11.25 6.1351 11.5858 5.79931 12 5.79931C12.4142 5.79932 12.75 6.1351 12.75 6.54932L12.75 10.7007C12.994 10.8418 13.1945 11.0497 13.3266 11.2993Z" fill="#503217"/>
<path d="M13.3266 11.2993L13.1057 11.4163C13.149 11.4981 13.234 11.5493 13.3266 11.5493L13.3266 11.2993ZM16.5 11.2993L16.5 11.0493L16.5 11.0493L16.5 11.2993ZM16.5 12.7993L16.5 12.5493L16.5 12.7993ZM13.2695 12.7993L13.2695 12.5493C13.1837 12.5493 13.1039 12.5933 13.0581 12.6659L13.2695 12.7993ZM11.25 10.7007L11.3752 10.9171C11.4524 10.8724 11.5 10.7899 11.5 10.7007L11.25 10.7007ZM11.25 6.54931L11 6.54931L11.25 6.54931ZM12.75 6.54932L12.5 6.54932L12.75 6.54932ZM12.75 10.7007L12.5 10.7007C12.5 10.7899 12.5476 10.8724 12.6248 10.9171L12.75 10.7007ZM13.3266 11.5493L16.5 11.5493L16.5 11.0493L13.3266 11.0493L13.3266 11.5493ZM16.5 11.5493C16.7761 11.5493 17 11.7732 17 12.0493L17.5 12.0493C17.5 11.497 17.0523 11.0493 16.5 11.0493L16.5 11.5493ZM17 12.0493C17 12.3255 16.7761 12.5493 16.5 12.5493L16.5 13.0493C17.0523 13.0493 17.5 12.6016 17.5 12.0493L17 12.0493ZM16.5 12.5493L13.2695 12.5493L13.2695 13.0493L16.5 13.0493L16.5 12.5493ZM13.0581 12.6659C12.8363 13.0174 12.4452 13.25 12 13.25L12 13.75C12.624 13.75 13.1715 13.4233 13.481 12.9327L13.0581 12.6659ZM12 13.25C11.3096 13.25 10.75 12.6904 10.75 12L10.25 12C10.25 12.9665 11.0335 13.75 12 13.75L12 13.25ZM10.75 12C10.75 11.5376 11.0009 11.1336 11.3752 10.9171L11.1248 10.4843C10.6024 10.7865 10.25 11.3519 10.25 12L10.75 12ZM11.5 10.7007L11.5 6.54931L11 6.54931L11 10.7007L11.5 10.7007ZM11.5 6.54931C11.5 6.27317 11.7239 6.04931 12 6.04931L12 5.54931C11.4477 5.54931 11 5.99703 11 6.54931L11.5 6.54931ZM12 6.04931C12.2761 6.04932 12.5 6.27317 12.5 6.54932L13 6.54932C13 5.99703 12.5523 5.54932 12 5.54931L12 6.04931ZM12.5 6.54932L12.5 10.7007L13 10.7007L13 6.54932L12.5 6.54932ZM12.6248 10.9171C12.8282 11.0348 12.9955 11.2082 13.1057 11.4163L13.5476 11.1824C13.3935 10.8911 13.1597 10.6489 12.8752 10.4843L12.6248 10.9171Z" fill="#503217"/>
</g>
</svg>
