<svg width="25" height="24" viewBox="0 0 25 24" fill="none" xmlns="http://www.w3.org/2000/svg">
<path d="M2.5 12C2.5 16.9706 6.52944 21 11.5 21" stroke="#EEEDE7" stroke-width="1.5" stroke-linecap="round" stroke-linejoin="round" stroke-dasharray="0 3"/>
<path d="M12.5008 20.25C12.0866 20.25 11.7508 20.5858 11.7508 21C11.7508 21.4142 12.0866 21.75 12.5008 21.75V20.25ZM4.11523 7.7035H3.36523C3.36523 8.11772 3.70102 8.4535 4.11523 8.4535V7.7035ZM4.86523 4.16797C4.86523 3.75376 4.52945 3.41797 4.11523 3.41797C3.70102 3.41797 3.36523 3.75376 3.36523 4.16797H4.86523ZM7.65077 8.4535C8.06498 8.4535 8.40077 8.11772 8.40077 7.7035C8.40077 7.28929 8.06498 6.9535 7.65077 6.9535V8.4535ZM12.5008 13H11.7508C11.7508 13.4142 12.0866 13.75 12.5008 13.75V13ZM13.2508 9C13.2508 8.58579 12.915 8.25 12.5008 8.25C12.0866 8.25 11.7508 8.58579 11.7508 9H13.2508ZM15.5008 13.75C15.915 13.75 16.2508 13.4142 16.2508 13C16.2508 12.5858 15.915 12.25 15.5008 12.25V13.75ZM12.5008 21.75C17.8855 21.75 22.2508 17.3848 22.2508 12H20.7508C20.7508 16.5563 17.0571 20.25 12.5008 20.25V21.75ZM22.2508 12C22.2508 6.61522 17.8855 2.25 12.5008 2.25V3.75C17.0571 3.75 20.7508 7.44365 20.7508 12H22.2508ZM4.86523 7.7035V4.16797H3.36523V7.7035H4.86523ZM4.11523 8.4535H4.59059V6.9535H4.11523V8.4535ZM4.59059 8.4535H7.65077V6.9535H4.59059V8.4535ZM12.5008 2.25C8.80061 2.25 5.58302 4.31144 3.93185 7.34494L5.24933 8.06206C6.6484 5.4917 9.37174 3.75 12.5008 3.75V2.25ZM13.2508 13V9H11.7508V13H13.2508ZM12.5008 13.75H15.5008V12.25H12.5008V13.75Z" fill="#EEEDE7"/>
</svg>
