<svg width="279" height="389" viewBox="0 0 279 389" fill="none" xmlns="http://www.w3.org/2000/svg">
<g opacity="0.15" clip-path="url(#clip0_1174_1374)">
<path d="M221.208 250.279C217.913 246.104 206.55 223.364 215.768 167.762C220.816 137.313 242.016 95.94 248.162 58.872C247.622 66.944 262.978 142.492 256.76 179.999C250.541 217.507 221.208 250.279 221.208 250.279Z" stroke="#8F7D6A" stroke-width="2" stroke-miterlimit="10" stroke-linecap="round" stroke-linejoin="round"/>
<path d="M255.174 304.88C265.462 295.703 293.007 278.506 303.542 214.961C314.078 151.416 304.511 122.625 304.511 122.625C298.877 156.605 268.008 198.639 261.057 240.563C255.121 276.371 257.442 291.201 255.174 304.88Z" stroke="#8F7D6A" stroke-width="2" stroke-miterlimit="10" stroke-linecap="round" stroke-linejoin="round"/>
<path d="M190.275 168.977C195.237 160.729 199.224 152.222 201.821 136.558C205.382 95.8787 176.998 52.716 173.727 46.5312C177.985 66.2536 166.022 91.7635 168.1 119.824C169.261 135.595 174.864 152.172 190.275 168.977Z" stroke="#8F7D6A" stroke-width="2" stroke-miterlimit="10" stroke-linecap="round" stroke-linejoin="round"/>
<path d="M216.239 309.078C188.594 300.446 185.315 276.974 118.245 265.854C64.7451 256.984 36.5463 268.496 36.5463 268.496C60.9701 272.545 108.688 318.68 142.03 324.208C195.144 333.014 213.042 313.945 216.239 309.078Z" stroke="#8F7D6A" stroke-width="2" stroke-miterlimit="10" stroke-linecap="round" stroke-linejoin="round"/>
<path d="M179.719 241.039C182.557 223.924 163.433 208.985 142.797 195.579C110.433 174.554 66.7635 159.381 54.9609 157.424C56.7146 173.227 114.894 263.084 179.719 241.039Z" stroke="#8F7D6A" stroke-width="2" stroke-miterlimit="10" stroke-linecap="round" stroke-linejoin="round"/>
<path d="M113.696 179.405C79.8636 134.076 84.7113 61.5897 76.0312 30.334C116.599 102.787 185.65 163.748 175.688 224.124L175.679 224.177" stroke="#8F7D6A" stroke-width="2" stroke-miterlimit="10" stroke-linecap="round" stroke-linejoin="round"/>
<path d="M188.471 130.59L191.629 169.201C187.898 191.707 198.757 306.407 279.839 357.937" stroke="#8F7D6A" stroke-width="2" stroke-miterlimit="10" stroke-linecap="round" stroke-linejoin="round"/>
<path d="M241.087 323.083C241.087 323.083 247.395 316.229 255.176 304.879C264.109 291.849 278.789 248.943 278.789 248.943" stroke="#8F7D6A" stroke-width="2" stroke-miterlimit="10" stroke-linecap="round" stroke-linejoin="round"/>
<path d="M229.109 202.62L221.208 250.279C221.208 250.279 219.752 284.289 223.795 297.756" stroke="#8F7D6A" stroke-width="2" stroke-miterlimit="10" stroke-linecap="round" stroke-linejoin="round"/>
<path d="M123.602 147.041C123.602 147.041 141.612 192.021 156.06 204.721" stroke="#8F7D6A" stroke-width="2" stroke-miterlimit="10" stroke-linecap="round" stroke-linejoin="round"/>
<path d="M140.102 220.509C140.102 220.509 157.731 234.314 179.718 241.039C185.919 242.938 202.544 255.33 207.079 261.768" stroke="#8F7D6A" stroke-width="2" stroke-miterlimit="10" stroke-linecap="round" stroke-linejoin="round"/>
<path d="M146.419 297.731C146.419 297.731 172.193 315.258 216.238 309.078C229.98 307.15 237.914 319.032 237.914 319.032" stroke="#8F7D6A" stroke-width="2" stroke-miterlimit="10" stroke-linecap="round" stroke-linejoin="round"/>
</g>
<defs>
<clipPath id="clip0_1174_1374">
<rect width="301.802" height="343.534" fill="white" transform="translate(57.1602) rotate(9.41364)"/>
</clipPath>
</defs>
</svg>
