<svg width="30" height="30" viewBox="0 0 30 30" fill="none" xmlns="http://www.w3.org/2000/svg">
<path d="M15.425 3.75H14.575C13.4501 3.75 12.8876 3.75 12.4933 4.03647C12.366 4.12899 12.254 4.24098 12.1615 4.36832C11.875 4.76262 11.875 5.32508 11.875 6.45V11.875H6.45C5.32508 11.875 4.76262 11.875 4.36832 12.1615C4.24098 12.254 4.12899 12.366 4.03647 12.4933C3.75 12.8876 3.75 13.4501 3.75 14.575V15.425C3.75 16.5499 3.75 17.1124 4.03647 17.5067C4.12899 17.634 4.24098 17.746 4.36832 17.8385C4.76262 18.125 5.32508 18.125 6.45 18.125H11.875V23.55C11.875 24.6749 11.875 25.2374 12.1615 25.6317C12.254 25.759 12.366 25.871 12.4933 25.9635C12.8876 26.25 13.4501 26.25 14.575 26.25H15.425C16.5499 26.25 17.1124 26.25 17.5067 25.9635C17.634 25.871 17.746 25.759 17.8385 25.6317C18.125 25.2374 18.125 24.6749 18.125 23.55V18.125H23.55C24.6749 18.125 25.2374 18.125 25.6317 17.8385C25.759 17.746 25.871 17.634 25.9635 17.5067C26.25 17.1124 26.25 16.5499 26.25 15.425V14.575C26.25 13.4501 26.25 12.8876 25.9635 12.4933C25.871 12.366 25.759 12.254 25.6317 12.1615C25.2374 11.875 24.6749 11.875 23.55 11.875H18.125V6.45C18.125 5.32508 18.125 4.76262 17.8385 4.36832C17.746 4.24098 17.634 4.12899 17.5067 4.03647C17.1124 3.75 16.5499 3.75 15.425 3.75Z" stroke="#503217" stroke-width="1.5" stroke-linecap="round" stroke-linejoin="round"/>
</svg>
