<svg width="60" height="60" viewBox="0 0 60 60" fill="none" xmlns="http://www.w3.org/2000/svg">
<path d="M52.5 30C52.5 42.4264 42.4264 52.5 30 52.5C17.5736 52.5 7.5 42.4264 7.5 30C7.5 17.5736 17.5736 7.5 30 7.5C42.4264 7.5 52.5 17.5736 52.5 30Z" stroke="#503217" stroke-width="3.5" stroke-linejoin="round"/>
<path d="M32.5 40C32.5 38.6193 31.3807 37.5 30 37.5C28.6193 37.5 27.5 38.6193 27.5 40C27.5 41.3807 28.6193 42.5 30 42.5C31.3807 42.5 32.5 41.3807 32.5 40Z" fill="#503217"/>
<path d="M24.375 24.7818C24.375 21.7957 26.8934 19.375 30 19.375C33.1066 19.375 35.625 21.7957 35.625 24.7818C35.625 26.5849 34.7068 28.1819 33.2953 29.1642C32.5126 29.7089 31.5725 30.0326 30.9113 30.7197C30.1001 31.5626 29.9827 32.6287 30 33.75" stroke="#503217" stroke-width="3.5" stroke-linecap="round" stroke-linejoin="round"/>
</svg>
