<svg width="50" height="50" viewBox="0 0 50 50" fill="none" xmlns="http://www.w3.org/2000/svg">
<path d="M39.0625 25C39.0625 25.8629 38.3629 26.5625 37.5 26.5625C36.6371 26.5625 35.9375 25.8629 35.9375 25C35.9375 24.1371 36.6371 23.4375 37.5 23.4375C38.3629 23.4375 39.0625 24.1371 39.0625 25Z" fill="#503217"/>
<path d="M6.29167 18.7497H43.7083M28.125 24.9997H32.2917M13.45 41.6663H36.55C39.5498 41.6663 41.0497 41.6663 42.1011 40.9024C42.4407 40.6557 42.7393 40.3571 42.9861 40.0175C43.75 38.966 43.75 37.4661 43.75 34.4663V15.533C43.75 12.5332 43.75 11.0333 42.9861 9.98187C42.7393 9.64229 42.4407 9.34366 42.1011 9.09694C41.0497 8.33301 39.5498 8.33301 36.55 8.33301H13.45C10.4502 8.33301 8.95032 8.33301 7.89886 9.09694C7.55928 9.34366 7.26065 9.64229 7.01393 9.98187C6.25 11.0333 6.25 12.5332 6.25 15.533V34.4663C6.25 37.4661 6.25 38.966 7.01393 40.0175C7.26065 40.3571 7.55928 40.6557 7.89886 40.9024C8.95032 41.6663 10.4502 41.6663 13.45 41.6663Z" stroke="#503217" stroke-width="2.5" stroke-linecap="round" stroke-linejoin="round"/>
</svg>
