<svg width="50" height="50" viewBox="0 0 50 50" fill="none" xmlns="http://www.w3.org/2000/svg">
<path d="M25 6.25C35.3553 6.25 43.75 14.6447 43.75 25C43.75 32.1137 39.7884 38.3022 33.951 41.4795M41.3167 42.4699H33.951V41.4795M33.951 41.4795V35.1042M25 43.75C14.6447 43.75 6.25 35.3553 6.25 25C6.25 17.8863 10.2116 11.6978 16.049 8.52046M8.68326 7.53014L16.049 7.53014V8.52046M16.049 8.52046L16.049 14.8958M21.0366 29.6875C21.5268 31.053 22.8497 32.0312 24.4048 32.0312H25M28.9634 20.3125C28.4732 18.947 27.1503 17.9687 25.5952 17.9687H25M25 17.9687H24.4048C22.4323 17.9687 20.8333 19.5427 20.8333 21.4844C20.8333 23.426 22.4323 25 24.4048 25H25.5952C27.5677 25 29.1667 26.574 29.1667 28.5156C29.1667 30.4573 27.5677 32.0312 25.5952 32.0312H25M25 17.9687V15.625M25 32.0312V34.375" stroke="#503217" stroke-width="2.5" stroke-linecap="round" stroke-linejoin="round"/>
</svg>
