<svg width="50" height="50" viewBox="0 0 50 50" fill="none" xmlns="http://www.w3.org/2000/svg">
<path d="M6.25 25C6.25 24.2958 6.28882 23.6007 6.36443 22.9167M6.25 25V31.8167C6.25 33.3166 6.25 34.0665 6.63197 34.5922C6.75533 34.762 6.90464 34.9113 7.07443 35.0347C7.60016 35.4167 8.35011 35.4167 9.85 35.4167H10.4167M6.25 25V22.9167H6.36443M6.36443 22.9167C7.40078 13.5418 15.3488 6.25 25 6.25C34.6512 6.25 42.5992 13.5418 43.6356 22.9167M6.36443 22.9167H13.0667C14.5666 22.9167 15.3165 22.9167 15.8422 23.2986C16.012 23.422 16.1613 23.5713 16.2847 23.7411C16.6667 24.2668 16.6667 25.0168 16.6667 26.5167V31.8167C16.6667 33.3166 16.6667 34.0665 16.2847 34.5922C16.1613 34.762 16.012 34.9113 15.8422 35.0347C15.3165 35.4167 14.5666 35.4167 13.0667 35.4167H10.4167M43.6356 22.9167C43.7112 23.6007 43.75 24.2958 43.75 25M43.6356 22.9167H36.9333C35.4334 22.9167 34.6835 22.9167 34.1578 23.2986C33.988 23.422 33.8387 23.5713 33.7153 23.7411C33.3333 24.2668 33.3333 25.0168 33.3333 26.5167V31.8167C33.3333 33.3166 33.3333 34.0665 33.7153 34.5922C33.8387 34.762 33.988 34.9113 34.1578 35.0347C34.6835 35.4167 35.4334 35.4167 36.9333 35.4167H40.15C41.6499 35.4167 42.3998 35.4167 42.9256 35.0347C43.0954 34.9113 43.2447 34.762 43.368 34.5922C43.75 34.0665 43.75 33.3166 43.75 31.8167V25M43.6356 22.9167H43.75V25M10.4167 35.4167V37.025C10.4167 38.5249 10.4167 39.2748 10.7986 39.8006C10.922 39.9704 11.0713 40.1197 11.2411 40.243C11.7668 40.625 12.5168 40.625 14.0167 40.625H20.8333M20.8333 40.625C20.8333 42.3509 22.2324 43.75 23.9583 43.75H27.0833C28.8092 43.75 30.2083 42.3509 30.2083 40.625C30.2083 38.8991 28.8092 37.5 27.0833 37.5H23.9583C22.2324 37.5 20.8333 38.8991 20.8333 40.625Z" stroke="#503217" stroke-width="2.5" stroke-linejoin="round"/>
</svg>
