<svg width="50" height="50" viewBox="0 0 50 50" fill="none" xmlns="http://www.w3.org/2000/svg">
<path d="M6.25 10.417H22.4417C23.9416 10.417 24.6915 10.417 25.2172 10.799C25.387 10.9223 25.5363 11.0716 25.6597 11.2414C26.0417 11.7672 26.0417 12.5171 26.0417 14.017V20.8337V18.1837C26.0417 16.6838 26.0417 15.9338 26.4236 15.4081C26.547 15.2383 26.6963 15.089 26.8661 14.9656C27.3918 14.5837 28.1418 14.5837 29.6417 14.5837H36.3167C37.2761 14.5837 37.7558 14.5837 38.1626 14.7766C38.2962 14.8399 38.4222 14.9178 38.5386 15.0089C38.8931 15.2865 39.1076 15.7156 39.5367 16.5737L43.3699 24.2402C43.538 24.5763 43.622 24.7444 43.6731 24.9232C43.6901 24.9827 43.7043 25.0429 43.7157 25.1037C43.75 25.2865 43.75 25.4744 43.75 25.8502V31.817C43.75 33.3169 43.75 34.0668 43.368 34.5926C43.2447 34.7624 43.0954 34.9117 42.9256 35.035C42.3998 35.417 41.6499 35.417 40.15 35.417H39.5833M6.25 35.417H10.4167M18.75 35.417C18.75 37.7182 16.8845 39.5837 14.5833 39.5837C12.2821 39.5837 10.4167 37.7182 10.4167 35.417M18.75 35.417C18.75 33.1158 16.8845 31.2503 14.5833 31.2503C12.2821 31.2503 10.4167 33.1158 10.4167 35.417M18.75 35.417H31.25M39.5833 35.417C39.5833 37.7182 37.7179 39.5837 35.4167 39.5837C33.1155 39.5837 31.25 37.7182 31.25 35.417M39.5833 35.417C39.5833 33.1158 37.7179 31.2503 35.4167 31.2503C33.1155 31.2503 31.25 33.1158 31.25 35.417M6.25 17.7087H20.8333M6.25 25.0003H16.6667M31.25 19.792H35.4167L38.0208 25.0003H31.25V19.792Z" stroke="#503217" stroke-width="2.5" stroke-linecap="round" stroke-linejoin="round"/>
</svg>
