<svg width="50" height="50" viewBox="0 0 50 50" fill="none" xmlns="http://www.w3.org/2000/svg">
<path fill-rule="evenodd" clip-rule="evenodd" d="M27.5 4.6875H22.5C15.0786 4.6875 11.368 4.6875 8.76671 6.57744C7.9266 7.18781 7.18781 7.9266 6.57744 8.76671C4.6875 11.368 4.6875 15.0786 4.6875 22.5V27.5C4.6875 34.9212 4.6875 38.6321 6.57744 41.2333C7.18781 42.0733 7.9266 42.8123 8.76671 43.4225C11.368 45.3125 15.0786 45.3125 22.5 45.3125H27.5C34.9212 45.3125 38.6321 45.3125 41.2333 43.4225C42.0733 42.8123 42.8123 42.0733 43.4225 41.2333C45.3125 38.6321 45.3125 34.9212 45.3125 27.5V22.5C45.3125 15.0786 45.3125 11.368 43.4225 8.76671C42.8123 7.9266 42.0733 7.18781 41.2333 6.57744C38.6321 4.6875 34.9212 4.6875 27.5 4.6875ZM33.3333 25C33.3333 29.6023 29.6023 33.3333 25 33.3333C20.3976 33.3333 16.6667 29.6023 16.6667 25C16.6667 20.3976 20.3976 16.6667 25 16.6667C29.6023 16.6667 33.3333 20.3976 33.3333 25ZM36.4583 15.625C37.609 15.625 38.5417 14.6922 38.5417 13.5417C38.5417 12.3911 37.609 11.4583 36.4583 11.4583C35.3077 11.4583 34.375 12.3911 34.375 13.5417C34.375 14.6922 35.3077 15.625 36.4583 15.625Z" fill="#503217"/>
</svg>
