<svg width="219" height="339" viewBox="0 0 219 339" fill="none" xmlns="http://www.w3.org/2000/svg">
<g opacity="0.15">
<path d="M115.157 258.497C128.687 248.807 133.938 231.007 127.928 215.21C127.421 213.879 125.945 213.194 124.629 213.681C123.313 214.168 122.659 215.64 123.166 216.973C128.349 230.593 123.819 245.942 112.15 254.299C97.6691 264.669 77.7114 260.862 67.4278 246.502L41.405 210.166L93.1247 173.126L100.221 183.035C101.051 184.194 102.647 184.473 103.786 183.658C104.924 182.842 105.174 181.241 104.344 180.082L68.2181 129.639C56.1949 112.85 33.0135 108.676 16.3883 120.583C8.55248 126.194 3.32428 134.564 1.66125 144.153C1.42093 145.545 2.35072 146.89 3.73852 147.156C5.12433 147.42 6.44487 146.513 6.68854 145.118C8.12151 136.845 12.6349 129.622 19.3945 124.781C33.74 114.507 53.7286 118.116 64.0948 132.591L90.1176 168.927L38.2351 206.084C37.3823 205.556 36.2737 205.552 35.4201 206.163C34.2806 206.979 34.0319 208.579 34.8621 209.739C41.3269 218.766 55.6195 238.723 63.305 249.454C75.3543 266.279 98.5373 270.399 115.157 258.497Z" fill="#8F7D6A"/>
<path d="M106.819 187.897C105.681 188.712 105.431 190.313 106.261 191.472L111.297 198.505C112.128 199.664 113.724 199.943 114.862 199.128C116.001 198.312 116.251 196.711 115.42 195.552L110.384 188.52C109.554 187.36 107.958 187.082 106.819 187.897Z" fill="#8F7D6A"/>
<path d="M96.2202 109.201C111.773 111.919 126.409 101.434 128.846 85.8351C131.281 70.2328 120.608 55.3298 105.053 52.6116C80.7558 48.3659 59.879 44.7178 35.5818 40.472C20.0244 37.7535 5.39172 48.2358 2.95694 63.8368C0.521946 79.4391 11.1949 94.342 26.7503 97.0602C33.879 98.3062 88.977 107.935 96.2202 109.201ZM123.806 84.9546C121.804 97.7683 109.784 106.376 97.0092 104.145L64.7949 98.5158C67.3314 82.2609 69.511 68.2933 72.0479 52.038L104.264 57.6676C117.069 59.9072 125.809 72.1091 123.806 84.9546ZM7.99763 64.7179C10.0038 51.8744 21.9865 43.2922 34.7931 45.528L67.0074 51.1572C64.4709 67.4122 62.2914 81.3798 59.7545 97.635L27.5396 92.005C14.7343 89.7653 5.99472 77.5628 7.99763 64.7179Z" fill="#8F7D6A"/>
<path d="M46.6965 319.748C61.0795 309.447 64.248 289.152 53.7584 274.505C43.2609 259.847 23.019 256.302 8.63606 266.603C-5.75708 276.911 -8.92685 297.221 1.57093 311.88C12.0605 326.526 32.3033 330.056 46.6965 319.748ZM49.6359 277.457C57.9599 289.08 56.0609 304.922 45.6753 313.967L13.7807 269.432C25.6885 262.512 41.3043 265.823 49.6359 277.457ZM9.65789 272.384L41.5528 316.92C29.6361 323.847 14.0184 320.551 5.69386 308.927C-2.63846 297.293 -0.737797 281.436 9.65789 272.384Z" fill="#8F7D6A"/>
<path d="M14.324 226.858C33.1044 213.408 37.2281 187.012 23.5329 167.862C1.47268 137.031 -46.3224 148.026 -52.0808 184.96C-57.8404 221.865 -15.8814 248.489 14.324 226.858ZM11.3174 222.659C4.03219 227.877 -4.74932 230.131 -13.6551 229.19L-2.2493 156.119C6.46667 158.258 14.0954 163.386 19.409 170.813C31.4341 187.63 27.8333 210.831 11.3174 222.659ZM-47.0401 185.842C-44.0168 166.47 -26.6037 153.2 -7.29011 155.238L-18.6949 228.306C-37.4772 223.681 -50.0614 205.194 -47.0401 185.842Z" fill="#8F7D6A"/>
</g>
</svg>
