<svg width="20" height="20" viewBox="0 0 20 20" fill="none" xmlns="http://www.w3.org/2000/svg">
<path d="M10.8333 4.16667H9.16667C6.67436 4.16667 5.4282 4.16667 4.5 4.70257C3.89192 5.05364 3.38697 5.55859 3.0359 6.16667C2.5 7.09487 2.5 8.34102 2.5 10.8333C2.5 13.3256 2.5 14.5718 3.0359 15.5C3.38697 16.1081 3.89192 16.613 4.5 16.9641C5.4282 17.5 6.67436 17.5 9.16667 17.5C11.659 17.5 12.9051 17.5 13.8333 16.9641C14.4414 16.613 14.9464 16.1081 15.2974 15.5C15.8333 14.5718 15.8333 13.3256 15.8333 10.8333V9.16667M8.01897 11.981L17.5 2.5M17.5 2.5L13.9446 2.5M17.5 2.5V6.05539" stroke="#F2F2F2" stroke-width="1.5" stroke-linecap="round" stroke-linejoin="round"/>
</svg>
