<svg width="249" height="242" viewBox="0 0 249 242" fill="none" xmlns="http://www.w3.org/2000/svg">
<g opacity="0.1">
<path d="M48.6463 214.905C48.2006 216.688 48.0809 218.55 48.2939 220.384C48.507 222.219 49.0486 223.989 49.888 225.594C50.7273 227.2 51.8478 228.609 53.1857 229.741C54.5235 230.874 56.0523 231.707 57.6849 232.194L87.9742 241.234C89.0873 241.566 90.236 241.736 91.39 241.737C94.5088 241.729 97.5193 240.486 99.8634 238.238C102.208 235.991 103.727 232.891 104.139 229.513C104.551 226.136 103.829 222.71 102.105 219.869C100.382 217.029 97.775 214.968 94.767 214.067L79.6244 209.55L64.4818 205.032C61.1837 204.053 57.665 204.543 54.6967 206.393C51.7284 208.244 49.5527 211.304 48.6463 214.905ZM93.6868 218.365C95.9241 219.054 97.8214 220.681 98.9655 222.892C100.11 225.103 100.408 227.718 99.7952 230.168C99.1826 232.618 97.7088 234.704 95.6947 235.972C93.6807 237.24 91.2896 237.588 89.0422 236.939L75.8642 233.006L80.5069 214.432L93.6868 218.365ZM63.3955 209.325L76.5735 213.257L71.941 231.833L58.7631 227.901C57.6466 227.568 56.6011 226.998 55.6863 226.223C54.7715 225.449 54.0053 224.485 53.4314 223.387C52.8575 222.289 52.4872 221.079 52.3415 219.824C52.1959 218.57 52.2779 217.297 52.5827 216.077C52.8876 214.857 53.4093 213.715 54.1182 212.715C54.8271 211.716 55.7092 210.879 56.7142 210.252C57.7192 209.625 58.8274 209.22 59.9756 209.061C61.1237 208.902 62.2893 208.992 63.4057 209.325H63.3955Z" fill="#8F7D6A"/>
<path d="M76.5936 185.532H107.992C111.41 185.532 114.688 184.048 117.105 181.408C119.522 178.767 120.88 175.185 120.88 171.451C120.88 167.716 119.522 164.135 117.105 161.494C114.688 158.854 111.41 157.37 107.992 157.37H76.5936C73.1754 157.37 69.8971 158.854 67.48 161.494C65.063 164.135 63.7051 167.716 63.7051 171.451C63.7051 175.185 65.063 178.767 67.48 181.408C69.8971 184.048 73.1754 185.532 76.5936 185.532ZM116.806 171.451C116.803 174.004 115.874 176.451 114.221 178.256C112.569 180.061 110.328 181.076 107.992 181.079H94.3368V161.834H107.992C110.327 161.837 112.565 162.85 114.218 164.653C115.87 166.455 116.801 168.9 116.806 171.451ZM76.5936 161.834H90.2485V181.09H76.5936C74.2564 181.09 72.0149 180.075 70.3623 178.27C68.7096 176.464 67.7811 174.015 67.7811 171.462C67.7811 168.909 68.7096 166.46 70.3623 164.654C72.0149 162.849 74.2564 161.834 76.5936 161.834Z" fill="#8F7D6A"/>
<path d="M49.9151 162.057C49.6135 161.861 49.3037 161.688 48.9919 161.521C48.9145 158.097 47.693 154.822 45.5578 152.314L24.1686 127.174C21.8387 124.442 18.6108 122.833 15.1951 122.701C11.7793 122.569 8.45544 123.925 5.95472 126.47C3.454 129.016 1.98126 132.542 1.86049 136.274C1.73971 140.005 2.98079 143.637 5.3107 146.369L21.7067 165.62L9.71897 168.96C8.07835 169.414 6.53579 170.218 5.17936 171.324C3.82294 172.43 2.67922 173.817 1.8135 175.406C0.0650972 178.615 -0.444799 182.452 0.395981 186.072C1.23676 189.692 3.35934 192.798 6.29679 194.709C9.23423 196.619 12.7459 197.176 16.0593 196.257L46.4933 187.821C48.968 187.139 51.2016 185.669 52.911 183.598C54.6203 181.528 55.7285 178.949 56.095 176.19C56.4615 173.43 56.0699 170.614 54.9697 168.098C53.8695 165.582 52.1103 163.48 49.9151 162.057ZM44.7446 160.169C43.2078 159.98 41.6522 160.095 40.153 160.51L26.2128 164.373L20.3779 157.517L33.2787 144.416L42.5803 155.353C43.7103 156.7 44.4617 158.373 44.7446 160.174V160.169ZM8.74072 129.714C10.4712 128.018 12.7369 127.123 15.06 127.217C17.3831 127.311 19.582 128.386 21.1931 130.217L30.4947 141.152L17.596 154.264L8.29642 143.336C6.70856 141.462 5.86403 138.977 5.94728 136.425C6.03052 133.873 7.03477 131.46 8.74072 129.714ZM15.0586 191.931C12.793 192.559 10.3919 192.178 8.38339 190.872C6.3749 189.566 4.92359 187.441 4.34875 184.966C3.77391 182.491 4.12261 179.868 5.31815 177.674C6.51369 175.479 8.45813 173.894 10.7237 173.266L23.971 169.594L28.3059 188.259L15.0586 191.931ZM50.8975 179.086C50.3084 180.175 49.5273 181.125 48.5995 181.882C47.6718 182.639 46.6157 183.187 45.4926 183.495L32.2454 187.164L27.9186 168.501L41.1659 164.829C41.8792 164.631 42.6124 164.53 43.3486 164.529C44.9044 164.533 46.4315 164.986 47.7749 165.843C49.1184 166.7 50.2303 167.931 50.9978 169.409C51.7653 170.887 52.1611 172.561 52.1449 174.261C52.1287 175.961 51.7011 177.625 50.9056 179.086H50.8975Z" fill="#8F7D6A"/>
<path d="M205.229 116.087L225.155 107.266C229.489 105.353 233.31 102.274 236.263 98.3141C239.215 94.3546 241.203 89.6436 242.042 84.6193C250.237 36.6592 224.639 13.3871 208.649 3.7951C205.096 1.65124 201.159 0.38106 197.11 0.0733846C193.062 -0.234291 189.001 0.427971 185.211 2.01385L83.3828 44.7305C69.2837 50.5885 66.0595 79.3246 75.9848 109.218L53.063 128.583C50.3587 130.868 48.596 134.232 48.1626 137.937C47.948 139.771 48.0662 141.634 48.5105 143.418C48.9547 145.203 49.7163 146.874 50.7518 148.337C51.7873 149.8 53.0764 151.025 54.5455 151.944C56.0146 152.863 57.6349 153.456 59.3139 153.691C62.7048 154.164 66.1291 153.147 68.8333 150.862L88.2456 134.459C96.8848 147.308 106.745 154.498 115.366 154.498C117.256 154.507 119.131 154.14 120.901 153.416L120.936 153.4L142.661 143.824V160.694C142.661 173.976 169.971 181.143 195.65 181.143C221.329 181.143 248.639 173.976 248.639 160.694V140.112C248.639 127.935 230.217 118.111 205.229 116.087ZM186.683 6.16862C189.919 4.81246 193.387 4.24568 196.845 4.50799C200.303 4.77029 203.667 5.85534 206.7 7.68713C221.725 16.7092 245.771 38.5985 238.047 83.8044C237.332 88.0933 235.636 92.1149 233.116 95.4955C230.597 98.876 227.336 101.506 223.636 103.14L195.253 115.702C166.543 115.796 143.943 125.904 142.72 138.994L129.821 144.69C136.19 132.631 135.936 111.037 128.134 88.3822C120.214 65.4152 107.108 48.8696 94.8936 44.6748L186.683 6.16862ZM108.461 60.7595C108.52 60.7996 108.587 60.804 108.648 60.8374C111.979 64.9475 114.926 69.41 117.447 74.1589L108.799 86.4629L97.965 77.383C96.1427 75.7867 94.959 73.4796 94.6636 70.9482C94.3681 68.4169 94.984 65.8591 96.3814 63.8143C97.6974 61.7697 99.6576 60.3274 101.887 59.7637C104.115 59.2 106.456 59.5546 108.461 60.7595ZM119.601 78.4072C121.385 82.1467 122.96 86.0005 124.319 89.9475C125.51 93.4051 126.535 96.9286 127.388 100.504C125.745 100.167 124.202 99.3979 122.892 98.2637L112.046 89.1726L119.601 78.4072ZM129.64 130.556L118.239 131.573C115.916 131.758 113.62 130.937 111.847 129.287C110.074 127.638 108.966 125.292 108.763 122.757C108.56 120.222 109.278 117.702 110.763 115.741C112.247 113.78 114.378 112.536 116.695 112.278L129.345 110.988C130.276 117.464 130.376 124.05 129.64 130.556ZM80.3706 135.485L69.5894 120.251L80.391 111.122C81.9272 109.816 83.8185 109.106 85.7653 109.107C86.1442 109.107 86.5227 109.134 86.8984 109.187C88.628 109.427 90.2535 110.223 91.5692 111.472C92.885 112.722 93.8318 114.37 94.29 116.208C94.7482 118.046 94.6971 119.991 94.1432 121.797C93.5893 123.603 92.5575 125.189 91.1783 126.354L80.3706 135.485ZM66.3387 147.339C65.4231 148.113 64.3771 148.682 63.2603 149.013C62.1435 149.345 60.9778 149.433 59.8298 149.273C58.6818 149.112 57.574 148.706 56.5696 148.078C55.5652 147.45 54.6839 146.612 53.976 145.612C53.2681 144.611 52.7475 143.468 52.4438 142.248C52.1402 141.028 52.0595 139.755 52.2064 138.501C52.3532 137.246 52.7248 136.036 53.2997 134.939C53.8747 133.841 54.6419 132.879 55.5575 132.105L66.3591 122.976L77.1424 138.208L66.3387 147.339ZM91.4779 131.729L93.6708 129.876C96.2621 127.702 98 124.532 98.5324 121.01C99.0649 117.488 98.3521 113.876 96.5385 110.907C94.7249 107.937 91.946 105.832 88.7647 105.017C85.5833 104.202 82.2374 104.738 79.4046 106.518C70.8306 79.7431 73.1702 53.6901 84.8441 48.8852C90.1797 46.6898 96.7075 49.1836 103.137 55.0038C101.147 55.2021 99.2188 55.8605 97.4795 56.9353C95.7402 58.0102 94.23 59.4769 93.0492 61.2382C91.039 64.221 90.1681 67.9404 90.6202 71.6114C91.0723 75.2824 92.8121 78.618 95.4724 80.9143L120.392 101.799C122.702 103.754 125.484 104.93 128.397 105.182C128.489 105.654 128.568 106.119 128.652 106.589L116.309 107.847C113 108.187 109.938 109.906 107.757 112.646C105.576 115.387 104.443 118.939 104.595 122.566C104.746 126.194 106.169 129.619 108.569 132.131C110.969 134.644 114.161 136.051 117.485 136.062C117.842 136.062 118.203 136.044 118.563 136.013L128.835 135.095C127.205 142.22 124.062 147.342 119.491 149.245L119.448 149.263C111.64 152.483 100.79 145.603 91.4779 131.729ZM244.563 160.694C244.563 168.265 224.476 176.69 195.65 176.69C166.824 176.69 146.737 168.26 146.737 160.694V149.673C154.661 158.479 173.34 164.526 195.65 164.526C217.96 164.526 236.639 158.479 244.563 149.673V160.694ZM195.65 160.073C166.392 160.073 146.737 149.753 146.737 140.112C146.737 130.471 166.38 120.16 195.622 120.153H195.652H195.674C224.918 120.153 244.563 130.478 244.563 140.114C244.563 149.751 224.908 160.073 195.65 160.073Z" fill="#8F7D6A"/>
</g>
</svg>
