<svg width="24" height="24" viewBox="0 0 24 24" fill="none" xmlns="http://www.w3.org/2000/svg">
<path fill-rule="evenodd" clip-rule="evenodd" d="M21.6969 15.8335C21.6969 17.8601 20.0483 19.5062 18.0242 19.5062H5.97464C3.95053 19.5062 2.30189 17.8601 2.30189 15.8335V8.16649C2.30189 7.49008 2.48709 6.85479 2.80856 6.30954L8.688 12.189C9.56761 13.0712 10.7455 13.5573 12.0007 13.5573C13.2532 13.5573 14.4311 13.0712 15.3107 12.189L21.1902 6.30954C21.5117 6.85479 21.6968 7.49004 21.6968 8.16649V15.8335H21.6969ZM18.0241 4.49379H5.97464C5.13877 4.49379 4.36716 4.77668 3.74991 5.24735L9.6885 11.1885C10.3032 11.8006 11.1236 12.1401 12.0007 12.1401C12.8751 12.1401 13.6956 11.8006 14.3102 11.1885L20.2488 5.24735C19.6316 4.77668 18.8601 4.49379 18.0241 4.49379ZM18.0241 3.07666H5.97464C3.16866 3.07666 0.884766 5.36055 0.884766 8.16654V15.8335C0.884766 18.6421 3.16866 20.9234 5.97464 20.9234H18.0241C20.8301 20.9234 23.114 18.6421 23.114 15.8335V8.16649C23.114 5.3605 20.8301 3.07666 18.0241 3.07666Z" fill="#8F7D6A"/>
</svg>
