<svg width="36" height="35" viewBox="0 0 36 35" fill="none" xmlns="http://www.w3.org/2000/svg">
<g clip-path="url(#clip0_1670_161)">
<path fill-rule="evenodd" clip-rule="evenodd" d="M7.67914 2.8418C5.19343 4.53993 3.18448 6.84688 1.84409 9.54239C0.503701 12.2379 -0.123382 15.232 0.0227064 18.2388C0.168795 21.2457 1.08318 24.1649 2.67857 26.7178C4.27395 29.2707 6.49707 31.372 9.1357 32.8211C11.7743 34.2703 14.7404 35.0189 17.7507 34.9956C20.761 34.9722 23.715 34.1776 26.3308 32.6876C28.9466 31.1976 31.1368 29.062 32.6924 26.4846C34.2479 23.9073 35.1168 20.9742 35.2162 17.9655C34.7698 20.577 33.7056 23.0439 32.1123 25.1607C30.519 27.2774 28.4428 28.9826 26.0568 30.1341C23.6707 31.2856 21.044 31.85 18.3955 31.7804C15.7471 31.7107 13.1537 31.0089 10.8315 29.7335C8.50927 28.4581 6.5256 26.6461 5.04582 24.4485C3.56605 22.2509 2.63304 19.7314 2.32458 17.1001C2.01613 14.4687 2.34116 11.8018 3.27259 9.32154C4.20402 6.8413 5.71486 4.61965 7.67914 2.8418Z" fill="#8F7D6A"/>
<path fill-rule="evenodd" clip-rule="evenodd" d="M27.3606 27.136C29.4584 25.7033 31.1539 23.7567 32.2852 21.4821C33.4166 19.2075 33.9459 16.6809 33.8228 14.1435C33.6997 11.6061 32.9283 9.14255 31.5821 6.98817C30.2359 4.83378 28.3599 3.06045 26.1332 1.83747C23.9066 0.614483 21.4036 -0.0173116 18.8633 0.00240045C16.323 0.0221125 13.8301 0.692671 11.6227 1.95006C9.41532 3.20745 7.56708 5.00969 6.25447 7.1847C4.94187 9.35972 4.20871 11.8349 4.125 14.3739C4.50162 12.1702 5.39959 10.0884 6.74406 8.30218C8.08853 6.51593 9.84053 5.07697 11.854 4.10527C13.8675 3.13356 16.0841 2.65727 18.319 2.7161C20.5539 2.77493 22.7423 3.36718 24.7019 4.44346C26.6614 5.51975 28.3353 7.04889 29.584 8.90339C30.8326 10.7579 31.6198 12.884 31.88 15.1045C32.1401 17.325 31.8657 19.5755 31.0795 21.6684C30.2934 23.7613 29.0183 25.636 27.3606 27.136Z" fill="#8F7D6A"/>
<path fill-rule="evenodd" clip-rule="evenodd" d="M10.4531 17.8288L10.4531 20.9226L15.001 20.9226L15.001 25.434L18.0219 25.434L18.0219 20.9226L22.5715 20.9226L22.5715 17.8288L18.0219 17.8288L18.0219 13.3174L15.001 13.3174L15.001 17.8288L10.4531 17.8288Z" fill="#503217"/>
<path fill-rule="evenodd" clip-rule="evenodd" d="M23.5903 12.299C21.9531 10.6754 19.8037 9.66946 17.5082 9.45247C15.2126 9.23547 12.9128 9.82082 11.0004 11.1089C9.08789 12.3969 7.68096 14.308 7.01914 16.5167C6.35732 18.7255 6.48151 21.0953 7.37057 23.2228C8.25964 25.3503 9.85861 27.1039 11.8952 28.1849C13.9319 29.266 16.2802 29.6078 18.5405 29.152C20.8008 28.6963 22.8333 27.4712 24.2918 25.6854C25.7504 23.8996 26.5449 21.6634 26.5401 19.3576C26.5389 18.0446 26.2776 16.7448 25.7713 15.5332C25.265 14.3217 24.5238 13.2225 23.5903 12.299ZM16.4935 10.6957C17.6368 10.6872 18.7702 10.9083 19.8265 11.3458C20.8828 11.7834 21.8405 12.4285 22.6429 13.2429C23.4507 14.047 24.0917 15.0027 24.5291 16.0551C24.9664 17.1076 25.1916 18.2361 25.1916 19.3758C25.1916 20.5156 24.9664 21.6441 24.5291 22.6966C24.0917 23.749 23.4507 24.7047 22.6429 25.5088C21.8387 26.3156 20.8831 26.9558 19.831 27.3926C18.7789 27.8294 17.6509 28.0543 16.5117 28.0543C15.3725 28.0543 14.2445 27.8294 13.1924 27.3926C12.1403 26.9558 11.1847 26.3156 10.3805 25.5088C9.16771 24.297 8.34113 22.753 8.00512 21.0718C7.6691 19.3907 7.83873 17.6476 8.49257 16.0627C9.14642 14.4779 10.2552 13.1223 11.6789 12.167C13.1025 11.2118 14.7773 10.6998 16.4918 10.6957L16.4935 10.6957Z" fill="#503217"/>
</g>
<defs>
<clipPath id="clip0_1670_161">
<rect width="35.2169" height="35" fill="white"/>
</clipPath>
</defs>
</svg>
