<svg width="339" height="333" viewBox="0 0 339 333" fill="none" xmlns="http://www.w3.org/2000/svg">
<g opacity="0.15">
<mask id="mask0_891_121" style="mask-type:luminance" maskUnits="userSpaceOnUse" x="9" y="14" width="317" height="305">
<path d="M244.221 14.0522L9.55859 91.2178L90.5348 318.045L325.197 240.88L244.221 14.0522Z" fill="white"/>
</mask>
<g mask="url(#mask0_891_121)">
<path d="M289.08 140.592C283.201 129.55 270.505 123.531 257.893 125.805L255.44 118.932C248.671 99.9699 228.246 89.4345 209.916 95.4624C192.114 101.316 182.553 121.188 188.586 139.767L188.814 139.693L188.6 139.805L215.196 214.305C223.698 238.122 212.183 263.519 189.538 270.965C166.893 278.413 141.559 265.102 133.066 241.312L130.762 234.859C136.433 232.995 141.076 227.029 137.097 215.88L133.702 206.372C156.588 191.915 167.071 165.188 158.639 141.568L155.825 133.686L148.003 136.258L130.274 87.1103C126.966 78.0215 117.429 72.4684 107.578 73.8962C103.464 68.6313 95.7207 67.5638 90.2835 71.5123C84.8467 75.4603 83.7743 82.9291 87.8891 88.1942C92.0035 93.459 99.7465 94.5266 105.184 90.5779C108.095 88.4638 109.882 85.2102 110.064 81.6917C115.566 81.4221 120.61 84.6867 122.448 89.7089L140.181 138.83L132.359 141.402L135.212 149.394C139.595 162.646 134.554 177.073 122.77 185.002C116.538 189.45 109.024 191.921 101.259 192.076C86.8954 192.731 73.7168 184.298 68.7255 171.257L65.8725 163.265L54.1396 167.124L36.5951 117.979C34.7934 112.862 36.7547 107.228 41.3853 104.221C45.8566 109.295 53.7274 109.928 58.9655 105.635C64.2038 101.341 64.8248 93.7468 60.3537 88.6727C55.8825 83.5986 48.011 82.9657 42.7733 87.259C39.9353 89.5857 38.3309 93.0211 38.4018 96.6226C29.5813 101.253 25.5177 111.351 28.7732 120.551L46.3177 169.696L38.4957 172.268L41.3027 180.131C49.7445 203.777 75.1164 218.723 102.415 216.661L105.809 226.168C109.789 237.317 117.269 239.297 122.94 237.431L125.244 243.884C135.231 271.86 165.278 287.392 192.236 278.527C219.195 269.661 232.995 239.682 223.017 211.733L196.487 137.414C191.756 122.939 199.002 107.513 212.619 103.034C226.636 98.4252 242.338 106.712 247.622 121.516L250.072 128.377C235.852 135.386 230.262 152.218 237.586 165.973C244.911 179.728 262.374 185.197 276.594 178.188C290.813 171.179 296.403 154.347 289.08 140.592ZM99.0329 84.7743C96.873 85.4845 94.5176 84.3677 93.7724 82.28C93.0271 80.1922 94.1739 77.9237 96.3338 77.2135C98.4936 76.5031 100.849 77.6201 101.594 79.7078C102.34 81.7956 101.193 84.0641 99.0329 84.7743ZM49.4021 92.6463C51.562 91.936 53.9174 93.0529 54.6626 95.1406C55.4079 97.2284 54.2611 99.4969 52.1013 100.207C49.9414 100.917 47.586 99.8005 46.8407 97.7128C46.0954 95.625 47.2422 93.3565 49.4021 92.6463ZM49.1247 177.559L49.0169 177.256L60.7498 173.398L60.9036 173.829C67.0626 190.165 83.4908 200.785 101.456 200.045C110.939 199.851 120.115 196.834 127.73 191.406C142.403 181.419 148.603 163.357 143.034 146.822L142.88 146.391L150.702 143.819L150.81 144.121C158.318 165.152 148.154 189.171 126.63 201.251C121.576 204.086 116.108 206.179 110.409 207.459C108.534 207.885 106.637 208.215 104.726 208.444C80.0089 211.579 56.6324 198.59 49.1247 177.559ZM120.241 229.871C116.721 231.028 114.441 225.864 113.631 223.596L110.767 215.575C111.093 215.51 111.42 215.418 111.747 215.345C112.153 215.258 112.555 215.16 112.958 215.064C114.865 214.615 116.768 214.107 118.651 213.493L118.846 213.428C120.723 212.811 122.546 212.09 124.327 211.326C124.706 211.164 125.11 210.998 125.498 210.823C125.795 210.688 126.111 210.571 126.407 210.431L129.271 218.454C130.081 220.722 131.579 226.143 128.059 227.299L120.241 229.871ZM270.071 172.153C259.27 175.705 247.494 170.121 243.767 159.682C240.04 149.243 245.775 137.901 256.575 134.349C267.373 130.798 279.15 136.382 282.877 146.821C286.588 157.26 280.859 168.592 270.071 172.153Z" fill="#8F7D6A"/>
<path d="M259.273 141.91C252.793 144.041 249.353 150.846 251.589 157.109C253.825 163.373 260.891 166.723 267.371 164.592C273.85 162.461 277.29 155.656 275.055 149.393C272.819 143.129 265.753 139.779 259.273 141.91ZM264.671 157.031C262.511 157.742 260.156 156.625 259.41 154.537C258.665 152.449 259.812 150.181 261.972 149.471C264.132 148.76 266.487 149.877 267.233 151.965C267.978 154.053 266.831 156.321 264.671 157.031Z" fill="#8F7D6A"/>
</g>
</g>
</svg>
