<svg width="25" height="25" viewBox="0 0 25 25" fill="none" xmlns="http://www.w3.org/2000/svg">
<path d="M7.5 17.5C5.29086 17.5 3.5 15.7091 3.5 13.5V11C3.5 8.66537 3.5 7.49805 3.97231 6.61441C4.34525 5.9167 4.9167 5.34525 5.61441 4.97231C6.49805 4.5 7.66537 4.5 10 4.5H15C17.3346 4.5 18.5019 4.5 19.3856 4.97231C20.0833 5.34525 20.6548 5.9167 21.0277 6.61441C21.5 7.49805 21.5 8.66537 21.5 11C21.5 13.3346 21.5 14.5019 21.0277 15.3856C20.6548 16.0833 20.0833 16.6548 19.3856 17.0277C18.5019 17.5 17.3346 17.5 15 17.5H12.5" stroke="#8F7D6A" stroke-width="1.5" stroke-linecap="round" stroke-linejoin="round"/>
<path d="M13.5 9.5H8.5M16.5 12.5H8.5" stroke="#8F7D6A" stroke-width="1.5" stroke-linecap="round" stroke-linejoin="round"/>
<path d="M7.5 17.5L6.5 20.5L12.5 17.5" stroke="#8F7D6A" stroke-width="1.5" stroke-linecap="round" stroke-linejoin="round"/>
</svg>
