<svg width="57" height="57" viewBox="0 0 57 57" fill="none" xmlns="http://www.w3.org/2000/svg">
<g clip-path="url(#clip0_1189_75)">
<path d="M36.5385 22.0609L29.3188 22.0609L29.3188 14.4287L22.8834 14.4287L22.8834 22.0609L15.6639 22.0609L15.6639 28.8642L22.8835 28.8642L22.8835 36.4965L29.3189 36.4965L29.3189 28.8642L36.5386 28.8642L36.5386 22.0609L36.5385 22.0609ZM35.4512 27.7148L28.2315 27.7148L28.2315 35.3471L23.9707 35.3471L23.9707 27.7148L16.7511 27.7148L16.7511 23.2104L23.9707 23.2104L23.9707 15.5781L28.2315 15.5781L28.2315 23.2104L35.4512 23.2104L35.4512 27.7148ZM54.748 26.9503C53.3237 25.4446 51.4385 24.6055 49.4284 24.5738C50.7521 20.2405 51.5948 15.7418 51.9346 11.1915L52.1928 7.73598L49.2081 6.29485C41.926 2.78908 34.145 1.01172 26.084 1.01172C18.0517 1.01172 10.3034 2.77468 3.05378 6.25032L8.40751e-08 7.71592L0.327502 11.2418C1.92038 28.4877 10.5888 44.0584 24.1093 53.9623L26.8724 55.9882L29.577 53.8631C29.9127 53.5973 30.2512 53.3229 30.5896 53.0471C32.0507 54.4509 33.9031 55.152 35.7556 55.152C37.7236 55.152 39.6916 54.3603 41.1907 52.7755L54.7492 38.442C56.2007 36.9075 56.9999 34.8672 56.9999 32.6962C57 30.5251 56.1995 28.4849 54.748 26.9503ZM28.9261 52.9406L26.8507 54.5728L24.7291 53.0183C11.4709 43.3069 2.97238 28.0394 1.40945 11.1297L1.15797 8.42276L3.50241 7.29771C10.6106 3.88965 18.2067 2.16114 26.0841 2.16114C33.9901 2.16114 41.6188 3.90395 48.7583 7.33937L51.0498 8.44569L50.8514 11.0995C50.5061 15.7102 49.6349 20.2663 48.2609 24.6456C46.8243 24.8526 45.4829 25.4819 44.3684 26.4746C46.2304 21.476 47.3789 16.2317 47.7825 10.8437L47.8125 10.4414L47.4659 10.2748C40.7233 7.03049 33.5213 5.38683 26.0584 5.38683C18.6159 5.38683 11.4425 7.01762 4.73794 10.236L4.38318 10.4055L4.42119 10.815C5.89715 26.7764 13.9214 41.1905 26.4389 50.3615L26.7597 50.5971L27.0737 50.35C27.5357 49.9865 27.9625 49.6373 28.3702 49.2939C28.6597 50.3557 29.1544 51.3443 29.8327 52.2078C29.5309 52.4565 29.2279 52.7022 28.9261 52.9406ZM28.1282 48.0283C27.6933 48.4047 27.2353 48.7855 26.7392 49.182C14.7763 40.2724 7.07422 26.4388 5.54383 11.1153C12.0037 8.07798 18.9039 6.53914 26.0583 6.53914C33.2358 6.53914 40.1673 8.09228 46.6666 11.1584C46.1719 17.1974 44.7203 23.0494 42.3555 28.561L30.3192 41.2853C28.8677 42.8198 28.0685 44.8601 28.0685 47.0311C28.0684 47.3659 28.0902 47.6992 28.1282 48.0283ZM40.4201 51.9622C37.8473 54.6821 33.6612 54.6821 31.0884 51.9622C29.8422 50.6446 29.1558 48.8932 29.1558 47.0297C29.1558 45.1662 29.8422 43.4147 31.0884 42.0972L37.4831 35.3371L46.8148 45.2022L40.4201 51.9622ZM53.98 37.6286L47.5854 44.3888L38.2537 34.5237L44.6483 27.7635C45.8946 26.4459 47.5514 25.7204 49.3142 25.7204C51.0769 25.7204 52.7337 26.4459 53.98 27.7635C55.2263 29.0811 55.9127 30.8326 55.9127 32.696C55.9127 34.5582 55.2264 36.3111 53.98 37.6286ZM50.4423 27.9977C50.392 28.3109 50.1133 28.5222 49.8157 28.469C48.8766 28.3024 47.0077 28.3268 45.0602 30.367C44.9542 30.4777 44.8155 30.5337 44.6769 30.5337C44.537 30.5337 44.3969 30.4762 44.2909 30.3642C44.0803 30.1386 44.0816 29.7751 44.295 29.551C46.5878 27.1501 48.8507 27.1314 49.9965 27.3354C50.2927 27.3886 50.4926 27.6845 50.4423 27.9977Z" fill="#503217"/>
</g>
<defs>
<clipPath id="clip0_1189_75">
<rect width="57" height="57" fill="white"/>
</clipPath>
</defs>
</svg>
