<svg width="60" height="60" viewBox="0 0 60 60" fill="none" xmlns="http://www.w3.org/2000/svg">
<path d="M53.5102 41.1559C50.908 39.3927 47.869 38.3857 44.7218 38.2439C42.3267 38.1349 39.9523 38.538 37.7378 39.4143C37.6261 36.3868 36.7152 33.4586 35.0858 30.9093C33.3899 28.2559 30.9982 26.1274 28.1695 24.754C27.9432 24.6441 27.6791 24.6441 27.4528 24.754C24.6241 26.1274 22.2325 28.2559 20.5365 30.9093C18.907 33.4588 17.9963 36.3869 17.8846 39.4147C15.6698 38.5386 13.2953 38.1359 10.9005 38.2439C7.75336 38.3857 4.71445 39.3925 2.11219 41.1559C1.90406 41.2968 1.77211 41.5254 1.75406 41.776C1.52777 44.9125 2.17441 48.0486 3.62402 50.845C5.11336 53.7184 7.38867 56.0966 10.2045 57.723C12.799 59.219 15.7157 60 18.6855 60C18.9402 60 19.1958 59.9942 19.4511 59.9827C22.4266 59.8483 25.3049 58.9393 27.8094 57.35C30.3155 58.9393 33.1946 59.8483 36.1702 59.9827C36.4256 59.9943 36.6809 60 36.9357 60C39.9054 60 42.8217 59.2189 45.4147 57.7228C48.2314 56.0968 50.5078 53.7186 51.9977 50.8452C53.4477 48.0488 54.0945 44.9128 53.8682 41.776C53.8501 41.5254 53.7182 41.2968 53.5102 41.1559ZM19.5135 40.048C19.5135 34.2512 22.6825 29.0619 27.8113 26.4097C32.94 29.0618 36.1091 34.2511 36.1091 40.048C36.1091 40.0856 36.1075 40.1236 36.1072 40.1614C35.8952 40.2724 35.6844 40.3864 35.4764 40.5065C32.6613 42.1307 30.3858 44.5081 28.8957 47.3812C28.8046 47.5571 28.7166 47.7343 28.6317 47.9128L28.6317 37.7526L26.9907 37.7526L26.9907 47.914C26.9058 47.7351 26.8177 47.5576 26.7264 47.3813C25.2368 44.5081 22.9614 42.131 20.1464 40.5068C19.9383 40.3865 19.7275 40.2725 19.5154 40.1615C19.515 40.1236 19.5135 40.0858 19.5135 40.048ZM11.0248 56.3018C6.0048 53.4023 3.09703 48.0622 3.36703 42.2941C8.16281 39.2271 14.3822 39.0725 19.326 41.9278C23.9736 44.6095 26.8086 49.3843 26.9895 54.6561C26.9857 54.7656 26.9851 54.8752 26.9835 54.9848L13.599 47.2564L12.7785 48.6775L26.177 56.414C21.4651 59.0531 15.7737 59.0402 11.0248 56.3018ZM44.5947 56.3015C39.8482 59.0403 34.1569 59.0533 29.4423 56.4139L42.8405 48.6775L42.0199 47.2564L28.6362 54.9843C28.6347 54.8752 28.6341 54.7661 28.6304 54.6573C28.8137 49.3845 31.6498 44.6087 36.2967 41.9274C41.24 39.072 47.4594 39.2268 52.2553 42.294C52.5254 48.0628 49.6163 53.4028 44.5947 56.3015ZM6.59508 34.1634C8.03625 34.1634 9.38777 33.6056 10.4005 32.5929L19.3927 23.6041C21.4921 21.5047 21.4921 18.0889 19.3927 15.9895C17.2932 13.8902 13.8775 13.8903 11.778 15.9896L2.78941 24.9814C1.77656 25.9944 1.21875 27.3459 1.21875 28.7871C1.21875 30.2283 1.77656 31.5798 2.78941 32.5926C3.80238 33.6057 5.15391 34.1634 6.59508 34.1634ZM12.9386 17.15C13.6683 16.4203 14.6269 16.0552 15.5855 16.0552C16.5441 16.0552 17.5027 16.4202 18.2324 17.15C19.6918 18.6095 19.6918 20.9843 18.2325 22.4437L14.3174 26.3573L9.02496 21.0649L12.9386 17.15ZM3.94992 26.1418L7.86492 22.2254L13.1569 27.5174L9.24035 31.4325C8.53746 32.1355 7.59797 32.5225 6.59508 32.5225C5.59219 32.5225 4.6527 32.1354 3.94981 31.4325C3.24691 30.7296 2.85973 29.7902 2.85973 28.7872C2.85973 27.7843 3.24691 26.8448 3.94992 26.1418ZM27.5167 18.1763C28.5659 19.2255 29.9441 19.75 31.3222 19.75C32.7005 19.75 34.0786 19.2255 35.1278 18.1763C36.1406 17.1635 36.6984 15.8114 36.6984 14.3691C36.6984 12.9268 36.1406 11.5747 35.1278 10.5618L26.1386 1.57274C24.0375 -0.524444 20.6218 -0.524209 18.5247 1.57321C16.4263 3.67157 16.4263 7.08595 18.5247 9.18442L27.5167 18.1763ZM35.0577 14.3691C35.0577 15.3731 34.6705 16.3131 33.9676 17.0159C32.509 18.4745 30.1357 18.4746 28.6771 17.0159L24.7598 13.0986L30.0533 7.80782L33.9676 11.7221C34.6705 12.4251 35.0577 13.3651 35.0577 14.3691ZM19.685 2.7336C20.4142 2.00446 21.3723 1.64001 22.3309 1.64001C23.2895 1.64001 24.2486 2.00446 24.9789 2.7336L28.8929 6.64755L23.5995 11.9383L19.6852 8.02403C18.2265 6.5654 18.2265 4.19212 19.685 2.7336ZM9.12152 12.8936C10.6282 12.8935 12.1358 12.3205 13.284 11.1743C15.5784 8.87973 15.5784 5.14661 13.2836 2.85161C10.9874 0.559424 7.25449 0.559541 4.96195 2.85196C3.84949 3.9629 3.23684 5.44052 3.23684 7.01306C3.23684 8.58583 3.84961 10.0637 4.96195 11.1741C6.10828 12.3205 7.61449 12.8938 9.12152 12.8936ZM12.1241 10.0133C10.6662 11.4686 8.40586 11.6424 6.75762 10.5357L12.6469 4.64915C13.7538 6.2981 13.5799 8.55759 12.1241 10.0133ZM6.12176 4.01282L6.12223 4.01235C6.94875 3.18571 8.03508 2.77251 9.12176 2.77251C9.9477 2.77251 10.7735 3.01181 11.4859 3.48923L5.59629 9.37638C5.12906 8.68345 4.87781 7.8677 4.87781 7.01306C4.87781 5.87927 5.31961 4.81368 6.12176 4.01282ZM49.7541 34.0439C52.0463 31.7479 52.046 28.0148 49.7541 25.7229C48.6431 24.61 47.1652 23.9972 45.5925 23.9972C44.0198 23.9972 42.5419 24.61 41.4309 25.7229C39.139 28.0153 39.1389 31.7481 41.4314 34.0445C42.5786 35.1916 44.0852 35.7652 45.5923 35.7651C47.0994 35.7651 48.6067 35.1914 49.7541 34.0439ZM48.5933 32.8841C47.1369 34.3402 44.8772 34.5141 43.2286 33.4074L49.1153 27.5179C50.222 29.1661 50.0484 31.4266 48.5933 32.8841ZM42.5919 26.8827C42.592 26.8824 42.5922 26.8823 42.5924 26.8821C43.3932 26.0798 44.4587 25.6381 45.5926 25.6381C46.4473 25.6381 47.2629 25.8893 47.9559 26.3566L42.0689 32.2465C40.9634 30.5965 41.1372 28.3374 42.5919 26.8827ZM57.2109 4.38993C55.1126 2.29169 51.6982 2.29157 49.5998 4.38981L40.6072 13.3793C38.5102 15.4802 38.5104 18.8959 40.6078 20.9933C41.6566 22.042 43.0346 22.5663 44.4136 22.5663C45.7922 22.5663 47.1717 22.0419 48.2224 20.9932L57.2109 12.0013C58.2238 10.9884 58.7816 9.63688 58.7816 8.19559C58.7816 6.75442 58.2238 5.4029 57.2109 4.38993ZM47.0625 19.8324C45.6014 21.2907 43.2264 21.2913 41.7681 19.8329C40.3099 18.3747 40.3102 15.9997 41.768 14.5392L45.683 10.6256L50.9754 15.918L47.0625 19.8324ZM56.0505 10.8409L52.1355 14.7574L46.8436 9.46544L50.7601 5.55032C51.4894 4.82106 52.4475 4.45638 53.4054 4.45638C54.3633 4.45638 55.3214 4.82095 56.0507 5.55032C56.7537 6.25321 57.1407 7.1927 57.1407 8.19559C57.1407 9.19848 56.7536 10.138 56.0505 10.8409Z" fill="#503217"/>
</svg>
