<svg width="60" height="60" viewBox="0 0 60 60" fill="none" xmlns="http://www.w3.org/2000/svg">
<g clip-path="url(#clip0_1189_64)">
<path d="M59.1224 37.0514C50.0319 37.0514 42.2102 42.5866 38.8502 50.4636L38.8502 23.7392C38.8502 19.6804 35.7728 16.3269 31.8291 15.8889L31.8291 12.3299L32.7067 12.3299C34.1584 12.3299 35.3396 11.1487 35.3396 9.697C35.3396 8.24527 34.1584 7.06408 32.7067 7.06408L28.3185 7.06408L28.3185 0.920608C28.3185 0.4358 27.9257 0.0429684 27.4409 0.0429684L11.4093 0.0429686C10.9245 0.0429686 10.5317 0.4358 10.5317 0.920608L10.5317 7.06408L6.14348 7.06408C4.69174 7.06408 3.51056 8.24527 3.51056 9.697C3.51056 11.1487 4.69174 12.3299 6.14348 12.3299L7.02112 12.3299L7.02112 15.8889C3.07736 16.3269 2.46267e-07 19.6804 2.97167e-07 23.7392L6.96324e-07 55.5683C7.26669e-07 57.988 1.96849 59.9565 4.3882 59.9565L34.462 59.9565C34.824 59.9565 35.1833 59.9091 35.534 59.8209C36.335 59.9095 37.1484 59.9565 37.9725 59.9565C50.1186 59.9565 60 50.0751 60 37.9291C60 37.4443 59.6072 37.0514 59.1224 37.0514ZM54.3004 39.3874C51.5025 41.0933 48.6698 43.3446 46.0289 45.9855C43.3873 48.627 41.1361 51.4604 39.4301 54.2589C41.2207 46.9466 46.9883 41.1785 54.3004 39.3874ZM17.7454 39.2806C25.1667 42.7142 33.1873 50.735 36.6209 58.1562C26.5179 57.4875 18.414 49.3835 17.7454 39.2806ZM36.5147 54.2585C34.8088 51.46 32.5576 48.6268 29.9163 45.9854C27.2754 43.3446 24.4426 41.0932 21.6448 39.3873C28.9566 41.1784 34.7242 46.9465 36.5147 54.2585ZM12.287 1.79825L26.5632 1.79825L26.5632 7.06408L12.287 7.06408L12.287 1.79825ZM4.3882 58.2012C2.93647 58.2012 1.75528 57.02 1.75528 55.5683L1.75528 23.7392C1.75528 20.3518 4.5113 17.5958 7.89875 17.5958C8.38356 17.5958 8.77639 17.2029 8.77639 16.7181L8.77639 11.4523C8.77639 10.9675 8.38356 10.5746 7.89875 10.5746L6.14348 10.5746C5.65949 10.5746 5.26584 10.181 5.26584 9.697C5.26584 9.21301 5.65949 8.81936 6.14348 8.81936L32.7067 8.81936C33.1907 8.81936 33.5843 9.21301 33.5843 9.697C33.5843 10.181 33.1907 10.5746 32.7067 10.5746L11.4093 10.5746C10.9245 10.5746 10.5317 10.9675 10.5317 11.4523L10.5317 16.7181C10.5317 17.2029 10.9245 17.5958 11.4093 17.5958L27.4409 17.5958C27.9257 17.5958 28.3185 17.2029 28.3185 16.7181L28.3185 12.3299L30.0738 12.3299L30.0738 16.7181C30.0738 17.2029 30.4666 17.5958 30.9514 17.5958C34.3389 17.5958 37.0949 20.3518 37.0949 23.7392L37.0949 50.4637C36.6025 49.3092 36.0138 48.2054 35.3396 47.1616L35.3396 23.7392C35.3396 23.2544 34.9468 22.8616 34.462 22.8616C32.3314 22.8616 31.2197 23.5538 30.2388 24.1644C29.3444 24.7211 28.5721 25.202 26.9433 25.202C25.3145 25.202 24.5421 24.7211 23.6478 24.1644C22.6669 23.5538 21.5552 22.8616 19.4246 22.8616C17.2942 22.8616 16.1825 23.5538 15.2017 24.1644C14.3073 24.7211 13.5351 25.202 11.9063 25.202C10.2777 25.202 9.5053 24.7211 8.61116 24.1644C7.63031 23.5538 6.51864 22.8616 4.3882 22.8616C3.90339 22.8616 3.51056 23.2544 3.51056 23.7392L3.51056 48.5472C3.51056 49.032 3.90339 49.4248 4.3882 49.4248C4.87301 49.4248 5.26584 49.032 5.26584 48.5472L5.26584 24.6707C6.32883 24.8111 6.96705 25.2084 7.68344 25.6545C8.66429 26.2651 9.77597 26.9572 11.9063 26.9572C14.0367 26.9572 15.1485 26.2651 16.1294 25.6545C17.0237 25.0977 17.796 24.6169 19.4246 24.6169C21.0534 24.6169 21.8258 25.0977 22.7201 25.6545C23.7011 26.2651 24.8127 26.9572 26.9433 26.9572C29.0739 26.9572 30.1855 26.2651 31.1665 25.6545C31.883 25.2083 32.5211 24.811 33.5843 24.6707L33.5843 44.8026C29.541 40.0624 23.5269 37.0515 16.8228 37.0515C16.338 37.0515 15.9452 37.4443 15.9452 37.9291C15.9452 44.6337 18.957 50.6473 23.6978 54.6907L5.26584 54.6907L5.26584 52.0577C5.26584 51.5729 4.87301 51.1801 4.3882 51.1801C3.90339 51.1801 3.51056 51.5729 3.51056 52.0577L3.51056 55.5683C3.51056 56.0531 3.90339 56.4459 4.3882 56.4459L26.0547 56.4459C27.0986 57.1202 28.2029 57.7087 29.3575 58.2012L4.3882 58.2012ZM26.5632 12.3299L26.5632 15.8405L12.287 15.8405L12.287 12.3299L26.5632 12.3299ZM39.3242 58.1562C42.7578 50.7348 50.7785 42.7142 58.1999 39.2806C57.5313 49.3835 49.4272 57.4875 39.3242 58.1562Z" fill="#503217"/>
</g>
<defs>
<clipPath id="clip0_1189_64">
<rect width="60" height="60" fill="white"/>
</clipPath>
</defs>
</svg>
