<svg width="60" height="60" viewBox="0 0 60 60" fill="none" xmlns="http://www.w3.org/2000/svg">
<g clip-path="url(#clip0_1189_68)">
<path d="M59.375 34.7006C58.836 33.9011 58.0035 33.3463 57.058 33.1567C56.1126 32.9672 55.1305 33.1581 54.325 33.6881L51.825 35.3631C51.9341 34.7243 51.8382 34.0673 51.551 33.4863C51.2637 32.9053 50.8 32.4302 50.2261 32.129C49.6522 31.8279 48.9977 31.7161 48.3564 31.8098C47.7151 31.9035 47.12 32.1979 46.6562 32.6506L41.225 37.9694C40.7375 37.7256 42.8187 38.5444 26.7687 32.3444C25.6666 31.9172 24.4896 31.717 23.3083 31.7557C22.127 31.7943 20.9656 32.0711 19.8937 32.5694C19.3125 32.8381 19.6312 32.6756 17.25 34.0006C17.0815 33.8146 16.8761 33.6657 16.6469 33.5635C16.4177 33.4613 16.1697 33.4079 15.9187 33.4069L0.625 33.4069C0.45924 33.4069 0.300268 33.4727 0.183058 33.5899C0.0658481 33.7071 2.65251e-08 33.8661 2.86039e-08 34.0319L2.68052e-07 53.1256C2.70131e-07 53.2914 0.0658483 53.4504 0.183059 53.5676C0.300269 53.6848 0.45924 53.7506 0.625 53.7506L17.075 53.7506C17.2408 53.7506 17.3997 53.6848 17.5169 53.5676C17.6342 53.4504 17.7 53.2914 17.7 53.1256L17.7 50.4506C19.1 50.4506 19.6563 50.3569 20.5625 50.6881L31.5437 54.7506C33.7417 55.5672 36.1213 55.7658 38.4242 55.3251C40.7271 54.8843 42.8652 53.821 44.6062 52.2506L58.7937 39.4506C59.4442 38.8602 59.8607 38.0556 59.9674 37.1837C60.0741 36.3117 59.8639 35.4305 59.375 34.7006ZM47.5 33.5444C47.7553 33.2852 48.0822 33.1083 48.4387 33.0363C48.7953 32.9642 49.1652 33.0004 49.5011 33.1401C49.8369 33.2798 50.1234 33.5167 50.3236 33.8204C50.5239 34.1241 50.6288 34.4806 50.625 34.8444C50.625 35.4694 50.3437 35.8069 49.8375 36.6819C42.55 41.5194 43.2562 41.0569 43.25 40.9944C43.1887 40.1489 42.8274 39.3532 42.2312 38.7506L47.5 33.5444ZM15.8812 34.6819C15.9835 34.6838 16.0833 34.7133 16.1702 34.7672C16.2571 34.8211 16.3278 34.8974 16.375 34.9881C16.4875 35.1944 16.45 34.2631 16.45 46.0881L13.95 46.0881L13.95 34.6819L15.8812 34.6819ZM1.25 34.6819L12.6937 34.6819L12.6937 46.0881L7.1125 46.0881C6.07592 46.0898 5.08237 46.5027 4.34998 47.2363C3.6176 47.9698 3.20625 48.964 3.20625 50.0006L3.20625 52.5006L1.25 52.5006L1.25 34.6819ZM4.45625 50.0006C4.4579 49.2966 4.73828 48.622 5.23607 48.1242C5.73386 47.6264 6.40853 47.346 7.1125 47.3444L16.45 47.3444L16.45 52.5006L4.45625 52.5006L4.45625 50.0006ZM57.9562 38.5194L43.75 51.3131C42.1797 52.7315 40.2509 53.6929 38.1729 54.0928C36.095 54.4928 33.9471 54.3161 31.9625 53.5819C18.9937 48.7881 20.7125 49.1506 17.6812 49.2069L17.6812 35.1819C19.9125 33.9319 19.8625 33.9319 20.4125 33.7006C21.3324 33.2827 22.3267 33.053 23.3367 33.025C24.3467 32.9971 25.3521 33.1716 26.2937 33.5381C41.7875 39.5006 40.5625 38.9944 40.9437 39.2569C41.3924 39.5656 41.7224 40.0181 41.8792 40.5397C42.036 41.0612 42.0103 41.6207 41.8062 42.1256C41.5783 42.6858 41.1497 43.1409 40.6043 43.4021C40.0588 43.6633 39.4356 43.7118 38.8562 43.5381L26.55 39.7444C26.3953 39.7077 26.2324 39.7314 26.0945 39.8107C25.9566 39.89 25.8541 40.0188 25.8079 40.1709C25.7617 40.3231 25.7753 40.4872 25.8458 40.6297C25.9163 40.7722 26.0385 40.8825 26.1875 40.9381C39.5375 45.0506 38.8125 44.8881 39.5687 44.8881C40.2636 44.8863 40.9438 44.6882 41.5309 44.3167C42.1181 43.9452 42.5884 43.4153 42.8875 42.7881L55 34.7319C55.5017 34.4354 56.0941 34.3315 56.6668 34.4397C57.2394 34.548 57.7531 34.8608 58.112 35.32C58.4709 35.7791 58.6504 36.3531 58.6172 36.935C58.5839 37.5168 58.3401 38.0666 57.9312 38.4819L57.9562 38.5194Z" fill="#503217"/>
<path d="M38.2933 22.3131C37.4399 23.1661 36.8577 24.2523 36.62 25.4352C36.3822 26.6181 36.4995 27.8449 36.9571 28.9614C37.4147 30.0778 38.1921 31.0341 39.1917 31.7099C40.1913 32.3856 41.3683 32.7508 42.5749 32.7595C43.7814 32.7681 44.9636 32.4199 45.9727 31.7585C46.9819 31.0971 47.773 30.1521 48.2465 29.0424C48.7201 27.9326 48.855 26.7076 48.6342 25.5214C48.4135 24.3352 47.8469 23.2407 47.0058 22.3756C45.0871 20.1194 40.8808 19.7194 38.2933 22.3131ZM45.6246 22.7881C45.6996 22.8506 46.2121 22.2881 38.8371 29.6631C38.104 28.731 37.7364 27.5634 37.8031 26.3795C37.8698 25.1955 38.3663 24.0766 39.1994 23.2328C40.0325 22.3889 41.145 21.8782 42.328 21.7963C43.511 21.7144 44.6832 22.0671 45.6246 22.7881ZM46.0871 30.0819C45.2617 30.911 44.1644 31.4139 42.9974 31.4977C41.8305 31.5816 40.6725 31.2407 39.7371 30.5381L46.5183 23.7506C47.2146 24.6851 47.5516 25.8388 47.4678 27.0011C47.384 28.1634 46.8851 29.2569 46.0621 30.0819L46.0871 30.0819Z" fill="#503217"/>
<path d="M25.7942 27.7005C26.1595 28.0657 26.5931 28.3554 27.0703 28.5531C27.5475 28.7508 28.0589 28.8525 28.5755 28.8525C29.092 28.8525 29.6035 28.7508 30.0807 28.5531C30.5579 28.3554 30.9915 28.0657 31.3567 27.7005C31.722 27.3352 32.0117 26.9016 32.2093 26.4244C32.407 25.9472 32.5088 25.4357 32.5088 24.9192C32.5088 24.4027 32.407 23.8912 32.2093 23.414C32.0117 22.9368 31.722 22.5032 31.3567 22.138L25.9255 16.7067C25.1878 15.9691 24.1874 15.5547 23.1442 15.5547C22.101 15.5547 21.1006 15.9691 20.363 16.7067C19.6253 17.4444 19.2109 18.4448 19.2109 19.488C19.2109 20.5311 19.6253 21.5316 20.363 22.2692L25.7942 27.7005ZM30.4755 23.0255C30.9419 23.5366 31.1932 24.2078 31.1771 24.8995C31.161 25.5913 30.8788 26.2501 30.3891 26.739C29.8995 27.2278 29.2401 27.509 28.5484 27.5239C27.8566 27.5389 27.1858 27.2865 26.6755 26.8192L24.4067 24.5505L28.2005 20.7505L30.4755 23.0255ZM21.2505 17.6005C21.7553 17.0982 22.4384 16.8162 23.1505 16.8162C23.8626 16.8162 24.5457 17.0982 25.0505 17.6005L27.3255 19.8755L23.5317 23.6692L21.2505 21.388C20.749 20.8853 20.4673 20.2043 20.4673 19.4942C20.4673 18.7842 20.749 18.1031 21.2505 17.6005Z" fill="#503217"/>
<path d="M34.999 18.3504C35.0715 18.4625 35.1779 18.5485 35.3028 18.5957C35.4276 18.6429 35.5643 18.649 35.6928 18.6129C35.7615 18.6129 35.349 18.7254 37.6428 17.9879C39.9338 17.2836 41.9072 15.802 43.2228 13.7984C44.5383 11.7949 45.1135 9.39509 44.849 7.0129L44.6178 5.0004C44.6072 4.90914 44.5767 4.82134 44.5283 4.74323C44.4799 4.66513 44.415 4.59864 44.338 4.54852C44.261 4.49839 44.1739 4.46585 44.0829 4.45321C43.9919 4.44057 43.8993 4.44815 43.8115 4.4754L41.874 5.06915C39.5779 5.77677 37.6013 7.26487 36.2865 9.27593C34.9716 11.287 34.4013 13.6944 34.674 16.0816C34.8865 17.9004 34.8865 18.1691 34.999 18.3504ZM42.249 6.2504L43.4615 5.8754L43.6053 7.1254C43.851 9.26921 43.3221 11.4302 42.114 13.2182C40.906 15.0062 39.0984 16.3034 37.0178 16.8754L40.6928 11.3629C40.7838 11.2259 40.8172 11.0584 40.7856 10.897C40.754 10.7355 40.66 10.593 40.524 10.5004C40.4559 10.4543 40.3794 10.4222 40.2989 10.4057C40.2183 10.3893 40.1353 10.3889 40.0546 10.4045C39.9739 10.4202 39.8971 10.4516 39.8286 10.4971C39.7601 10.5425 39.7012 10.6009 39.6553 10.6691L35.9553 16.2504C35.6309 14.1058 36.088 11.9161 37.2433 10.0805C38.3986 8.24483 40.1752 6.88553 42.249 6.2504Z" fill="#503217"/>
</g>
<defs>
<clipPath id="clip0_1189_68">
<rect width="60" height="60" fill="white"/>
</clipPath>
</defs>
</svg>
