<svg width="147" height="234" viewBox="0 0 147 234" fill="none" xmlns="http://www.w3.org/2000/svg">
<g opacity="0.15" clip-path="url(#clip0_1174_1540)">
<path d="M40.7043 191.787C42.2741 190.195 43.5147 188.309 44.3554 186.237C45.1961 184.166 45.6204 181.948 45.604 179.713C45.5876 177.477 45.1308 175.266 44.2597 173.207C43.3887 171.148 42.1205 169.28 40.5275 167.711C40.5275 167.711 -8.32425 119.698 -8.40626 119.636C-11.6658 116.876 -15.8441 115.444 -20.1113 115.622C-24.3784 115.801 -28.4221 117.579 -31.4393 120.601C-34.4565 123.624 -36.2264 127.671 -36.3974 131.939C-36.5684 136.206 -35.1281 140.382 -32.3624 143.636C-32.042 144.04 16.6374 191.991 16.6374 191.991C18.2308 193.558 20.1174 194.796 22.1893 195.634C24.2613 196.472 26.4781 196.894 28.7131 196.875C30.948 196.856 33.1573 196.397 35.2148 195.524C37.2723 194.651 39.1377 193.381 40.7043 191.787ZM-26.7253 124.063C-24.7074 122.323 -22.1367 121.357 -19.4725 121.338C-16.8083 121.32 -14.2241 122.248 -12.1818 123.959L-26.7253 124.063ZM-30.6473 133.851C-30.7884 132.498 -30.6851 131.131 -30.3424 129.814L-6.3295 129.629L-2.2662 133.615L-30.6473 133.851ZM-24.3942 143.587C-25.1184 142.871 -27.7483 140.361 -28.3223 139.554L3.50494 139.312L7.6046 143.316L-24.3942 143.587ZM-14.5598 153.27L-14.5691 153.243L-18.6324 149.257L7.66858 149.041L3.65548 153.113L-14.5598 153.27ZM-8.80723 158.913L-2.01476 158.875L-5.3831 162.272L-8.80723 158.913ZM20.6412 187.891L-1.30119 166.313L14.5721 150.205L36.5144 171.784C37.5721 172.826 38.4141 174.066 38.9924 175.434C39.5707 176.802 39.8739 178.27 39.8848 179.755C39.8957 181.24 39.614 182.712 39.0558 184.088C38.4977 185.464 37.674 186.717 36.6317 187.774C35.5894 188.832 34.3491 189.674 32.9814 190.252C31.6137 190.83 30.1456 191.134 28.6607 191.145C27.1759 191.155 25.7034 190.874 24.3274 190.316C22.9514 189.757 21.6988 188.934 20.6412 187.891Z" fill="#8F7D6A"/>
<path d="M10.753 112.198C11.1476 111.851 57.0358 61.2194 57.0358 61.2194C58.5425 59.562 59.7076 57.6237 60.4642 55.5155C61.2208 53.4073 61.5542 51.1705 61.4452 48.9332C61.3362 46.696 60.787 44.5022 59.8291 42.4775C58.8711 40.4528 57.5232 38.6369 55.8625 37.1339C54.2018 35.6308 52.2609 34.4701 50.151 33.7181C48.0411 32.9662 45.8036 32.6378 43.5666 32.7517C41.3296 32.8657 39.1371 33.4197 37.1145 34.3822C35.0919 35.3446 33.2791 36.6966 31.7797 38.3606C3.66601 69.3899 13.8031 58.2016 -13.4012 88.2345C-16.3468 91.4821 -17.9264 95.7408 -17.8109 100.124C-17.6954 104.507 -15.8939 108.676 -12.7813 111.765C-9.66868 114.853 -5.48494 116.621 -1.10113 116.702C3.28267 116.783 7.52872 115.17 10.753 112.198ZM15.8016 98.2113L14.4916 71.9842L18.7341 75.7876L19.6413 93.9866L15.8016 98.2113ZM25.047 87.9831L24.7198 81.2296L28.2783 84.4517L25.047 87.9831ZM15.3656 65.0292L36.0314 42.1911C37.0293 41.0911 38.2341 40.1985 39.577 39.5641C40.9199 38.9297 42.3746 38.566 43.858 38.4939C45.3414 38.4217 46.8246 38.6424 48.2227 39.1434C49.6208 39.6443 50.9066 40.4158 52.0066 41.4137C53.1066 42.4116 53.9992 43.6164 54.6336 44.9593C55.268 46.3022 55.6317 47.7569 55.7039 49.2403C55.776 50.7237 55.5553 52.2068 55.0544 53.605C54.5534 55.0031 53.7819 56.2889 52.784 57.3889L32.1359 80.1906L15.3656 65.0292ZM4.95657 76.5349L8.78705 72.2832L10.3689 104.224C9.34855 105.346 7.52846 107.397 6.51895 108.331L4.95657 76.5349ZM-9.74853 92.7853L-9.01118 107.413C-10.8472 105.458 -11.9291 102.913 -12.0642 100.234C-12.1992 97.5555 -11.3786 94.9156 -9.74853 92.7853ZM-3.11806 110.739L-4.31587 86.7724L-0.485383 82.5207L0.934973 110.827C-0.410284 111.042 -1.78339 111.013 -3.11806 110.739Z" fill="#8F7D6A"/>
<path d="M98.8152 87.5283C97.711 84.3188 95.6799 81.5088 92.9787 79.4537C90.2776 77.3985 87.0276 76.1905 83.6399 75.9824C80.2521 75.7743 76.8788 76.5754 73.9463 78.2845C71.0139 79.9936 68.6541 82.5339 67.1654 85.5841C65.6767 88.6343 65.126 92.0575 65.5828 95.4207C66.0396 98.784 67.4835 101.936 69.7318 104.479C71.9801 107.022 74.932 108.84 78.214 109.705C81.4961 110.57 84.9609 110.443 88.1704 109.339C92.4742 107.858 96.0136 104.728 98.0099 100.638C100.006 96.5479 100.296 91.8321 98.8152 87.5283ZM76.2822 83.5748L83.4839 104.508C80.9606 104.7 78.4451 104.049 76.331 102.658C74.2169 101.268 72.6236 99.2151 71.8004 96.8222C70.9771 94.4293 70.9705 91.831 71.7814 89.434C72.5924 87.0369 74.1752 84.9763 76.2822 83.5748ZM81.6914 81.7139C84.2146 81.5225 86.7302 82.1731 88.8443 83.5638C90.9584 84.9546 92.5517 87.007 93.3749 89.3999C94.1982 91.7928 94.2048 94.3911 93.3938 96.7882C92.5829 99.1853 91.0001 101.246 88.8931 102.647L81.6914 81.7139Z" fill="#8F7D6A"/>
<path d="M55.8294 136.314C57.3204 133.264 57.8732 129.84 57.4178 126.475C56.9624 123.111 55.5194 119.957 53.2712 117.413C51.0231 114.869 48.0709 113.049 44.7881 112.183C41.5053 111.318 38.0395 111.445 34.8291 112.55C31.6187 113.654 28.8081 115.686 26.7528 118.388C24.6975 121.09 23.4899 124.341 23.2828 127.73C23.0757 131.119 23.8784 134.493 25.5893 137.425C27.3002 140.358 29.8425 142.717 32.8945 144.204C34.9176 145.197 37.1169 145.78 39.366 145.92C41.6151 146.061 43.8699 145.756 46.0008 145.023C48.1317 144.289 50.0969 143.143 51.7836 141.648C53.4702 140.154 54.8451 138.341 55.8294 136.314ZM51.514 131.507L31.4485 121.714C33.0719 119.683 35.3384 118.266 37.8747 117.696C40.411 117.126 43.0659 117.437 45.4021 118.577C47.7384 119.717 49.6166 121.619 50.7275 123.969C51.8385 126.319 52.1158 128.978 51.514 131.507ZM35.396 139.079C33.1856 138.002 31.3822 136.24 30.2545 134.056C29.1269 131.871 28.7352 129.38 29.138 126.955L48.8037 136.553C47.139 138.362 44.9346 139.585 42.5188 140.04C40.1029 140.495 37.6047 140.158 35.396 139.079Z" fill="#8F7D6A"/>
<path d="M94.7981 144.08C96.2891 141.03 96.8419 137.606 96.3865 134.242C95.9312 130.878 94.4881 127.724 92.24 125.18C89.9918 122.636 87.0396 120.816 83.7568 119.95C80.474 119.084 77.0082 119.212 73.7979 120.316C70.5875 121.421 67.7769 123.452 65.7216 126.155C63.6663 128.857 62.4587 132.108 62.2516 135.497C62.0445 138.886 62.8471 142.26 64.5581 145.192C66.269 148.124 68.8112 150.483 71.8632 151.971C73.8864 152.963 76.0856 153.546 78.3347 153.687C80.5839 153.827 82.8386 153.522 84.9695 152.789C87.1005 152.056 89.0657 150.909 90.7523 149.415C92.439 147.92 93.8139 146.107 94.7981 144.08ZM81.6751 125.365L71.9706 145.249C70.0576 143.599 68.7446 141.362 68.2366 138.887C67.7285 136.412 68.0539 133.839 69.162 131.568C70.2702 129.298 72.0987 127.458 74.3622 126.336C76.6258 125.214 79.1971 124.873 81.6751 125.365ZM77.096 147.751L86.8005 127.867C88.7135 129.517 90.0264 131.754 90.5345 134.229C91.0425 136.704 90.7171 139.277 89.609 141.548C88.5009 143.818 86.6724 145.658 84.4088 146.78C82.1452 147.902 79.5739 148.243 77.096 147.751Z" fill="#8F7D6A"/>
</g>
<defs>
<clipPath id="clip0_1174_1540">
<rect width="183.051" height="183.051" fill="white" transform="translate(87.1289 0.807617) rotate(71.0153)"/>
</clipPath>
</defs>
</svg>
