<svg width="154" height="41" viewBox="0 0 154 41" fill="none" xmlns="http://www.w3.org/2000/svg">
<g clip-path="url(#clip0_1174_1549)">
<path d="M6.80851 29.0139C6.80851 33.4017 1.51116e-06 33.4017 1.26434e-06 29.0139L4.12689e-08 4.16288C-2.05556e-07 -0.224866 6.80851 -0.224866 6.80851 4.16288L6.80851 29.0139Z" fill="#503217"/>
<path d="M17.8729 37.0959C17.8729 41.4837 11.0645 41.4837 11.0645 37.0959L11.0645 12.2449C11.0645 7.85717 17.8729 7.85717 17.8729 12.2449L17.8729 37.0959Z" fill="#503217"/>
<path d="M28.9374 29.0139C28.9374 33.4017 22.1289 33.4017 22.1289 29.0139L22.1289 4.16288C22.1289 -0.224866 28.9374 -0.224866 28.9374 4.16288L28.9374 29.0139Z" fill="#503217"/>
<path d="M39.9999 37.0958C39.9999 41.4835 33.1914 41.4835 33.1914 37.0958L33.1914 13.0447C33.1914 8.65697 39.9999 8.65697 39.9999 13.0447L39.9999 37.0958Z" fill="#503217"/>
<mask id="mask0_1174_1549" style="mask-type:luminance" maskUnits="userSpaceOnUse" x="52" y="0" width="102" height="41">
<path d="M153.6 0.499999L52 0.5L52 40.5L153.6 40.5L153.6 0.499999Z" fill="white"/>
</mask>
<g mask="url(#mask0_1174_1549)">
<path d="M64.2328 26.2149L64.2328 29.6997L52.168 29.6997L52.168 11.2197L64.2328 11.2197L64.2328 14.7045L56.26 14.7045L56.26 18.7965L63.1768 18.7965L63.1768 22.1229L56.26 22.1229L56.26 26.2149L64.2328 26.2149ZM71.2622 29.6997L67.2758 29.6997L67.2758 15.9453L70.6286 15.9453L70.9454 17.8197C72.239 16.4205 73.7702 15.7077 75.6446 15.7077C77.3342 15.7077 78.4694 16.2093 79.1822 17.1597C79.3934 17.4237 79.5518 17.6877 79.6838 18.0045C81.0304 16.4469 82.5616 15.7077 84.4624 15.7077C86.2048 15.7077 87.3664 16.2093 88.0792 17.1597C88.8184 18.1365 89.0296 19.2717 89.0296 22.0701L89.0296 29.6997L85.0696 29.6997L85.0696 22.9677C85.0696 21.3837 84.964 20.6973 84.5416 20.1429C84.0928 19.6149 83.4856 19.4037 82.5352 19.4037C81.664 19.4037 80.8984 19.6677 80.1064 20.3277C80.1592 20.8293 80.1592 21.3837 80.1592 22.0701L80.1592 29.6997L76.1726 29.6997L76.1726 22.9677C76.1726 21.3837 76.0934 20.6973 75.6446 20.1429C75.2222 19.6149 74.615 19.4037 73.7174 19.4037C72.7406 19.4037 71.843 19.7469 71.2622 20.3541L71.2622 29.6997ZM98.7976 29.9109C97.768 29.9109 96.6592 29.7261 95.6032 29.3301L92.5672 29.6997L92.5672 9.63574L96.5536 9.63574L96.5536 17.7405C97.5304 16.3941 98.8504 15.6813 100.646 15.6813C103.708 15.6813 105.767 17.9781 105.767 22.2813C105.767 27.1917 102.969 29.9109 98.7976 29.9109ZM96.5536 21.0141L96.5536 26.3469C97.1608 26.6109 97.7416 26.7165 98.3488 26.7165C100.276 26.7165 101.622 25.4493 101.622 22.6773C101.622 20.3541 100.619 19.2189 99.1672 19.2189C98.0056 19.2189 97.1608 19.8525 96.5536 21.0141ZM112.28 29.6997L108.294 29.6997L108.294 9.63574L112.28 9.63574L112.28 29.6997ZM122.342 29.9109C117.326 29.9109 114.818 27.5877 114.818 22.7829C114.818 18.1893 117.934 15.6813 121.498 15.6813C125.273 15.6813 127.094 17.9517 127.094 21.9117C127.094 22.6509 127.042 23.3109 126.989 23.9709L118.884 23.9709C119.28 26.0301 120.679 26.7429 123.24 26.7429C124.296 26.7429 125.378 26.6373 126.302 26.5053L126.118 29.6469C125.167 29.8053 123.874 29.9109 122.342 29.9109ZM121.392 18.6381C120.019 18.6381 119.016 19.6149 118.805 21.8061L123.319 21.5685C123.319 19.5621 122.712 18.6381 121.392 18.6381ZM133.756 29.6997L129.77 29.6997L129.77 15.9453L133.122 15.9453L133.439 17.8197C134.733 16.4205 136.264 15.7077 138.138 15.7077C139.828 15.7077 140.963 16.2093 141.676 17.1597C141.887 17.4237 142.046 17.6877 142.178 18.0045C143.524 16.4469 145.055 15.7077 146.956 15.7077C148.698 15.7077 149.86 16.2093 150.573 17.1597C151.312 18.1365 151.523 19.2717 151.523 22.0701L151.523 29.6997L147.563 29.6997L147.563 22.9677C147.563 21.3837 147.458 20.6973 147.035 20.1429C146.586 19.6149 145.979 19.4037 145.029 19.4037C144.158 19.4037 143.392 19.6677 142.6 20.3277C142.653 20.8293 142.653 21.3837 142.653 22.0701L142.653 29.6997L138.666 29.6997L138.666 22.9677C138.666 21.3837 138.587 20.6973 138.138 20.1429C137.716 19.6149 137.109 19.4037 136.211 19.4037C135.234 19.4037 134.337 19.7469 133.756 20.3541L133.756 29.6997Z" fill="#503217"/>
</g>
</g>
<defs>
<clipPath id="clip0_1174_1549">
<rect width="153.6" height="40" fill="white" transform="translate(0 0.5)"/>
</clipPath>
</defs>
</svg>
