<svg width="160" height="41" viewBox="0 0 160 41" fill="none" xmlns="http://www.w3.org/2000/svg">
<g clip-path="url(#clip0_1174_1564)">
<path d="M40.0919 10.1501C40.5929 8.18459 39.4057 6.18504 37.4402 5.68402C35.4746 5.183 33.4751 6.37023 32.974 8.33577C32.4731 10.3013 33.6603 12.3009 35.6258 12.8018C37.5913 13.3029 39.5909 12.1157 40.0919 10.1501Z" fill="#503217"/>
<path d="M27.7578 6.85663C31.1519 2.62139 25.201 -1.63549 22.0911 2.24423C21.9166 2.41912 1.75016 27.2724 1.61368 27.4794C-1.96978 31.9506 3.73105 36.5198 7.28038 32.0918C7.45471 31.9168 27.6213 7.06347 27.7578 6.85663Z" fill="#503217"/>
<path d="M32.2006 20.3892C35.4578 16.3251 29.7571 11.756 26.5355 15.7753C26.3595 15.9513 12.6602 32.895 12.5226 33.1037C9.24394 37.35 14.9446 41.9189 18.1876 37.7176C18.3636 37.5416 32.0632 20.5979 32.2006 20.3892Z" fill="#503217"/>
<path d="M7.04414 12.6716C8.93987 11.9503 9.89195 9.82882 9.17067 7.93303C8.44939 6.03727 6.32782 5.08518 4.43206 5.80649C2.53629 6.5278 1.58421 8.64938 2.30551 10.5451C3.02682 12.4409 5.14838 13.393 7.04414 12.6716Z" fill="#503217"/>
<mask id="mask0_1174_1564" style="mask-type:luminance" maskUnits="userSpaceOnUse" x="52" y="0" width="108" height="41">
<path d="M159.399 0.499999L52.1992 0.5L52.1992 40.5L159.399 40.5L159.399 0.499999Z" fill="white"/>
</mask>
<g mask="url(#mask0_1174_1564)">
<path d="M57.7165 29.9802L52.2637 11.6506L54.1837 11.6506L57.8957 24.2458C58.1517 25.1418 58.3821 26.0634 58.6125 27.2666C58.9197 25.9354 59.1757 25.1418 59.4573 24.2458L63.4509 11.6506L65.3709 11.6506L69.3645 24.2458C69.6461 25.1674 69.9021 26.089 70.1837 27.2666C70.4653 25.8586 70.6957 24.9626 70.9005 24.2714L74.6893 11.6506L76.5581 11.6506L71.0541 29.9802L69.3133 29.9802L64.3981 14.4154L59.4829 29.9802L57.7165 29.9802ZM77.3819 29.9802L75.5131 29.9802L82.2456 11.6506L84.524 11.6506L91.3336 29.9802L89.4136 29.9802L87.6216 25.1162L79.1739 25.1162L77.3819 29.9802ZM83.1416 14.2362L79.7371 23.5034L87.0328 23.5034L83.6024 14.2362C83.5256 13.9802 83.3976 13.673 83.372 13.4938C83.3464 13.6474 83.244 13.9802 83.1416 14.2362ZM96.3816 22.3258L90.1608 11.6506L92.2344 11.6506L96.7656 19.561C96.9704 19.945 97.124 20.2522 97.3032 20.6618C97.5336 20.201 97.5336 20.201 97.8664 19.561L102.346 11.6506L104.369 11.6506L98.2248 22.3258L98.2248 29.9802L96.3816 29.9802L96.3816 22.3258ZM109.98 11.2666L109.98 26.9594L117.814 26.9594L117.814 29.9802L106.703 29.9802L106.703 11.2666L109.98 11.2666ZM123.755 11.2666L123.755 29.9802L120.478 29.9802L120.478 11.2666L123.755 11.2666ZM131.129 29.9802L127.903 29.9802L127.903 11.2666L131.154 11.2666L139.935 24.5274L139.935 11.2666L143.161 11.2666L143.161 29.9802L139.935 29.9802L131.129 16.7194L131.129 29.9802ZM158.926 29.9802L147.303 29.9802L147.303 11.2666L158.926 11.2666L158.926 14.2874L150.58 14.2874L150.58 19.1002L158.055 19.1002L158.055 21.993L150.58 21.993L150.58 26.9594L158.926 26.9594L158.926 29.9802Z" fill="#503217"/>
</g>
</g>
<defs>
<clipPath id="clip0_1174_1564">
<rect width="159.2" height="40" fill="white" transform="translate(0.199219 0.5)"/>
</clipPath>
</defs>
</svg>
