<svg width="147" height="41" viewBox="0 0 147 41" fill="none" xmlns="http://www.w3.org/2000/svg">
<g clip-path="url(#clip0_1174_1559)">
<path d="M23.4004 40.3513C45.6897 37.1671 45.6902 3.88251 23.4004 0.698242C36.7971 10.3137 36.7609 30.7317 23.4004 40.3513Z" fill="#503217"/>
<path d="M14.5781 39.5587C15.966 40.0048 17.3538 40.3022 18.8408 40.4014C30.3598 29.8334 30.3672 11.1656 18.8408 0.599609C17.3538 0.748308 15.9164 1.04571 14.5781 1.44224C24.2552 12.066 24.252 28.9385 14.5781 39.5587Z" fill="#503217"/>
<path d="M9.42177 37.08C18.8168 28.2128 18.906 12.8146 9.42177 3.96973C-2.15378 11.6868 -2.15865 29.3597 9.42177 37.08Z" fill="#503217"/>
<path d="M62.544 14.0897C58.948 14.0897 56.8896 16.6937 56.8896 20.6121C56.8896 24.6545 59.2208 26.8617 62.5688 26.8617C65.7184 26.8617 67.628 25.1257 67.628 22.2241L67.628 22.1497L62.1472 22.1497L62.1472 19.3473L70.5792 19.3473L70.5792 29.5401L67.9008 29.5401L67.7024 27.4569C66.7104 28.8457 64.652 29.8129 62.1968 29.8129C57.1128 29.8129 53.5664 26.1177 53.5664 20.5377C53.5664 15.0321 57.1624 11.1137 62.6184 11.1137C66.76 11.1137 69.9592 13.5193 70.48 17.2145L67.132 17.2145C66.5616 15.0817 64.7264 14.0897 62.544 14.0897ZM81.2488 17.2393L81.2488 20.0417L80.1328 20.0417C77.9504 20.0417 76.5864 21.2073 76.5864 23.5881L76.5864 29.5401L73.5608 29.5401L73.5608 17.3137L76.4128 17.3137L76.5864 19.0993C77.1072 17.8841 78.2728 17.0657 79.9096 17.0657C80.3312 17.0657 80.7528 17.1153 81.2488 17.2393ZM86.4576 29.8625C83.8536 29.8625 82.2664 28.3497 82.2664 26.0433C82.2664 23.7865 83.9032 22.3729 86.8048 22.1497L90.4752 21.8769L90.4752 21.6041C90.4752 19.9425 89.4832 19.2729 87.9456 19.2729C86.16 19.2729 85.168 20.0169 85.168 21.3065L82.5888 21.3065C82.5888 18.6529 84.7712 16.9169 88.0944 16.9169C91.3928 16.9169 93.4264 18.7025 93.4264 22.1001L93.4264 29.5401L90.7728 29.5401L90.5496 27.7297C90.0288 28.9945 88.3672 29.8625 86.4576 29.8625ZM87.4496 27.5809C89.3096 27.5809 90.5 26.4649 90.5 24.5801L90.5 23.9353L87.9456 24.1337C86.0608 24.3073 85.3416 24.9273 85.3416 25.9193C85.3416 27.0353 86.0856 27.5809 87.4496 27.5809ZM96.3992 35.2193L96.3992 17.2889L99.2016 17.2889L99.4 19.1489C100.144 17.7353 101.756 16.9169 103.616 16.9169C107.063 16.9169 109.345 19.4217 109.345 23.2657C109.345 27.0849 107.262 29.8625 103.616 29.8625C101.781 29.8625 100.194 29.1433 99.4248 27.9033L99.4248 35.2193L96.3992 35.2193ZM99.4496 23.4145C99.4496 25.6217 100.814 27.1345 102.897 27.1345C105.03 27.1345 106.294 25.5969 106.294 23.4145C106.294 21.2321 105.03 19.6697 102.897 19.6697C100.814 19.6697 99.4496 21.2073 99.4496 23.4145ZM114.779 29.5401L111.754 29.5401L111.754 11.0889L114.804 11.0889L114.804 18.8761C115.573 17.6857 117.011 16.9169 118.772 16.9169C121.798 16.9169 123.385 18.8265 123.385 22.0009L123.385 29.5401L120.359 29.5401L120.359 22.7201C120.359 20.6617 119.342 19.6697 117.805 19.6697C115.895 19.6697 114.779 21.0089 114.779 22.8441L114.779 29.5401ZM125.638 23.3897C125.638 19.5705 128.391 16.9417 132.186 16.9417C135.98 16.9417 138.733 19.5705 138.733 23.3897C138.733 27.2089 135.98 29.8377 132.186 29.8377C128.391 29.8377 125.638 27.2089 125.638 23.3897ZM128.664 23.3897C128.664 25.6217 130.102 27.1345 132.186 27.1345C134.269 27.1345 135.707 25.6217 135.707 23.3897C135.707 21.1577 134.269 19.6449 132.186 19.6449C130.102 19.6449 128.664 21.1577 128.664 23.3897Z" fill="#503217"/>
</g>
<defs>
<clipPath id="clip0_1174_1559">
<rect width="145.6" height="40" fill="white" transform="translate(0.599609 0.5)"/>
</clipPath>
</defs>
</svg>
