<svg width="129" height="41" viewBox="0 0 129 41" fill="none" xmlns="http://www.w3.org/2000/svg">
<g clip-path="url(#clip0_1174_1574)">
<path d="M27.0763 11.9592C34.0939 12.0077 39.8728 17.8782 39.7759 24.8635C39.6843 31.8219 33.927 37.5147 26.9739 37.5308C19.994 37.547 14.1667 31.6711 14.2151 24.675C14.2635 17.6089 20.0263 11.9162 27.0763 11.9592ZM36.7168 24.7558C36.7275 19.327 32.3328 14.9214 26.9309 14.9429C21.6313 14.9645 17.2688 19.3431 17.215 24.6965C17.1557 29.9799 21.5828 34.4555 26.8716 34.4717C32.3597 34.4932 36.706 30.2062 36.7168 24.7558Z" fill="#503217"/>
<path d="M18.9117 39.5881C11.6409 38.0208 6.03436 30.6423 5.80816 22.8599C5.57119 14.7974 11.0646 7.34892 18.8686 5.14076C26.0155 3.12111 34.7297 6.04019 37.7888 11.5875C29.6369 4.0009 16.7505 5.08229 10.7308 14.749C6.23363 21.9713 7.37003 33.8361 18.9117 39.5881Z" fill="#503217"/>
<path d="M15.9463 40.5C7.65771 38.7134 1.26628 30.3019 1.00841 21.4301C0.738266 12.239 7.00076 3.74775 15.8972 1.23047C24.0446 -1.07193 33.9786 2.25579 37.466 8.57968C28.173 -0.0689747 13.4825 1.1638 6.6201 12.1837C1.49345 20.417 2.78893 33.9428 15.9463 40.5Z" fill="#503217"/>
<path d="M37.4918 14.4146C29.3701 7.20845 19.5303 10.2353 15.3349 16.0788C12.6097 19.8811 11.8179 24.0658 12.9974 28.5522C14.1607 32.9631 17.0475 36.033 21.4908 38.2412C15.4587 37.1855 10.6008 31.2074 10.0353 24.6637C9.45895 17.9369 13.8322 11.3178 20.3597 9.04496C26.6449 6.85299 34.0126 9.1312 37.4918 14.4146Z" fill="#503217"/>
<path d="M26.9952 29.6193C29.6871 29.6193 31.8693 27.4371 31.8693 24.7452C31.8693 22.0533 29.6871 19.8711 26.9952 19.8711C24.3033 19.8711 22.1211 22.0533 22.1211 24.7452C22.1211 27.4371 24.3033 29.6193 26.9952 29.6193Z" fill="#503217"/>
<mask id="mask0_1174_1574" style="mask-type:luminance" maskUnits="userSpaceOnUse" x="52" y="0" width="77" height="41">
<path d="M128.4 0.499999L52.4004 0.5L52.4004 40.5L128.4 40.5L128.4 0.499999Z" fill="white"/>
</mask>
<g mask="url(#mask0_1174_1574)">
<path d="M60.175 29.892C54.9254 29.892 52.6406 27.4712 52.6406 23.9624L52.6406 23.5L55.5238 23.5L55.5238 23.7992C55.5238 26.0568 56.4758 27.1992 60.2838 27.1992C62.9766 27.1992 63.9558 26.4648 63.9558 24.7784C63.9558 23.1192 63.4118 22.5208 60.6102 21.9496L57.5094 21.324C54.3814 20.7256 52.695 19.2024 52.695 16.3192C52.695 13.6264 54.7894 11.124 59.495 11.124C64.527 11.124 66.5398 13.9528 66.5398 17.1896L66.5398 17.516L63.6566 17.516L63.6566 17.2168C63.6566 14.9864 62.6774 13.8168 59.4134 13.8168C56.7206 13.8168 55.6326 14.5784 55.6326 16.1832C55.6326 17.8424 56.367 18.3048 58.8694 18.8488L61.9702 19.5016C65.3974 20.2088 66.8934 21.9224 66.8934 24.6696C66.8934 27.5256 64.8262 29.892 60.175 29.892ZM71.885 14.388L68.9746 14.388L68.9474 11.396L71.885 11.396L71.885 14.388ZM71.9122 29.62L68.9746 29.62L68.9746 16.02L71.9122 16.02L71.9122 29.62ZM79.7265 28.3416C76.0001 28.3416 73.9329 25.8936 73.9329 22.0856C73.9329 18.2776 76.0273 15.8296 79.8353 15.8296C82.0113 15.8296 83.6977 16.7544 84.3505 18.332L84.4593 18.332L84.4593 16.1016L87.1521 16.1016L87.1521 28.6408C87.1521 32.6392 84.8129 34.516 80.8689 34.516C77.0337 34.516 74.6401 32.6936 74.6401 29.4296L77.5505 29.4296C77.5505 31.2792 78.2305 31.9048 80.9505 31.9048C83.5889 31.9048 84.2417 31.1432 84.2417 28.6408L84.2417 25.948L84.1329 25.948C83.5073 27.2536 81.9297 28.3416 79.7265 28.3416ZM76.8705 22.0856C76.8705 24.86 78.0129 25.8392 80.5697 25.8392C82.7729 25.8392 84.2417 24.7784 84.2417 22.4936L84.2417 21.6504C84.2417 19.3928 82.7729 18.332 80.5153 18.332C77.9857 18.332 76.8705 19.3112 76.8705 22.0856ZM92.9801 29.62L90.0425 29.62L90.0425 16.1016L92.7353 16.1016L92.7353 18.6312L92.8441 18.6312C93.4697 17.1896 94.9113 15.8296 97.5497 15.8296C101.059 15.8296 102.636 18.06 102.636 21.1336L102.636 29.62L99.6985 29.62L99.6985 21.7864C99.6985 19.3656 98.9369 18.3592 96.4617 18.3592C94.0681 18.3592 92.9801 19.284 92.9801 21.8136L92.9801 29.62ZM111.407 29.892C106.946 29.892 104.851 27.0632 104.851 22.8472C104.851 18.6584 107.354 15.8296 111.379 15.8296C115.024 15.8296 117.581 18.0056 117.581 21.7048C117.581 22.412 117.499 23.1464 117.418 23.5544L107.599 23.5544C107.707 26.0296 108.605 27.2808 111.434 27.2808C113.691 27.2808 114.562 26.5192 114.562 25.2952L114.562 25.0776L117.472 25.0776L117.472 25.3224C117.472 28.0968 115.051 29.892 111.407 29.892ZM111.325 18.3048C108.768 18.3048 107.789 19.5016 107.626 21.596L114.779 21.596C114.888 19.284 113.637 18.3048 111.325 18.3048ZM125.451 29.62C122.431 29.62 120.854 28.5048 120.854 25.4584L120.854 18.5496L118.596 18.5496L118.596 16.1016L120.908 16.1016L121.534 12.756L123.791 12.756L123.791 16.1016L127.871 16.1016L127.871 18.5496L123.791 18.5496L123.791 25.3224C123.791 26.7368 124.39 26.9816 126.212 26.9816L127.871 26.9816L127.871 29.3752C127.3 29.5112 126.375 29.62 125.451 29.62Z" fill="#503217"/>
</g>
</g>
<defs>
<clipPath id="clip0_1174_1574">
<rect width="128" height="40" fill="white" transform="translate(0.400391 0.5)"/>
</clipPath>
</defs>
</svg>
