<svg width="156" height="41" viewBox="0 0 156 41" fill="none" xmlns="http://www.w3.org/2000/svg">
<g clip-path="url(#clip0_1174_1593)">
<path fill-rule="evenodd" clip-rule="evenodd" d="M20.7931 39.3474C29.1069 39.3474 36.4794 33.8572 38.8323 25.8572C32.2891 26.9477 25.2344 24.2372 20.7931 19.4258C16.3518 24.2372 9.29718 26.9477 2.75391 25.8572C5.26371 34.014 12.4794 39.3474 20.7931 39.3474Z" fill="#503217"/>
<path fill-rule="evenodd" clip-rule="evenodd" d="M39.6157 21.9353C39.6157 13.1416 34.9391 5.07662 26.1255 2.48437C26.9349 7.341 25.5394 12.6377 22.9883 16.7589C27.2055 21.177 33.6248 23.4331 39.6157 21.9353Z" fill="#503217"/>
<path fill-rule="evenodd" clip-rule="evenodd" d="M18.4394 16.602C15.8249 12.5798 14.5034 7.27645 15.3021 2.48437C6.55978 5.10707 1.96875 13.216 1.96875 21.9353C7.93214 23.4262 14.4191 21.2253 18.4394 16.602Z" fill="#503217"/>
<path fill-rule="evenodd" clip-rule="evenodd" d="M20.7926 13.308C22.0474 10.9551 22.6749 8.28843 22.6749 5.4649C22.6749 4.21 22.518 2.9551 22.2043 1.7002C21.7337 1.7002 21.2631 1.7002 20.7926 1.7002C20.3219 1.7002 19.8514 1.7002 19.3808 1.7002C19.067 2.9551 18.9102 4.21 18.9102 5.4649C18.9102 8.28843 19.6945 10.9551 20.7926 13.308Z" fill="#503217"/>
<mask id="mask0_1174_1593" style="mask-type:luminance" maskUnits="userSpaceOnUse" x="52" y="0" width="104" height="41">
<path d="M155.6 0.499999L52.4004 0.5L52.4004 40.5L155.6 40.5L155.6 0.499999Z" fill="white"/>
</mask>
<g mask="url(#mask0_1174_1593)">
<path d="M63.232 24.6304C63.232 23.7328 62.176 23.4424 60.6184 23.0464L58.3744 22.492C55.312 21.7264 52.5664 20.6176 52.5664 16.9216C52.5664 13.1992 55.8136 11.14 59.7208 11.14C63.1792 11.14 65.3704 12.1168 66.5584 12.8032L66.5584 17.5816C64.7896 16.4728 61.8856 15.4432 59.5624 15.4432C58.1896 15.4432 57.3712 15.7864 57.3712 16.5784C57.3712 17.5024 58.4536 17.7928 60.2488 18.268L62.2024 18.796C64.948 19.5352 67.852 20.5384 67.852 24.34C67.852 27.9304 64.7104 29.884 60.5128 29.884C57.2128 29.884 54.5464 28.828 53.332 27.9568L53.332 23.3368C55.1272 24.6568 58.4008 25.7392 60.8032 25.7392C62.6512 25.7392 63.232 25.3432 63.232 24.6304ZM72.0974 14.3344C70.355 14.3344 69.299 13.5424 69.299 12.196C69.299 10.8496 70.355 10.084 72.0974 10.084C73.8662 10.084 74.8694 10.8496 74.8694 12.196C74.8694 13.5424 73.8662 14.3344 72.0974 14.3344ZM69.959 15.628L74.183 15.628L74.183 29.62L69.959 29.62L69.959 15.628ZM90.1152 26.584C90.1152 32.1016 86.7096 34.0552 82.776 34.0552C80.5584 34.0552 78.6574 33.4216 77.4958 32.7088L77.4958 28.4584C78.7894 29.4352 80.5056 30.0952 82.3008 30.0952C85.0992 30.0952 85.8912 28.8808 85.8912 27.244L85.8912 27.0856C84.9936 27.6664 83.832 28.1152 82.3008 28.1152C79.0006 28.1152 76.4662 25.8976 76.4662 22.36C76.4662 17.476 80.3998 15.364 84.2016 15.364C86.8416 15.364 88.716 16.0504 90.1152 16.6048L90.1152 26.584ZM80.8488 21.7792C80.8488 23.7064 82.1424 24.3136 83.5416 24.3136C84.36 24.3136 85.2048 24.1024 85.8912 23.8384L85.8912 19.3768C85.3896 19.2448 84.8088 19.1392 84.1752 19.1392C82.38 19.1392 80.8488 19.9312 80.8488 21.7792ZM99.7968 19.456C98.7144 19.456 97.6848 19.6936 96.9192 20.0104L96.9192 29.62L92.6952 29.62L92.6952 15.628L96.6552 15.628L96.6552 17.2912C97.764 16.288 99.5592 15.364 101.724 15.364C105.182 15.364 106.423 17.5816 106.423 20.644L106.423 29.62L102.199 29.62L102.199 21.7792C102.199 20.4328 101.592 19.456 99.7968 19.456ZM115.536 25.792C116.618 25.792 117.648 25.5544 118.414 25.2376L118.414 15.628L122.638 15.628L122.638 29.62L118.678 29.62L118.678 27.9568C117.569 28.96 115.774 29.884 113.609 29.884C110.15 29.884 108.91 27.6664 108.91 24.604L108.91 15.628L113.134 15.628L113.134 23.4688C113.134 24.8152 113.741 25.792 115.536 25.792ZM132.12 19.456C131.143 19.456 130.219 19.72 129.506 20.0104L129.506 29.62L125.282 29.62L125.282 15.628L129.242 15.628L129.242 17.2912C130.325 16.288 131.988 15.364 134.047 15.364C136.08 15.364 137.294 16.2088 137.928 17.5816C138.958 16.4728 140.779 15.364 143.023 15.364C146.297 15.364 147.458 17.5816 147.458 20.644L147.458 29.62L143.234 29.62L143.234 21.7792C143.234 20.4064 142.706 19.456 141.096 19.456C140.119 19.456 139.169 19.72 138.456 20.0104C138.482 20.2216 138.482 20.4328 138.482 20.644L138.482 29.62L134.258 29.62L134.258 21.7792C134.258 20.4064 133.73 19.456 132.12 19.456ZM152.224 30.016C150.772 30.016 149.61 28.8544 149.61 27.4024C149.61 25.9504 150.772 24.7624 152.224 24.7624C153.676 24.7624 154.864 25.9504 154.864 27.4024C154.864 28.8544 153.676 30.016 152.224 30.016Z" fill="#503217"/>
</g>
</g>
<defs>
<clipPath id="clip0_1174_1593">
<rect width="155.2" height="40" fill="white" transform="translate(0.400391 0.5)"/>
</clipPath>
</defs>
</svg>
