<svg width="161" height="41" viewBox="0 0 161 41" fill="none" xmlns="http://www.w3.org/2000/svg">
<g clip-path="url(#clip0_1174_1585)">
<path d="M11.8583 26.8862C7.61588 26.8862 0.990235 27.4954 0.990234 21.3765C0.990234 18.2641 3.25417 15.5645 6.49988 15.5645C17.087 15.5645 25.6648 24.1422 25.6648 34.7293C25.6648 37.7665 23.2286 40.3254 20.1551 40.3254C14.1295 40.3254 14.6455 33.9002 14.6455 29.695C14.6455 28.1394 13.3923 26.8862 11.8583 26.8862Z" fill="#503217"/>
<path d="M26.7885 11.9559C26.7885 7.71354 27.3978 1.08789 21.279 1.08789C18.1665 1.08789 15.4668 3.35183 15.4668 6.59753C15.4668 17.1847 24.0445 25.7625 34.6317 25.7625L34.7181 25.7625C37.7646 25.7625 40.2277 23.2993 40.2277 20.2528C40.2277 14.2271 33.8026 14.7432 29.5974 14.7432C28.0417 14.7432 26.7885 13.49 26.7885 11.9559Z" fill="#503217"/>
<mask id="mask0_1174_1585" style="mask-type:luminance" maskUnits="userSpaceOnUse" x="52" y="1" width="109" height="40">
<path d="M160.401 1.28418L52.166 1.28418L52.166 40.4999L160.401 40.4999L160.401 1.28418Z" fill="white"/>
</mask>
<g mask="url(#mask0_1174_1585)">
<path d="M58.6052 23.8303L55.8578 23.8303L55.8578 29.5198L52.1621 29.5198L52.1621 12.0625L58.6052 12.0625C62.8601 12.0625 65.5103 14.0805 65.5103 17.8735C65.5103 21.6664 62.8601 23.8303 58.6052 23.8303ZM58.5809 15.1747L55.8578 15.1747L55.8578 20.7182L58.5809 20.7182C60.6719 20.7182 61.839 19.6241 61.839 17.8978C61.839 16.1715 60.6719 15.1747 58.5809 15.1747ZM71.7187 29.5198L68.0231 29.5198L68.0231 12.0625L74.8552 12.0625C79.2561 12.0625 81.809 14.1049 81.809 17.7276C81.809 20.086 80.3502 21.9582 77.8701 22.7849L82.3682 29.5198L77.9674 29.5198L74.0285 23.3441L71.7187 23.3441L71.7187 29.5198ZM71.7187 15.126L71.7187 20.3049L74.685 20.3049C76.9219 20.3049 78.1132 19.4296 78.1132 17.7276C78.1132 16.0013 76.9219 15.126 74.685 15.126L71.7187 15.126ZM96.4114 26.3103L96.4114 29.5198L84.6678 29.5198L84.6678 12.0625L96.2412 12.0625L96.2412 15.2719L88.3635 15.2719L88.3635 18.9433L95.5118 18.9433L95.5118 22.1284L88.3635 22.1284L88.3635 26.3103L96.4114 26.3103ZM110.552 29.5198L99.2702 29.5198L99.2702 12.0625L102.966 12.0625L102.966 26.1888L110.552 26.1888L110.552 29.5198ZM126.816 12.0625L126.816 22.8821C126.816 27.0154 124.19 29.8845 119.644 29.8845C115.024 29.8845 112.447 27.0154 112.447 22.8821L112.447 12.0625L116.142 12.0625L116.142 22.955C116.142 25.119 117.188 26.5778 119.644 26.5778C122.075 26.5778 123.12 25.119 123.12 22.955L123.12 12.0625L126.816 12.0625ZM136.551 29.5198L130.351 29.5198L130.351 12.0625L136.551 12.0625C142.094 12.0625 145.45 15.6123 145.45 20.6939C145.45 25.7754 141.973 29.5198 136.551 29.5198ZM134.047 15.2476L134.047 26.3347L136.356 26.3347C139.833 26.3347 141.657 24.3166 141.657 20.6939C141.657 17.217 139.833 15.2476 136.356 15.2476L134.047 15.2476ZM159.76 26.3103L159.76 29.5198L148.016 29.5198L148.016 12.0625L159.589 12.0625L159.589 15.2719L151.712 15.2719L151.712 18.9433L158.86 18.9433L158.86 22.1284L151.712 22.1284L151.712 26.3103L159.76 26.3103Z" fill="#503217"/>
</g>
</g>
<defs>
<clipPath id="clip0_1174_1585">
<rect width="160" height="40" fill="white" transform="translate(0.400391 0.5)"/>
</clipPath>
</defs>
</svg>
