<svg width="157" height="37" viewBox="0 0 157 37" fill="none" xmlns="http://www.w3.org/2000/svg">
<g clip-path="url(#clip0_1002_16)">
<path fill-rule="evenodd" clip-rule="evenodd" d="M7.67914 4.8418C5.19343 6.53993 3.18448 8.84688 1.84409 11.5424C0.503701 14.2379 -0.123383 17.232 0.0227062 20.2388C0.168795 23.2457 1.08318 26.1649 2.67856 28.7178C4.27395 31.2707 6.49707 33.372 9.1357 34.8211C11.7743 36.2703 14.7404 37.0189 17.7507 36.9956C20.761 36.9722 23.715 36.1776 26.3308 34.6876C28.9466 33.1976 31.1368 31.062 32.6924 28.4846C34.2479 25.9073 35.1168 22.9742 35.2162 19.9655C34.7698 22.577 33.7056 25.0439 32.1123 27.1607C30.519 29.2774 28.4428 30.9826 26.0568 32.1341C23.6707 33.2856 21.044 33.85 18.3955 33.7804C15.7471 33.7107 13.1537 33.0089 10.8315 31.7335C8.50927 30.4581 6.5256 28.6461 5.04582 26.4485C3.56605 24.2509 2.63304 21.7314 2.32458 19.1001C2.01613 16.4687 2.34116 13.8018 3.27259 11.3215C4.20402 8.8413 5.71486 6.61965 7.67914 4.8418Z" fill="#8F7D6A"/>
<path fill-rule="evenodd" clip-rule="evenodd" d="M27.3606 29.136C29.4584 27.7033 31.1539 25.7567 32.2852 23.4821C33.4166 21.2075 33.9459 18.6809 33.8228 16.1435C33.6997 13.6061 32.9283 11.1426 31.5821 8.98817C30.2359 6.83378 28.3599 5.06045 26.1332 3.83747C23.9066 2.61448 21.4036 1.98269 18.8633 2.0024C16.323 2.02211 13.8301 2.69267 11.6227 3.95006C9.41532 5.20745 7.56708 7.00969 6.25447 9.1847C4.94187 11.3597 4.20871 13.8349 4.125 16.3739C4.50162 14.1702 5.39959 12.0884 6.74406 10.3022C8.08853 8.51593 9.84053 7.07697 11.854 6.10527C13.8675 5.13356 16.0841 4.65727 18.319 4.7161C20.5539 4.77493 22.7423 5.36718 24.7019 6.44346C26.6614 7.51975 28.3353 9.04889 29.584 10.9034C30.8326 12.7579 31.6198 14.884 31.88 17.1045C32.1401 19.325 31.8657 21.5755 31.0795 23.6684C30.2934 25.7613 29.0183 27.636 27.3606 29.136Z" fill="#8F7D6A"/>
<path fill-rule="evenodd" clip-rule="evenodd" d="M10.4531 19.8288V22.9226H15.001V27.434H18.0219V22.9226H22.5715V19.8288H18.0219V15.3174H15.001V19.8288H10.4531Z" fill="#503217"/>
<path fill-rule="evenodd" clip-rule="evenodd" d="M23.5903 14.299C21.9531 12.6754 19.8037 11.6695 17.5082 11.4525C15.2126 11.2355 12.9128 11.8208 11.0004 13.1089C9.08789 14.3969 7.68096 16.308 7.01914 18.5167C6.35732 20.7255 6.48151 23.0953 7.37057 25.2228C8.25964 27.3503 9.85861 29.1039 11.8952 30.1849C13.9319 31.266 16.2802 31.6078 18.5405 31.152C20.8008 30.6963 22.8333 29.4712 24.2918 27.6854C25.7504 25.8996 26.5449 23.6634 26.5401 21.3576C26.5389 20.0446 26.2776 18.7448 25.7713 17.5332C25.265 16.3217 24.5238 15.2225 23.5903 14.299ZM16.4935 12.6957C17.6368 12.6872 18.7702 12.9083 19.8265 13.3458C20.8828 13.7834 21.8405 14.4285 22.6429 15.2429C23.4507 16.047 24.0917 17.0027 24.5291 18.0551C24.9664 19.1076 25.1916 20.2361 25.1916 21.3758C25.1916 22.5156 24.9664 23.6441 24.5291 24.6966C24.0917 25.749 23.4507 26.7047 22.6429 27.5088C21.8387 28.3156 20.8831 28.9558 19.831 29.3926C18.7789 29.8294 17.6509 30.0543 16.5117 30.0543C15.3725 30.0543 14.2445 29.8294 13.1924 29.3926C12.1403 28.9558 11.1847 28.3156 10.3805 27.5088C9.16771 26.297 8.34113 24.753 8.00512 23.0718C7.6691 21.3907 7.83873 19.6476 8.49257 18.0627C9.14642 16.4779 10.2552 15.1223 11.6789 14.167C13.1025 13.2118 14.7773 12.6998 16.4918 12.6957H16.4935Z" fill="#503217"/>
</g>
<path d="M68.438 8.37V32H64.562V15.816L57.354 32H54.668L47.426 15.816V32H43.55V8.37H47.732L56.028 26.9L64.29 8.37H68.438ZM90.7024 22.174C90.7024 22.8767 90.6571 23.5113 90.5664 24.078H76.2524C76.3658 25.574 76.9211 26.7753 77.9184 27.682C78.9158 28.5887 80.1398 29.042 81.5904 29.042C83.6758 29.042 85.1491 28.1693 86.0104 26.424H90.1924C89.6258 28.1467 88.5944 29.5633 87.0984 30.674C85.6251 31.762 83.7891 32.306 81.5904 32.306C79.7998 32.306 78.1904 31.9093 76.7624 31.116C75.3571 30.3 74.2464 29.1667 73.4304 27.716C72.6371 26.2427 72.2404 24.5427 72.2404 22.616C72.2404 20.6893 72.6258 19.0007 73.3964 17.55C74.1898 16.0767 75.2891 14.9433 76.6944 14.15C78.1224 13.3567 79.7544 12.96 81.5904 12.96C83.3584 12.96 84.9338 13.3453 86.3164 14.116C87.6991 14.8867 88.7758 15.9747 89.5464 17.38C90.3171 18.7627 90.7024 20.3607 90.7024 22.174ZM86.6564 20.95C86.6338 19.522 86.1238 18.3773 85.1264 17.516C84.1291 16.6547 82.8938 16.224 81.4204 16.224C80.0831 16.224 78.9384 16.6547 77.9864 17.516C77.0344 18.3547 76.4678 19.4993 76.2864 20.95H86.6564ZM93.2248 22.548C93.2248 20.6667 93.6101 19.0007 94.3808 17.55C95.1741 16.0993 96.2395 14.9773 97.5768 14.184C98.9368 13.368 100.444 12.96 102.099 12.96C103.323 12.96 104.524 13.232 105.703 13.776C106.904 14.2973 107.856 15 108.559 15.884V6.84H112.469V32H108.559V29.178C107.924 30.0847 107.04 30.8327 105.907 31.422C104.796 32.0113 103.515 32.306 102.065 32.306C100.433 32.306 98.9368 31.898 97.5768 31.082C96.2395 30.2433 95.1741 29.0873 94.3808 27.614C93.6101 26.118 93.2248 24.4293 93.2248 22.548ZM108.559 22.616C108.559 21.324 108.287 20.202 107.743 19.25C107.221 18.298 106.53 17.5727 105.669 17.074C104.807 16.5753 103.878 16.326 102.881 16.326C101.883 16.326 100.954 16.5753 100.093 17.074C99.2315 17.55 98.5288 18.264 97.9848 19.216C97.4635 20.1453 97.2028 21.256 97.2028 22.548C97.2028 23.84 97.4635 24.9733 97.9848 25.948C98.5288 26.9227 99.2315 27.6707 100.093 28.192C100.977 28.6907 101.906 28.94 102.881 28.94C103.878 28.94 104.807 28.6907 105.669 28.192C106.53 27.6933 107.221 26.968 107.743 26.016C108.287 25.0413 108.559 23.908 108.559 22.616ZM119.532 10.784C118.829 10.784 118.24 10.546 117.764 10.07C117.288 9.594 117.05 9.00467 117.05 8.302C117.05 7.59933 117.288 7.01 117.764 6.534C118.24 6.058 118.829 5.82 119.532 5.82C120.212 5.82 120.79 6.058 121.266 6.534C121.742 7.01 121.98 7.59933 121.98 8.302C121.98 9.00467 121.742 9.594 121.266 10.07C120.79 10.546 120.212 10.784 119.532 10.784ZM121.436 13.266V32H117.56V13.266H121.436ZM134.379 16.428H130.911V32H127.001V16.428H124.791V13.266H127.001V11.94C127.001 9.78666 127.567 8.22266 128.701 7.248C129.857 6.25067 131.659 5.752 134.107 5.752V8.982C132.928 8.982 132.101 9.20867 131.625 9.662C131.149 10.0927 130.911 10.852 130.911 11.94V13.266H134.379V16.428ZM139.786 10.784C139.083 10.784 138.494 10.546 138.018 10.07C137.542 9.594 137.304 9.00467 137.304 8.302C137.304 7.59933 137.542 7.01 138.018 6.534C138.494 6.058 139.083 5.82 139.786 5.82C140.466 5.82 141.044 6.058 141.52 6.534C141.996 7.01 142.234 7.59933 142.234 8.302C142.234 9.00467 141.996 9.594 141.52 10.07C141.044 10.546 140.466 10.784 139.786 10.784ZM141.69 13.266V32H137.814V13.266H141.69ZM151.301 16.428V26.798C151.301 27.5007 151.459 28.0107 151.777 28.328C152.117 28.6227 152.683 28.77 153.477 28.77H155.857V32H152.797C151.051 32 149.714 31.592 148.785 30.776C147.855 29.96 147.391 28.634 147.391 26.798V16.428H145.181V13.266H147.391V8.608H151.301V13.266H155.857V16.428H151.301Z" fill="#503217"/>
<defs>
<clipPath id="clip0_1002_16">
<rect width="35.2169" height="35" fill="white" transform="translate(0 2)"/>
</clipPath>
</defs>
</svg>
