<svg width="24" height="25" viewBox="0 0 24 25" fill="none" xmlns="http://www.w3.org/2000/svg">
<path d="M9 5.5V7M9 5.5V3.5M9 5.5H15M9 5.5C8.07099 5.5 7.60649 5.5 7.21783 5.56156C5.07837 5.90042 3.40042 7.57837 3.06156 9.71783C3 10.1065 3 10.571 3 11.5V13.5C3 16.3003 3 17.7004 3.54497 18.77C4.02433 19.7108 4.78924 20.4757 5.73005 20.955C6.79961 21.5 8.19974 21.5 11 21.5H13C15.8003 21.5 17.2004 21.5 18.27 20.955C19.2108 20.4757 19.9757 19.7108 20.455 18.77C21 17.7004 21 16.3003 21 13.5V11.5C21 10.571 21 10.1065 20.9384 9.71783C20.5996 7.57837 18.9216 5.90042 16.7822 5.56156C16.3935 5.5 15.929 5.5 15 5.5M15 5.5V3.5M15 5.5V7M12 17.5V10.5M7.5 17.5V10.5M16.5 17.5V10.5" stroke="#8F7D6A" stroke-width="1.5" stroke-linecap="round" stroke-linejoin="round"/>
</svg>
